G04 EAGLE Gerber RS-274X export*
G75*
%MOMM*%
%FSLAX34Y34*%
%LPD*%
%INTop Copper*%
%IPPOS*%
%AMOC8*
5,1,8,0,0,1.08239X$1,22.5*%
G01*
%ADD10R,1.524000X1.524000*%
%ADD11P,1.649562X8X202.500000*%
%ADD12R,1.250000X2.000000*%
%ADD13R,2.650000X2.650000*%
%ADD14C,1.016000*%
%ADD15C,0.304800*%

G36*
X568117Y38530D02*
X568117Y38530D01*
X568134Y38540D01*
X568154Y38544D01*
X568243Y38597D01*
X568334Y38646D01*
X568348Y38660D01*
X568365Y38670D01*
X568432Y38749D01*
X568504Y38824D01*
X568512Y38842D01*
X568525Y38857D01*
X568564Y38953D01*
X568607Y39047D01*
X568609Y39067D01*
X568617Y39085D01*
X568635Y39252D01*
X568635Y174378D01*
X568632Y174398D01*
X568634Y174417D01*
X568612Y174519D01*
X568596Y174621D01*
X568586Y174638D01*
X568582Y174658D01*
X568529Y174747D01*
X568480Y174838D01*
X568466Y174852D01*
X568456Y174869D01*
X568377Y174936D01*
X568302Y175008D01*
X568284Y175016D01*
X568269Y175029D01*
X568173Y175068D01*
X568079Y175111D01*
X568059Y175113D01*
X568041Y175121D01*
X567874Y175139D01*
X562691Y175139D01*
X556739Y181091D01*
X556739Y189509D01*
X562691Y195461D01*
X571109Y195461D01*
X573220Y193350D01*
X573278Y193308D01*
X573330Y193258D01*
X573377Y193237D01*
X573419Y193206D01*
X573488Y193185D01*
X573553Y193155D01*
X573605Y193149D01*
X573655Y193134D01*
X573726Y193136D01*
X573797Y193128D01*
X573848Y193139D01*
X573900Y193140D01*
X573968Y193165D01*
X574038Y193180D01*
X574083Y193207D01*
X574131Y193225D01*
X574187Y193269D01*
X574249Y193306D01*
X574283Y193346D01*
X574323Y193378D01*
X574362Y193439D01*
X574409Y193493D01*
X574428Y193541D01*
X574456Y193585D01*
X574474Y193655D01*
X574501Y193721D01*
X574509Y193793D01*
X574517Y193824D01*
X574515Y193847D01*
X574519Y193888D01*
X574519Y202112D01*
X574508Y202183D01*
X574506Y202254D01*
X574488Y202303D01*
X574480Y202355D01*
X574446Y202418D01*
X574421Y202485D01*
X574389Y202526D01*
X574364Y202572D01*
X574312Y202622D01*
X574268Y202678D01*
X574224Y202706D01*
X574186Y202742D01*
X574121Y202772D01*
X574061Y202811D01*
X574010Y202823D01*
X573963Y202845D01*
X573892Y202853D01*
X573822Y202871D01*
X573770Y202867D01*
X573719Y202872D01*
X573648Y202857D01*
X573577Y202851D01*
X573529Y202831D01*
X573478Y202820D01*
X573417Y202783D01*
X573351Y202755D01*
X573295Y202710D01*
X573267Y202694D01*
X573252Y202676D01*
X573220Y202650D01*
X571109Y200539D01*
X568423Y200539D01*
X568423Y209938D01*
X568420Y209958D01*
X568422Y209977D01*
X568400Y210079D01*
X568383Y210181D01*
X568374Y210198D01*
X568370Y210218D01*
X568317Y210307D01*
X568268Y210398D01*
X568254Y210412D01*
X568244Y210429D01*
X568165Y210496D01*
X568090Y210567D01*
X568072Y210576D01*
X568057Y210589D01*
X567961Y210627D01*
X567867Y210671D01*
X567847Y210673D01*
X567829Y210681D01*
X567662Y210699D01*
X566899Y210699D01*
X566899Y210701D01*
X567662Y210701D01*
X567682Y210704D01*
X567701Y210702D01*
X567803Y210724D01*
X567905Y210741D01*
X567922Y210750D01*
X567942Y210754D01*
X568031Y210807D01*
X568122Y210856D01*
X568136Y210870D01*
X568153Y210880D01*
X568220Y210959D01*
X568291Y211034D01*
X568300Y211052D01*
X568313Y211067D01*
X568352Y211163D01*
X568395Y211257D01*
X568397Y211277D01*
X568405Y211295D01*
X568423Y211462D01*
X568423Y220861D01*
X571109Y220861D01*
X573220Y218750D01*
X573278Y218708D01*
X573330Y218658D01*
X573377Y218637D01*
X573419Y218606D01*
X573488Y218585D01*
X573553Y218555D01*
X573605Y218549D01*
X573655Y218534D01*
X573726Y218536D01*
X573797Y218528D01*
X573848Y218539D01*
X573900Y218540D01*
X573968Y218565D01*
X574038Y218580D01*
X574083Y218607D01*
X574131Y218625D01*
X574187Y218669D01*
X574249Y218706D01*
X574283Y218746D01*
X574323Y218778D01*
X574362Y218839D01*
X574409Y218893D01*
X574428Y218941D01*
X574456Y218985D01*
X574474Y219055D01*
X574501Y219121D01*
X574509Y219193D01*
X574517Y219224D01*
X574515Y219247D01*
X574519Y219288D01*
X574519Y360268D01*
X638316Y424065D01*
X723401Y424065D01*
X723491Y424079D01*
X723582Y424087D01*
X723612Y424099D01*
X723644Y424104D01*
X723724Y424147D01*
X723808Y424183D01*
X723840Y424209D01*
X723861Y424220D01*
X723883Y424243D01*
X723939Y424288D01*
X734316Y434665D01*
X734369Y434739D01*
X734429Y434808D01*
X734441Y434838D01*
X734460Y434864D01*
X734487Y434951D01*
X734521Y435036D01*
X734525Y435077D01*
X734532Y435100D01*
X734531Y435132D01*
X734539Y435203D01*
X734539Y443509D01*
X740491Y449461D01*
X748909Y449461D01*
X754861Y443509D01*
X754861Y435091D01*
X748909Y429139D01*
X740603Y429139D01*
X740513Y429125D01*
X740422Y429117D01*
X740392Y429105D01*
X740360Y429100D01*
X740280Y429057D01*
X740196Y429021D01*
X740164Y428995D01*
X740143Y428984D01*
X740121Y428961D01*
X740065Y428916D01*
X727084Y415935D01*
X641999Y415935D01*
X641909Y415921D01*
X641818Y415913D01*
X641788Y415901D01*
X641756Y415896D01*
X641676Y415853D01*
X641592Y415817D01*
X641560Y415791D01*
X641539Y415780D01*
X641517Y415757D01*
X641512Y415753D01*
X641511Y415753D01*
X641511Y415752D01*
X641461Y415712D01*
X582872Y357123D01*
X582819Y357049D01*
X582759Y356980D01*
X582747Y356950D01*
X582728Y356924D01*
X582701Y356837D01*
X582667Y356752D01*
X582663Y356711D01*
X582656Y356688D01*
X582657Y356656D01*
X582649Y356585D01*
X582649Y217256D01*
X582660Y217185D01*
X582662Y217114D01*
X582680Y217065D01*
X582688Y217013D01*
X582722Y216950D01*
X582747Y216883D01*
X582779Y216842D01*
X582804Y216796D01*
X582856Y216746D01*
X582900Y216690D01*
X582944Y216662D01*
X582982Y216626D01*
X583047Y216596D01*
X583107Y216557D01*
X583158Y216545D01*
X583205Y216523D01*
X583276Y216515D01*
X583346Y216497D01*
X583398Y216501D01*
X583449Y216496D01*
X583520Y216511D01*
X583591Y216517D01*
X583639Y216537D01*
X583690Y216548D01*
X583751Y216585D01*
X583817Y216613D01*
X583873Y216658D01*
X583901Y216674D01*
X583916Y216692D01*
X583948Y216718D01*
X588091Y220861D01*
X596509Y220861D01*
X602461Y214909D01*
X602461Y206491D01*
X596509Y200539D01*
X588091Y200539D01*
X583948Y204682D01*
X583890Y204724D01*
X583838Y204774D01*
X583791Y204795D01*
X583749Y204826D01*
X583680Y204847D01*
X583615Y204877D01*
X583563Y204883D01*
X583513Y204898D01*
X583442Y204896D01*
X583371Y204904D01*
X583320Y204893D01*
X583268Y204892D01*
X583200Y204867D01*
X583130Y204852D01*
X583085Y204825D01*
X583037Y204807D01*
X582981Y204763D01*
X582919Y204726D01*
X582885Y204686D01*
X582845Y204654D01*
X582806Y204593D01*
X582759Y204539D01*
X582740Y204491D01*
X582712Y204447D01*
X582694Y204377D01*
X582667Y204311D01*
X582659Y204239D01*
X582651Y204208D01*
X582653Y204185D01*
X582649Y204144D01*
X582649Y191856D01*
X582660Y191785D01*
X582662Y191714D01*
X582680Y191665D01*
X582688Y191613D01*
X582722Y191550D01*
X582747Y191483D01*
X582779Y191442D01*
X582804Y191396D01*
X582856Y191346D01*
X582900Y191290D01*
X582944Y191262D01*
X582982Y191226D01*
X583047Y191196D01*
X583107Y191157D01*
X583158Y191145D01*
X583205Y191123D01*
X583276Y191115D01*
X583346Y191097D01*
X583398Y191101D01*
X583449Y191096D01*
X583520Y191111D01*
X583591Y191117D01*
X583639Y191137D01*
X583690Y191148D01*
X583751Y191185D01*
X583817Y191213D01*
X583873Y191258D01*
X583901Y191274D01*
X583916Y191292D01*
X583948Y191318D01*
X588091Y195461D01*
X596509Y195461D01*
X602461Y189509D01*
X602461Y181091D01*
X596509Y175139D01*
X588091Y175139D01*
X583948Y179282D01*
X583890Y179324D01*
X583838Y179374D01*
X583791Y179395D01*
X583749Y179426D01*
X583680Y179447D01*
X583615Y179477D01*
X583563Y179483D01*
X583513Y179498D01*
X583442Y179496D01*
X583371Y179504D01*
X583320Y179493D01*
X583268Y179492D01*
X583200Y179467D01*
X583130Y179452D01*
X583085Y179425D01*
X583037Y179407D01*
X582981Y179363D01*
X582919Y179326D01*
X582885Y179286D01*
X582845Y179254D01*
X582806Y179193D01*
X582759Y179139D01*
X582740Y179091D01*
X582712Y179047D01*
X582694Y178977D01*
X582667Y178911D01*
X582659Y178839D01*
X582651Y178808D01*
X582653Y178785D01*
X582653Y178781D01*
X576988Y173116D01*
X576935Y173042D01*
X576875Y172972D01*
X576863Y172942D01*
X576844Y172916D01*
X576817Y172829D01*
X576783Y172744D01*
X576779Y172703D01*
X576772Y172681D01*
X576773Y172649D01*
X576765Y172577D01*
X576765Y39252D01*
X576768Y39232D01*
X576766Y39213D01*
X576788Y39111D01*
X576804Y39009D01*
X576814Y38992D01*
X576818Y38972D01*
X576871Y38883D01*
X576920Y38792D01*
X576934Y38778D01*
X576944Y38761D01*
X577023Y38694D01*
X577098Y38622D01*
X577116Y38614D01*
X577131Y38601D01*
X577227Y38562D01*
X577321Y38519D01*
X577341Y38517D01*
X577359Y38509D01*
X577526Y38491D01*
X587002Y38491D01*
X588491Y37002D01*
X588491Y36698D01*
X588495Y36674D01*
X588492Y36650D01*
X588514Y36553D01*
X588530Y36455D01*
X588542Y36434D01*
X588547Y36410D01*
X588599Y36325D01*
X588646Y36238D01*
X588663Y36221D01*
X588676Y36201D01*
X588752Y36137D01*
X588824Y36068D01*
X588846Y36058D01*
X588864Y36043D01*
X588957Y36007D01*
X589047Y35965D01*
X589071Y35962D01*
X589093Y35953D01*
X589193Y35949D01*
X589291Y35938D01*
X589315Y35943D01*
X589339Y35942D01*
X589435Y35969D01*
X589532Y35990D01*
X589553Y36002D01*
X589576Y36009D01*
X589658Y36065D01*
X589743Y36116D01*
X589759Y36134D01*
X589778Y36148D01*
X589838Y36227D01*
X589903Y36303D01*
X589912Y36326D01*
X589926Y36345D01*
X589987Y36501D01*
X590102Y36931D01*
X590437Y37510D01*
X590910Y37983D01*
X591489Y38318D01*
X592136Y38491D01*
X604197Y38491D01*
X604197Y23462D01*
X604200Y23442D01*
X604198Y23423D01*
X604220Y23321D01*
X604237Y23219D01*
X604246Y23202D01*
X604250Y23182D01*
X604303Y23093D01*
X604352Y23002D01*
X604366Y22988D01*
X604376Y22971D01*
X604455Y22904D01*
X604530Y22833D01*
X604548Y22824D01*
X604563Y22811D01*
X604659Y22772D01*
X604753Y22729D01*
X604773Y22727D01*
X604791Y22719D01*
X604958Y22701D01*
X606482Y22701D01*
X606502Y22704D01*
X606521Y22702D01*
X606623Y22724D01*
X606725Y22741D01*
X606742Y22750D01*
X606762Y22754D01*
X606851Y22807D01*
X606942Y22856D01*
X606956Y22870D01*
X606973Y22880D01*
X607040Y22959D01*
X607111Y23034D01*
X607120Y23052D01*
X607133Y23067D01*
X607172Y23163D01*
X607215Y23257D01*
X607217Y23277D01*
X607225Y23295D01*
X607243Y23462D01*
X607243Y38491D01*
X619304Y38491D01*
X619951Y38318D01*
X620530Y37983D01*
X621003Y37510D01*
X621338Y36931D01*
X621453Y36501D01*
X621463Y36479D01*
X621467Y36455D01*
X621513Y36368D01*
X621554Y36277D01*
X621570Y36259D01*
X621582Y36238D01*
X621653Y36170D01*
X621721Y36097D01*
X621742Y36085D01*
X621760Y36068D01*
X621850Y36027D01*
X621937Y35979D01*
X621961Y35975D01*
X621983Y35965D01*
X622082Y35954D01*
X622180Y35937D01*
X622204Y35940D01*
X622227Y35938D01*
X622324Y35959D01*
X622423Y35974D01*
X622444Y35985D01*
X622468Y35990D01*
X622553Y36041D01*
X622642Y36087D01*
X622658Y36104D01*
X622679Y36116D01*
X622744Y36192D01*
X622813Y36263D01*
X622823Y36285D01*
X622839Y36303D01*
X622876Y36395D01*
X622919Y36485D01*
X622922Y36509D01*
X622931Y36531D01*
X622949Y36698D01*
X622949Y37002D01*
X624438Y38491D01*
X633914Y38491D01*
X633934Y38494D01*
X633953Y38492D01*
X634055Y38514D01*
X634157Y38530D01*
X634174Y38540D01*
X634194Y38544D01*
X634283Y38597D01*
X634374Y38646D01*
X634388Y38660D01*
X634405Y38670D01*
X634472Y38749D01*
X634544Y38824D01*
X634552Y38842D01*
X634565Y38857D01*
X634604Y38953D01*
X634647Y39047D01*
X634649Y39067D01*
X634657Y39085D01*
X634675Y39252D01*
X634675Y160424D01*
X648091Y173840D01*
X648133Y173898D01*
X648183Y173950D01*
X648205Y173997D01*
X648235Y174039D01*
X648256Y174108D01*
X648286Y174173D01*
X648292Y174225D01*
X648307Y174275D01*
X648305Y174346D01*
X648313Y174417D01*
X648302Y174468D01*
X648301Y174520D01*
X648276Y174588D01*
X648261Y174658D01*
X648234Y174703D01*
X648216Y174751D01*
X648172Y174807D01*
X648135Y174869D01*
X648095Y174903D01*
X648063Y174943D01*
X648002Y174982D01*
X647948Y175029D01*
X647900Y175048D01*
X647856Y175076D01*
X647786Y175094D01*
X647720Y175121D01*
X647648Y175129D01*
X647617Y175137D01*
X647594Y175135D01*
X647553Y175139D01*
X638891Y175139D01*
X632939Y181091D01*
X632939Y189509D01*
X638891Y195461D01*
X647309Y195461D01*
X651452Y191318D01*
X651510Y191276D01*
X651562Y191226D01*
X651609Y191205D01*
X651651Y191174D01*
X651720Y191153D01*
X651785Y191123D01*
X651837Y191117D01*
X651887Y191102D01*
X651958Y191104D01*
X652029Y191096D01*
X652080Y191107D01*
X652132Y191108D01*
X652200Y191133D01*
X652270Y191148D01*
X652315Y191175D01*
X652363Y191193D01*
X652419Y191237D01*
X652481Y191274D01*
X652515Y191314D01*
X652555Y191346D01*
X652594Y191407D01*
X652641Y191461D01*
X652660Y191509D01*
X652688Y191553D01*
X652706Y191623D01*
X652733Y191689D01*
X652741Y191761D01*
X652749Y191792D01*
X652747Y191815D01*
X652747Y191819D01*
X662341Y201413D01*
X662353Y201429D01*
X662368Y201442D01*
X662424Y201529D01*
X662485Y201613D01*
X662490Y201632D01*
X662501Y201649D01*
X662526Y201749D01*
X662557Y201848D01*
X662556Y201868D01*
X662561Y201887D01*
X662553Y201990D01*
X662551Y202094D01*
X662544Y202113D01*
X662542Y202132D01*
X662502Y202227D01*
X662466Y202325D01*
X662454Y202340D01*
X662446Y202359D01*
X662341Y202490D01*
X658339Y206491D01*
X658339Y214909D01*
X664291Y220861D01*
X672709Y220861D01*
X678661Y214909D01*
X678661Y206491D01*
X672788Y200618D01*
X672735Y200544D01*
X672675Y200475D01*
X672663Y200445D01*
X672644Y200419D01*
X672617Y200332D01*
X672583Y200247D01*
X672579Y200206D01*
X672572Y200183D01*
X672573Y200151D01*
X672572Y200147D01*
X669185Y196760D01*
X669143Y196702D01*
X669094Y196650D01*
X669072Y196603D01*
X669041Y196561D01*
X669020Y196492D01*
X668990Y196427D01*
X668984Y196375D01*
X668969Y196325D01*
X668971Y196254D01*
X668963Y196183D01*
X668974Y196132D01*
X668975Y196080D01*
X669000Y196012D01*
X669015Y195942D01*
X669042Y195897D01*
X669060Y195849D01*
X669105Y195793D01*
X669141Y195731D01*
X669181Y195697D01*
X669214Y195657D01*
X669274Y195618D01*
X669328Y195571D01*
X669377Y195552D01*
X669420Y195524D01*
X669490Y195506D01*
X669557Y195479D01*
X669628Y195471D01*
X669659Y195463D01*
X669682Y195465D01*
X669723Y195461D01*
X672709Y195461D01*
X678661Y189509D01*
X678661Y181091D01*
X672709Y175139D01*
X664291Y175139D01*
X662180Y177250D01*
X662122Y177292D01*
X662070Y177342D01*
X662023Y177363D01*
X661981Y177394D01*
X661912Y177415D01*
X661847Y177445D01*
X661795Y177451D01*
X661745Y177466D01*
X661674Y177464D01*
X661603Y177472D01*
X661552Y177461D01*
X661500Y177460D01*
X661432Y177435D01*
X661362Y177420D01*
X661317Y177393D01*
X661269Y177375D01*
X661213Y177331D01*
X661151Y177294D01*
X661117Y177254D01*
X661077Y177222D01*
X661038Y177161D01*
X660991Y177107D01*
X660972Y177059D01*
X660944Y177015D01*
X660926Y176945D01*
X660899Y176879D01*
X660891Y176807D01*
X660883Y176776D01*
X660885Y176753D01*
X660881Y176712D01*
X660881Y175132D01*
X643028Y157279D01*
X642975Y157205D01*
X642915Y157136D01*
X642903Y157106D01*
X642884Y157080D01*
X642857Y156993D01*
X642823Y156908D01*
X642819Y156867D01*
X642812Y156844D01*
X642813Y156812D01*
X642805Y156741D01*
X642805Y39252D01*
X642808Y39232D01*
X642806Y39213D01*
X642828Y39111D01*
X642844Y39009D01*
X642854Y38992D01*
X642858Y38972D01*
X642911Y38883D01*
X642960Y38792D01*
X642974Y38778D01*
X642984Y38761D01*
X643063Y38694D01*
X643138Y38622D01*
X643156Y38614D01*
X643171Y38601D01*
X643267Y38562D01*
X643361Y38519D01*
X643381Y38517D01*
X643399Y38509D01*
X643566Y38491D01*
X653042Y38491D01*
X654531Y37002D01*
X654531Y11684D01*
X654534Y11664D01*
X654532Y11645D01*
X654554Y11543D01*
X654570Y11441D01*
X654580Y11424D01*
X654584Y11404D01*
X654637Y11315D01*
X654686Y11224D01*
X654700Y11210D01*
X654710Y11193D01*
X654789Y11126D01*
X654864Y11054D01*
X654882Y11046D01*
X654897Y11033D01*
X654993Y10994D01*
X655087Y10951D01*
X655107Y10949D01*
X655125Y10941D01*
X655292Y10923D01*
X822102Y10923D01*
X822172Y10934D01*
X822244Y10936D01*
X822293Y10954D01*
X822345Y10962D01*
X822408Y10996D01*
X822475Y11021D01*
X822516Y11053D01*
X822562Y11078D01*
X822611Y11130D01*
X822667Y11174D01*
X822695Y11218D01*
X822731Y11256D01*
X822761Y11321D01*
X822800Y11381D01*
X822813Y11432D01*
X822835Y11479D01*
X822843Y11550D01*
X822860Y11620D01*
X822856Y11672D01*
X822862Y11723D01*
X822847Y11794D01*
X822841Y11865D01*
X822821Y11913D01*
X822810Y11964D01*
X822773Y12025D01*
X822745Y12091D01*
X822700Y12147D01*
X822684Y12175D01*
X822666Y12190D01*
X822640Y12222D01*
X820403Y14459D01*
X818918Y20000D01*
X820403Y25541D01*
X824459Y29597D01*
X830000Y31082D01*
X835541Y29597D01*
X839597Y25541D01*
X841082Y20000D01*
X839597Y14459D01*
X837360Y12222D01*
X837318Y12164D01*
X837269Y12112D01*
X837247Y12065D01*
X837216Y12023D01*
X837195Y11954D01*
X837165Y11889D01*
X837159Y11837D01*
X837144Y11787D01*
X837146Y11716D01*
X837138Y11645D01*
X837149Y11594D01*
X837150Y11542D01*
X837175Y11474D01*
X837190Y11404D01*
X837217Y11360D01*
X837235Y11311D01*
X837280Y11255D01*
X837316Y11193D01*
X837356Y11159D01*
X837389Y11119D01*
X837449Y11080D01*
X837503Y11033D01*
X837552Y11014D01*
X837595Y10986D01*
X837665Y10968D01*
X837732Y10941D01*
X837803Y10933D01*
X837834Y10925D01*
X837857Y10927D01*
X837898Y10923D01*
X878316Y10923D01*
X878336Y10926D01*
X878355Y10924D01*
X878457Y10946D01*
X878559Y10962D01*
X878576Y10972D01*
X878596Y10976D01*
X878685Y11029D01*
X878776Y11078D01*
X878790Y11092D01*
X878807Y11102D01*
X878874Y11181D01*
X878946Y11256D01*
X878954Y11274D01*
X878967Y11289D01*
X879006Y11385D01*
X879049Y11479D01*
X879051Y11499D01*
X879059Y11517D01*
X879077Y11684D01*
X879077Y498316D01*
X879074Y498336D01*
X879076Y498355D01*
X879054Y498457D01*
X879038Y498559D01*
X879028Y498576D01*
X879024Y498596D01*
X878971Y498685D01*
X878922Y498776D01*
X878908Y498790D01*
X878898Y498807D01*
X878819Y498874D01*
X878744Y498946D01*
X878726Y498954D01*
X878711Y498967D01*
X878615Y499006D01*
X878521Y499049D01*
X878501Y499051D01*
X878483Y499059D01*
X878316Y499077D01*
X33789Y499077D01*
X33744Y499070D01*
X33698Y499072D01*
X33623Y499050D01*
X33546Y499038D01*
X33506Y499016D01*
X33462Y499003D01*
X33398Y498959D01*
X33329Y498922D01*
X33298Y498889D01*
X33260Y498863D01*
X33213Y498800D01*
X33160Y498744D01*
X33140Y498702D01*
X33113Y498666D01*
X33089Y498592D01*
X33056Y498521D01*
X33051Y498475D01*
X33037Y498432D01*
X33038Y498354D01*
X33029Y498277D01*
X33039Y498232D01*
X33039Y498186D01*
X33077Y498054D01*
X33081Y498036D01*
X33084Y498032D01*
X33086Y498025D01*
X35161Y493016D01*
X35161Y486984D01*
X32853Y481412D01*
X28588Y477147D01*
X23016Y474839D01*
X16984Y474839D01*
X11975Y476914D01*
X11931Y476925D01*
X11889Y476944D01*
X11812Y476952D01*
X11736Y476970D01*
X11690Y476966D01*
X11645Y476971D01*
X11568Y476954D01*
X11491Y476947D01*
X11449Y476929D01*
X11404Y476919D01*
X11337Y476879D01*
X11266Y476847D01*
X11232Y476816D01*
X11193Y476793D01*
X11142Y476733D01*
X11085Y476681D01*
X11063Y476641D01*
X11033Y476606D01*
X11004Y476533D01*
X10967Y476465D01*
X10958Y476420D01*
X10941Y476378D01*
X10926Y476242D01*
X10923Y476223D01*
X10924Y476218D01*
X10923Y476211D01*
X10923Y331684D01*
X10926Y331664D01*
X10924Y331645D01*
X10946Y331543D01*
X10962Y331441D01*
X10972Y331424D01*
X10976Y331404D01*
X11029Y331315D01*
X11078Y331224D01*
X11092Y331210D01*
X11102Y331193D01*
X11181Y331126D01*
X11256Y331054D01*
X11274Y331046D01*
X11289Y331033D01*
X11385Y330994D01*
X11479Y330951D01*
X11499Y330949D01*
X11517Y330941D01*
X11684Y330923D01*
X322173Y330923D01*
X326187Y329260D01*
X329260Y326187D01*
X330923Y322173D01*
X330923Y147898D01*
X330934Y147828D01*
X330936Y147756D01*
X330954Y147707D01*
X330962Y147655D01*
X330996Y147592D01*
X331021Y147525D01*
X331053Y147484D01*
X331078Y147438D01*
X331130Y147389D01*
X331174Y147333D01*
X331218Y147305D01*
X331256Y147269D01*
X331321Y147239D01*
X331381Y147200D01*
X331432Y147187D01*
X331479Y147165D01*
X331550Y147157D01*
X331620Y147140D01*
X331672Y147144D01*
X331723Y147138D01*
X331794Y147153D01*
X331865Y147159D01*
X331913Y147179D01*
X331964Y147190D01*
X332025Y147227D01*
X332091Y147255D01*
X332147Y147300D01*
X332175Y147316D01*
X332190Y147334D01*
X332222Y147360D01*
X334459Y149597D01*
X340000Y151082D01*
X345541Y149597D01*
X349597Y145541D01*
X351082Y140000D01*
X349597Y134459D01*
X345541Y130403D01*
X340000Y128918D01*
X334459Y130403D01*
X332222Y132640D01*
X332164Y132682D01*
X332112Y132731D01*
X332065Y132753D01*
X332023Y132784D01*
X331954Y132805D01*
X331889Y132835D01*
X331837Y132841D01*
X331787Y132856D01*
X331716Y132854D01*
X331645Y132862D01*
X331594Y132851D01*
X331542Y132850D01*
X331474Y132825D01*
X331404Y132810D01*
X331359Y132783D01*
X331311Y132765D01*
X331255Y132720D01*
X331193Y132684D01*
X331159Y132644D01*
X331119Y132611D01*
X331080Y132551D01*
X331033Y132497D01*
X331014Y132448D01*
X330986Y132405D01*
X330968Y132335D01*
X330941Y132268D01*
X330933Y132197D01*
X330925Y132166D01*
X330927Y132143D01*
X330923Y132102D01*
X330923Y27898D01*
X330934Y27828D01*
X330936Y27756D01*
X330954Y27707D01*
X330962Y27655D01*
X330996Y27592D01*
X331021Y27525D01*
X331053Y27484D01*
X331078Y27438D01*
X331130Y27389D01*
X331174Y27333D01*
X331218Y27305D01*
X331256Y27269D01*
X331321Y27239D01*
X331381Y27200D01*
X331432Y27187D01*
X331479Y27165D01*
X331550Y27157D01*
X331620Y27140D01*
X331672Y27144D01*
X331723Y27138D01*
X331794Y27153D01*
X331865Y27159D01*
X331913Y27179D01*
X331964Y27190D01*
X332025Y27227D01*
X332091Y27255D01*
X332147Y27300D01*
X332175Y27316D01*
X332190Y27334D01*
X332222Y27360D01*
X334459Y29597D01*
X340000Y31082D01*
X345541Y29597D01*
X349597Y25541D01*
X351082Y20000D01*
X349597Y14459D01*
X347360Y12222D01*
X347318Y12164D01*
X347269Y12112D01*
X347247Y12065D01*
X347216Y12023D01*
X347195Y11954D01*
X347165Y11889D01*
X347159Y11837D01*
X347144Y11787D01*
X347146Y11716D01*
X347138Y11645D01*
X347149Y11594D01*
X347150Y11542D01*
X347175Y11474D01*
X347190Y11404D01*
X347217Y11359D01*
X347235Y11311D01*
X347280Y11255D01*
X347316Y11193D01*
X347356Y11159D01*
X347389Y11119D01*
X347449Y11080D01*
X347503Y11033D01*
X347552Y11014D01*
X347595Y10986D01*
X347665Y10968D01*
X347732Y10941D01*
X347803Y10933D01*
X347834Y10925D01*
X347857Y10927D01*
X347898Y10923D01*
X556148Y10923D01*
X556168Y10926D01*
X556187Y10924D01*
X556289Y10946D01*
X556391Y10962D01*
X556408Y10972D01*
X556428Y10976D01*
X556517Y11029D01*
X556608Y11078D01*
X556622Y11092D01*
X556639Y11102D01*
X556706Y11181D01*
X556778Y11256D01*
X556786Y11274D01*
X556799Y11289D01*
X556838Y11385D01*
X556881Y11479D01*
X556883Y11499D01*
X556891Y11517D01*
X556909Y11684D01*
X556909Y37002D01*
X558398Y38491D01*
X567874Y38491D01*
X567894Y38494D01*
X567913Y38492D01*
X568015Y38514D01*
X568117Y38530D01*
G37*
%LPC*%
G36*
X715203Y474861D02*
X715203Y474861D01*
X723509Y474861D01*
X729461Y468909D01*
X729461Y460491D01*
X723509Y454539D01*
X715091Y454539D01*
X709139Y460491D01*
X709139Y468797D01*
X709125Y468887D01*
X709117Y468978D01*
X709105Y469008D01*
X709100Y469040D01*
X709057Y469120D01*
X709021Y469204D01*
X708995Y469236D01*
X708984Y469257D01*
X708961Y469279D01*
X708916Y469335D01*
X702539Y475712D01*
X702465Y475765D01*
X702396Y475825D01*
X702366Y475837D01*
X702340Y475856D01*
X702253Y475883D01*
X702168Y475917D01*
X702127Y475921D01*
X702105Y475928D01*
X702072Y475927D01*
X702001Y475935D01*
X698872Y475935D01*
X698801Y475924D01*
X698730Y475922D01*
X698681Y475904D01*
X698629Y475896D01*
X698566Y475862D01*
X698499Y475837D01*
X698458Y475805D01*
X698412Y475780D01*
X698362Y475728D01*
X698306Y475684D01*
X698278Y475640D01*
X698242Y475602D01*
X698212Y475537D01*
X698173Y475477D01*
X698161Y475426D01*
X698139Y475379D01*
X698131Y475308D01*
X698113Y475238D01*
X698117Y475186D01*
X698112Y475135D01*
X698127Y475064D01*
X698133Y474993D01*
X698153Y474945D01*
X698164Y474894D01*
X698201Y474833D01*
X698229Y474767D01*
X698274Y474711D01*
X698290Y474683D01*
X698308Y474668D01*
X698334Y474636D01*
X704061Y468909D01*
X704061Y460491D01*
X698109Y454539D01*
X689803Y454539D01*
X689713Y454525D01*
X689622Y454517D01*
X689592Y454505D01*
X689560Y454500D01*
X689480Y454457D01*
X689396Y454421D01*
X689364Y454395D01*
X689343Y454384D01*
X689321Y454361D01*
X689265Y454316D01*
X681868Y446919D01*
X677088Y446919D01*
X677017Y446908D01*
X676946Y446906D01*
X676897Y446888D01*
X676845Y446880D01*
X676782Y446846D01*
X676715Y446821D01*
X676674Y446789D01*
X676628Y446764D01*
X676578Y446712D01*
X676522Y446668D01*
X676494Y446624D01*
X676458Y446586D01*
X676428Y446521D01*
X676389Y446461D01*
X676377Y446410D01*
X676355Y446363D01*
X676347Y446292D01*
X676329Y446222D01*
X676333Y446170D01*
X676328Y446119D01*
X676343Y446048D01*
X676349Y445977D01*
X676369Y445929D01*
X676380Y445878D01*
X676417Y445817D01*
X676445Y445751D01*
X676490Y445695D01*
X676506Y445667D01*
X676524Y445652D01*
X676550Y445620D01*
X678661Y443509D01*
X678661Y435091D01*
X672709Y429139D01*
X664291Y429139D01*
X658339Y435091D01*
X658339Y443509D01*
X660450Y445620D01*
X660492Y445678D01*
X660542Y445730D01*
X660563Y445777D01*
X660594Y445819D01*
X660615Y445888D01*
X660645Y445953D01*
X660651Y446005D01*
X660666Y446055D01*
X660664Y446126D01*
X660672Y446197D01*
X660661Y446248D01*
X660660Y446300D01*
X660635Y446368D01*
X660620Y446438D01*
X660593Y446483D01*
X660575Y446531D01*
X660531Y446587D01*
X660494Y446649D01*
X660454Y446683D01*
X660422Y446723D01*
X660361Y446762D01*
X660307Y446809D01*
X660259Y446828D01*
X660215Y446856D01*
X660145Y446874D01*
X660079Y446901D01*
X660007Y446909D01*
X659976Y446917D01*
X659953Y446915D01*
X659912Y446919D01*
X651688Y446919D01*
X651617Y446908D01*
X651546Y446906D01*
X651497Y446888D01*
X651445Y446880D01*
X651382Y446846D01*
X651315Y446821D01*
X651274Y446789D01*
X651228Y446764D01*
X651178Y446712D01*
X651122Y446668D01*
X651094Y446624D01*
X651058Y446586D01*
X651028Y446521D01*
X650989Y446461D01*
X650977Y446410D01*
X650955Y446363D01*
X650947Y446292D01*
X650929Y446222D01*
X650933Y446170D01*
X650928Y446119D01*
X650943Y446048D01*
X650949Y445977D01*
X650969Y445929D01*
X650980Y445878D01*
X651017Y445817D01*
X651045Y445751D01*
X651090Y445695D01*
X651106Y445667D01*
X651124Y445652D01*
X651150Y445620D01*
X653261Y443509D01*
X653261Y440823D01*
X643862Y440823D01*
X643842Y440820D01*
X643823Y440822D01*
X643721Y440800D01*
X643619Y440783D01*
X643602Y440774D01*
X643582Y440770D01*
X643493Y440717D01*
X643402Y440668D01*
X643388Y440654D01*
X643371Y440644D01*
X643304Y440565D01*
X643233Y440490D01*
X643224Y440472D01*
X643211Y440457D01*
X643173Y440361D01*
X643129Y440267D01*
X643127Y440247D01*
X643119Y440229D01*
X643101Y440062D01*
X643101Y439299D01*
X643099Y439299D01*
X643099Y440062D01*
X643096Y440082D01*
X643098Y440101D01*
X643076Y440203D01*
X643059Y440305D01*
X643050Y440322D01*
X643046Y440342D01*
X642993Y440431D01*
X642944Y440522D01*
X642930Y440536D01*
X642920Y440553D01*
X642841Y440620D01*
X642766Y440691D01*
X642748Y440700D01*
X642733Y440713D01*
X642637Y440752D01*
X642543Y440795D01*
X642523Y440797D01*
X642505Y440805D01*
X642338Y440823D01*
X632939Y440823D01*
X632939Y443509D01*
X635050Y445620D01*
X635092Y445678D01*
X635142Y445730D01*
X635163Y445777D01*
X635194Y445819D01*
X635215Y445888D01*
X635245Y445953D01*
X635251Y446005D01*
X635266Y446055D01*
X635264Y446126D01*
X635272Y446197D01*
X635261Y446248D01*
X635260Y446300D01*
X635235Y446368D01*
X635220Y446438D01*
X635193Y446483D01*
X635175Y446531D01*
X635131Y446587D01*
X635094Y446649D01*
X635054Y446683D01*
X635022Y446723D01*
X634961Y446762D01*
X634907Y446809D01*
X634859Y446828D01*
X634815Y446856D01*
X634745Y446874D01*
X634679Y446901D01*
X634607Y446909D01*
X634576Y446917D01*
X634553Y446915D01*
X634512Y446919D01*
X626288Y446919D01*
X626217Y446908D01*
X626146Y446906D01*
X626097Y446888D01*
X626045Y446880D01*
X625982Y446846D01*
X625915Y446821D01*
X625874Y446789D01*
X625828Y446764D01*
X625778Y446712D01*
X625722Y446668D01*
X625694Y446624D01*
X625658Y446586D01*
X625628Y446521D01*
X625589Y446461D01*
X625577Y446410D01*
X625555Y446363D01*
X625547Y446292D01*
X625529Y446222D01*
X625533Y446170D01*
X625528Y446119D01*
X625543Y446048D01*
X625549Y445977D01*
X625569Y445929D01*
X625580Y445878D01*
X625617Y445817D01*
X625645Y445751D01*
X625690Y445695D01*
X625706Y445667D01*
X625724Y445652D01*
X625750Y445620D01*
X627861Y443509D01*
X627861Y435091D01*
X621909Y429139D01*
X613491Y429139D01*
X607539Y435091D01*
X607539Y443509D01*
X609650Y445620D01*
X609692Y445678D01*
X609742Y445730D01*
X609763Y445777D01*
X609794Y445819D01*
X609815Y445888D01*
X609845Y445953D01*
X609851Y446005D01*
X609866Y446055D01*
X609864Y446126D01*
X609872Y446197D01*
X609861Y446248D01*
X609860Y446300D01*
X609835Y446368D01*
X609820Y446438D01*
X609793Y446483D01*
X609775Y446531D01*
X609731Y446587D01*
X609694Y446649D01*
X609654Y446683D01*
X609622Y446723D01*
X609561Y446762D01*
X609507Y446809D01*
X609459Y446828D01*
X609415Y446856D01*
X609345Y446874D01*
X609279Y446901D01*
X609207Y446909D01*
X609176Y446917D01*
X609153Y446915D01*
X609112Y446919D01*
X600888Y446919D01*
X600817Y446908D01*
X600746Y446906D01*
X600697Y446888D01*
X600645Y446880D01*
X600582Y446846D01*
X600515Y446821D01*
X600474Y446789D01*
X600428Y446764D01*
X600378Y446712D01*
X600322Y446668D01*
X600294Y446624D01*
X600258Y446586D01*
X600228Y446521D01*
X600189Y446461D01*
X600177Y446410D01*
X600155Y446363D01*
X600147Y446292D01*
X600129Y446222D01*
X600133Y446170D01*
X600128Y446119D01*
X600143Y446048D01*
X600149Y445977D01*
X600169Y445929D01*
X600180Y445878D01*
X600217Y445817D01*
X600245Y445751D01*
X600290Y445695D01*
X600306Y445667D01*
X600324Y445652D01*
X600350Y445620D01*
X602461Y443509D01*
X602461Y435091D01*
X596509Y429139D01*
X588091Y429139D01*
X582139Y435091D01*
X582139Y443509D01*
X584250Y445620D01*
X584292Y445678D01*
X584342Y445730D01*
X584363Y445777D01*
X584394Y445819D01*
X584415Y445888D01*
X584445Y445953D01*
X584451Y446005D01*
X584466Y446055D01*
X584464Y446126D01*
X584472Y446197D01*
X584461Y446248D01*
X584460Y446300D01*
X584435Y446368D01*
X584420Y446438D01*
X584393Y446483D01*
X584375Y446531D01*
X584331Y446587D01*
X584294Y446649D01*
X584254Y446683D01*
X584222Y446723D01*
X584161Y446762D01*
X584107Y446809D01*
X584059Y446828D01*
X584015Y446856D01*
X583945Y446874D01*
X583879Y446901D01*
X583807Y446909D01*
X583776Y446917D01*
X583753Y446915D01*
X583712Y446919D01*
X575488Y446919D01*
X575417Y446908D01*
X575346Y446906D01*
X575297Y446888D01*
X575245Y446880D01*
X575182Y446846D01*
X575115Y446821D01*
X575074Y446789D01*
X575028Y446764D01*
X574978Y446712D01*
X574922Y446668D01*
X574894Y446624D01*
X574858Y446586D01*
X574828Y446521D01*
X574789Y446461D01*
X574777Y446410D01*
X574755Y446363D01*
X574747Y446292D01*
X574729Y446222D01*
X574733Y446170D01*
X574728Y446119D01*
X574743Y446048D01*
X574749Y445977D01*
X574769Y445929D01*
X574780Y445878D01*
X574817Y445817D01*
X574845Y445751D01*
X574890Y445695D01*
X574906Y445667D01*
X574924Y445652D01*
X574950Y445620D01*
X577061Y443509D01*
X577061Y440823D01*
X567662Y440823D01*
X567642Y440820D01*
X567623Y440822D01*
X567521Y440800D01*
X567419Y440783D01*
X567402Y440774D01*
X567382Y440770D01*
X567293Y440717D01*
X567202Y440668D01*
X567188Y440654D01*
X567171Y440644D01*
X567104Y440565D01*
X567033Y440490D01*
X567024Y440472D01*
X567011Y440457D01*
X566973Y440361D01*
X566929Y440267D01*
X566927Y440247D01*
X566919Y440229D01*
X566901Y440062D01*
X566901Y439299D01*
X566899Y439299D01*
X566899Y440062D01*
X566896Y440082D01*
X566898Y440101D01*
X566876Y440203D01*
X566859Y440305D01*
X566850Y440322D01*
X566846Y440342D01*
X566793Y440431D01*
X566744Y440522D01*
X566730Y440536D01*
X566720Y440553D01*
X566641Y440620D01*
X566566Y440691D01*
X566548Y440700D01*
X566533Y440713D01*
X566437Y440752D01*
X566343Y440795D01*
X566323Y440797D01*
X566305Y440805D01*
X566138Y440823D01*
X556739Y440823D01*
X556739Y443509D01*
X558850Y445620D01*
X558892Y445678D01*
X558942Y445730D01*
X558963Y445777D01*
X558994Y445819D01*
X559015Y445888D01*
X559045Y445953D01*
X559051Y446005D01*
X559066Y446055D01*
X559064Y446126D01*
X559072Y446197D01*
X559061Y446248D01*
X559060Y446300D01*
X559035Y446368D01*
X559020Y446438D01*
X558993Y446483D01*
X558975Y446531D01*
X558931Y446587D01*
X558894Y446649D01*
X558854Y446683D01*
X558822Y446723D01*
X558761Y446762D01*
X558707Y446809D01*
X558659Y446828D01*
X558615Y446856D01*
X558545Y446874D01*
X558479Y446901D01*
X558407Y446909D01*
X558376Y446917D01*
X558353Y446915D01*
X558312Y446919D01*
X550088Y446919D01*
X550017Y446908D01*
X549946Y446906D01*
X549897Y446888D01*
X549845Y446880D01*
X549782Y446846D01*
X549715Y446821D01*
X549674Y446789D01*
X549628Y446764D01*
X549578Y446712D01*
X549522Y446668D01*
X549494Y446624D01*
X549458Y446586D01*
X549428Y446521D01*
X549389Y446461D01*
X549377Y446410D01*
X549355Y446363D01*
X549347Y446292D01*
X549329Y446222D01*
X549333Y446170D01*
X549328Y446119D01*
X549343Y446048D01*
X549349Y445977D01*
X549369Y445929D01*
X549380Y445878D01*
X549417Y445817D01*
X549445Y445751D01*
X549490Y445695D01*
X549506Y445667D01*
X549524Y445652D01*
X549550Y445620D01*
X551661Y443509D01*
X551661Y435091D01*
X545709Y429139D01*
X537291Y429139D01*
X531339Y435091D01*
X531339Y443509D01*
X533450Y445620D01*
X533492Y445678D01*
X533542Y445730D01*
X533563Y445777D01*
X533594Y445819D01*
X533615Y445888D01*
X533645Y445953D01*
X533651Y446005D01*
X533666Y446055D01*
X533664Y446126D01*
X533672Y446197D01*
X533661Y446248D01*
X533660Y446300D01*
X533635Y446368D01*
X533620Y446438D01*
X533593Y446483D01*
X533575Y446531D01*
X533531Y446587D01*
X533494Y446649D01*
X533454Y446683D01*
X533422Y446723D01*
X533361Y446762D01*
X533307Y446809D01*
X533259Y446828D01*
X533215Y446856D01*
X533145Y446874D01*
X533079Y446901D01*
X533007Y446909D01*
X532976Y446917D01*
X532953Y446915D01*
X532912Y446919D01*
X524688Y446919D01*
X524617Y446908D01*
X524546Y446906D01*
X524497Y446888D01*
X524445Y446880D01*
X524382Y446846D01*
X524315Y446821D01*
X524274Y446789D01*
X524228Y446764D01*
X524178Y446712D01*
X524122Y446668D01*
X524094Y446624D01*
X524058Y446586D01*
X524028Y446521D01*
X523989Y446461D01*
X523977Y446410D01*
X523955Y446363D01*
X523947Y446292D01*
X523929Y446222D01*
X523933Y446170D01*
X523928Y446119D01*
X523943Y446048D01*
X523949Y445977D01*
X523969Y445929D01*
X523980Y445878D01*
X524017Y445817D01*
X524045Y445751D01*
X524090Y445695D01*
X524106Y445667D01*
X524124Y445652D01*
X524150Y445620D01*
X526261Y443509D01*
X526261Y435091D01*
X520309Y429139D01*
X511891Y429139D01*
X505939Y435091D01*
X505939Y443509D01*
X508050Y445620D01*
X508092Y445678D01*
X508142Y445730D01*
X508163Y445777D01*
X508194Y445819D01*
X508215Y445888D01*
X508245Y445953D01*
X508251Y446005D01*
X508266Y446055D01*
X508264Y446126D01*
X508272Y446197D01*
X508261Y446248D01*
X508260Y446300D01*
X508235Y446368D01*
X508220Y446438D01*
X508193Y446483D01*
X508175Y446531D01*
X508131Y446587D01*
X508094Y446649D01*
X508054Y446683D01*
X508022Y446723D01*
X507961Y446762D01*
X507907Y446809D01*
X507859Y446828D01*
X507815Y446856D01*
X507745Y446874D01*
X507679Y446901D01*
X507607Y446909D01*
X507576Y446917D01*
X507553Y446915D01*
X507512Y446919D01*
X499288Y446919D01*
X499217Y446908D01*
X499146Y446906D01*
X499097Y446888D01*
X499045Y446880D01*
X498982Y446846D01*
X498915Y446821D01*
X498874Y446789D01*
X498828Y446764D01*
X498778Y446712D01*
X498722Y446668D01*
X498694Y446624D01*
X498658Y446586D01*
X498628Y446521D01*
X498589Y446461D01*
X498577Y446410D01*
X498555Y446363D01*
X498547Y446292D01*
X498529Y446222D01*
X498533Y446170D01*
X498528Y446119D01*
X498543Y446048D01*
X498549Y445977D01*
X498569Y445929D01*
X498580Y445878D01*
X498617Y445817D01*
X498645Y445751D01*
X498690Y445695D01*
X498706Y445667D01*
X498724Y445652D01*
X498750Y445620D01*
X500861Y443509D01*
X500861Y435091D01*
X494909Y429139D01*
X486491Y429139D01*
X480539Y435091D01*
X480539Y443509D01*
X482650Y445620D01*
X482692Y445678D01*
X482742Y445730D01*
X482763Y445777D01*
X482794Y445819D01*
X482815Y445888D01*
X482845Y445953D01*
X482851Y446005D01*
X482866Y446055D01*
X482864Y446126D01*
X482872Y446197D01*
X482861Y446248D01*
X482860Y446300D01*
X482835Y446368D01*
X482820Y446438D01*
X482793Y446483D01*
X482775Y446531D01*
X482731Y446587D01*
X482694Y446649D01*
X482654Y446683D01*
X482622Y446723D01*
X482561Y446762D01*
X482507Y446809D01*
X482459Y446828D01*
X482415Y446856D01*
X482345Y446874D01*
X482279Y446901D01*
X482207Y446909D01*
X482176Y446917D01*
X482153Y446915D01*
X482112Y446919D01*
X473888Y446919D01*
X473817Y446908D01*
X473746Y446906D01*
X473697Y446888D01*
X473645Y446880D01*
X473582Y446846D01*
X473515Y446821D01*
X473474Y446789D01*
X473428Y446764D01*
X473378Y446712D01*
X473322Y446668D01*
X473294Y446624D01*
X473258Y446586D01*
X473228Y446521D01*
X473189Y446461D01*
X473177Y446410D01*
X473155Y446363D01*
X473147Y446292D01*
X473129Y446222D01*
X473133Y446170D01*
X473128Y446119D01*
X473143Y446048D01*
X473149Y445977D01*
X473169Y445929D01*
X473180Y445878D01*
X473217Y445817D01*
X473245Y445751D01*
X473290Y445695D01*
X473306Y445667D01*
X473324Y445652D01*
X473350Y445620D01*
X475461Y443509D01*
X475461Y435091D01*
X469509Y429139D01*
X461091Y429139D01*
X455139Y435091D01*
X455139Y443509D01*
X457250Y445620D01*
X457292Y445678D01*
X457342Y445730D01*
X457363Y445777D01*
X457394Y445819D01*
X457415Y445888D01*
X457445Y445953D01*
X457451Y446005D01*
X457466Y446055D01*
X457464Y446126D01*
X457472Y446197D01*
X457461Y446248D01*
X457460Y446300D01*
X457435Y446368D01*
X457420Y446438D01*
X457393Y446483D01*
X457375Y446531D01*
X457331Y446587D01*
X457294Y446649D01*
X457254Y446683D01*
X457222Y446723D01*
X457161Y446762D01*
X457107Y446809D01*
X457059Y446828D01*
X457015Y446856D01*
X456945Y446874D01*
X456879Y446901D01*
X456807Y446909D01*
X456776Y446917D01*
X456753Y446915D01*
X456712Y446919D01*
X448488Y446919D01*
X448417Y446908D01*
X448346Y446906D01*
X448297Y446888D01*
X448245Y446880D01*
X448182Y446846D01*
X448115Y446821D01*
X448074Y446789D01*
X448028Y446764D01*
X447978Y446712D01*
X447922Y446668D01*
X447894Y446624D01*
X447858Y446586D01*
X447828Y446521D01*
X447789Y446461D01*
X447777Y446410D01*
X447755Y446363D01*
X447747Y446292D01*
X447729Y446222D01*
X447733Y446170D01*
X447728Y446119D01*
X447743Y446048D01*
X447749Y445977D01*
X447769Y445929D01*
X447780Y445878D01*
X447817Y445817D01*
X447845Y445751D01*
X447890Y445695D01*
X447906Y445667D01*
X447924Y445652D01*
X447950Y445620D01*
X450061Y443509D01*
X450061Y435091D01*
X444109Y429139D01*
X435691Y429139D01*
X429739Y435091D01*
X429739Y443509D01*
X431850Y445620D01*
X431892Y445678D01*
X431942Y445730D01*
X431963Y445777D01*
X431994Y445819D01*
X432015Y445888D01*
X432045Y445953D01*
X432051Y446005D01*
X432066Y446055D01*
X432064Y446126D01*
X432072Y446197D01*
X432061Y446248D01*
X432060Y446300D01*
X432035Y446368D01*
X432020Y446438D01*
X431993Y446483D01*
X431975Y446531D01*
X431931Y446587D01*
X431894Y446649D01*
X431854Y446683D01*
X431822Y446723D01*
X431761Y446762D01*
X431707Y446809D01*
X431659Y446828D01*
X431615Y446856D01*
X431545Y446874D01*
X431479Y446901D01*
X431407Y446909D01*
X431376Y446917D01*
X431353Y446915D01*
X431312Y446919D01*
X423088Y446919D01*
X423017Y446908D01*
X422946Y446906D01*
X422897Y446888D01*
X422845Y446880D01*
X422782Y446846D01*
X422715Y446821D01*
X422674Y446789D01*
X422628Y446764D01*
X422578Y446712D01*
X422522Y446668D01*
X422494Y446624D01*
X422458Y446586D01*
X422428Y446521D01*
X422389Y446461D01*
X422377Y446410D01*
X422355Y446363D01*
X422347Y446292D01*
X422329Y446222D01*
X422333Y446170D01*
X422328Y446119D01*
X422343Y446048D01*
X422349Y445977D01*
X422369Y445929D01*
X422380Y445878D01*
X422417Y445817D01*
X422445Y445751D01*
X422490Y445695D01*
X422506Y445667D01*
X422524Y445652D01*
X422550Y445620D01*
X424661Y443509D01*
X424661Y435091D01*
X418709Y429139D01*
X410291Y429139D01*
X404339Y435091D01*
X404339Y443509D01*
X406450Y445620D01*
X406492Y445678D01*
X406542Y445730D01*
X406563Y445777D01*
X406594Y445819D01*
X406615Y445888D01*
X406645Y445953D01*
X406651Y446005D01*
X406666Y446055D01*
X406664Y446126D01*
X406672Y446197D01*
X406661Y446248D01*
X406660Y446300D01*
X406635Y446368D01*
X406620Y446438D01*
X406593Y446483D01*
X406575Y446531D01*
X406531Y446587D01*
X406494Y446649D01*
X406454Y446683D01*
X406422Y446723D01*
X406361Y446762D01*
X406307Y446809D01*
X406259Y446828D01*
X406215Y446856D01*
X406145Y446874D01*
X406079Y446901D01*
X406007Y446909D01*
X405976Y446917D01*
X405953Y446915D01*
X405912Y446919D01*
X397688Y446919D01*
X397617Y446908D01*
X397546Y446906D01*
X397497Y446888D01*
X397445Y446880D01*
X397382Y446846D01*
X397315Y446821D01*
X397274Y446789D01*
X397228Y446764D01*
X397178Y446712D01*
X397122Y446668D01*
X397094Y446624D01*
X397058Y446586D01*
X397028Y446521D01*
X396989Y446461D01*
X396977Y446410D01*
X396955Y446363D01*
X396947Y446292D01*
X396929Y446222D01*
X396933Y446170D01*
X396928Y446119D01*
X396943Y446048D01*
X396949Y445977D01*
X396969Y445929D01*
X396980Y445878D01*
X397017Y445817D01*
X397045Y445751D01*
X397090Y445695D01*
X397106Y445667D01*
X397124Y445652D01*
X397150Y445620D01*
X399261Y443509D01*
X399261Y435091D01*
X393309Y429139D01*
X384891Y429139D01*
X378939Y435091D01*
X378939Y443509D01*
X381050Y445620D01*
X381092Y445678D01*
X381142Y445730D01*
X381163Y445777D01*
X381194Y445819D01*
X381215Y445888D01*
X381245Y445953D01*
X381251Y446005D01*
X381266Y446055D01*
X381264Y446126D01*
X381272Y446197D01*
X381261Y446248D01*
X381260Y446300D01*
X381235Y446368D01*
X381220Y446438D01*
X381193Y446483D01*
X381175Y446531D01*
X381131Y446587D01*
X381094Y446649D01*
X381054Y446683D01*
X381022Y446723D01*
X380961Y446762D01*
X380907Y446809D01*
X380859Y446828D01*
X380815Y446856D01*
X380745Y446874D01*
X380679Y446901D01*
X380607Y446909D01*
X380576Y446917D01*
X380553Y446915D01*
X380512Y446919D01*
X222983Y446919D01*
X222893Y446905D01*
X222802Y446897D01*
X222772Y446885D01*
X222740Y446880D01*
X222660Y446837D01*
X222576Y446801D01*
X222544Y446775D01*
X222523Y446764D01*
X222501Y446741D01*
X222445Y446696D01*
X174789Y399040D01*
X174747Y398982D01*
X174697Y398930D01*
X174675Y398883D01*
X174645Y398841D01*
X174624Y398772D01*
X174594Y398707D01*
X174588Y398655D01*
X174573Y398605D01*
X174575Y398534D01*
X174567Y398463D01*
X174578Y398412D01*
X174579Y398360D01*
X174604Y398292D01*
X174619Y398222D01*
X174646Y398177D01*
X174664Y398129D01*
X174708Y398073D01*
X174745Y398011D01*
X174785Y397977D01*
X174817Y397937D01*
X174878Y397898D01*
X174932Y397851D01*
X174980Y397832D01*
X175024Y397804D01*
X175094Y397786D01*
X175160Y397759D01*
X175198Y397755D01*
X176701Y396252D01*
X176701Y374148D01*
X175212Y372659D01*
X160608Y372659D01*
X158998Y374269D01*
X158982Y374280D01*
X158970Y374296D01*
X158882Y374352D01*
X158799Y374412D01*
X158780Y374418D01*
X158763Y374429D01*
X158662Y374454D01*
X158563Y374484D01*
X158544Y374484D01*
X158524Y374489D01*
X158421Y374481D01*
X158318Y374478D01*
X158299Y374471D01*
X158279Y374470D01*
X158184Y374429D01*
X158087Y374394D01*
X158071Y374381D01*
X158053Y374373D01*
X157922Y374269D01*
X156612Y372959D01*
X142008Y372959D01*
X140519Y374448D01*
X140519Y396552D01*
X142008Y398041D01*
X144484Y398041D01*
X144504Y398044D01*
X144523Y398042D01*
X144625Y398064D01*
X144727Y398080D01*
X144744Y398090D01*
X144764Y398094D01*
X144853Y398147D01*
X144944Y398196D01*
X144958Y398210D01*
X144975Y398220D01*
X145042Y398299D01*
X145114Y398374D01*
X145122Y398392D01*
X145135Y398407D01*
X145174Y398503D01*
X145217Y398597D01*
X145219Y398617D01*
X145227Y398635D01*
X145245Y398802D01*
X145245Y460994D01*
X168316Y484065D01*
X705684Y484065D01*
X708288Y481461D01*
X714665Y475084D01*
X714739Y475031D01*
X714808Y474971D01*
X714838Y474959D01*
X714864Y474940D01*
X714951Y474913D01*
X715036Y474879D01*
X715077Y474875D01*
X715099Y474868D01*
X715132Y474869D01*
X715203Y474861D01*
G37*
%LPD*%
%LPC*%
G36*
X780720Y468765D02*
X780720Y468765D01*
X783849Y468765D01*
X783920Y468776D01*
X783992Y468778D01*
X784040Y468796D01*
X784092Y468804D01*
X784155Y468838D01*
X784223Y468863D01*
X784263Y468895D01*
X784309Y468920D01*
X784359Y468972D01*
X784415Y469016D01*
X784443Y469060D01*
X784479Y469098D01*
X784509Y469163D01*
X784548Y469223D01*
X784560Y469274D01*
X784582Y469321D01*
X784590Y469392D01*
X784608Y469462D01*
X784604Y469514D01*
X784609Y469565D01*
X784594Y469636D01*
X784588Y469707D01*
X784568Y469755D01*
X784557Y469806D01*
X784520Y469867D01*
X784492Y469933D01*
X784447Y469989D01*
X784431Y470017D01*
X784413Y470032D01*
X784387Y470064D01*
X768739Y485712D01*
X768665Y485765D01*
X768596Y485825D01*
X768566Y485837D01*
X768540Y485856D01*
X768453Y485883D01*
X768368Y485917D01*
X768327Y485921D01*
X768304Y485928D01*
X768272Y485927D01*
X768201Y485935D01*
X161999Y485935D01*
X161909Y485921D01*
X161818Y485913D01*
X161788Y485901D01*
X161756Y485896D01*
X161676Y485853D01*
X161592Y485817D01*
X161560Y485791D01*
X161539Y485780D01*
X161517Y485757D01*
X161461Y485712D01*
X132598Y456849D01*
X132545Y456775D01*
X132485Y456706D01*
X132473Y456676D01*
X132454Y456650D01*
X132427Y456563D01*
X132393Y456478D01*
X132389Y456437D01*
X132382Y456414D01*
X132383Y456382D01*
X132375Y456311D01*
X132375Y398502D01*
X132378Y398482D01*
X132376Y398463D01*
X132398Y398361D01*
X132414Y398259D01*
X132424Y398242D01*
X132428Y398222D01*
X132481Y398133D01*
X132530Y398042D01*
X132544Y398028D01*
X132554Y398011D01*
X132633Y397944D01*
X132708Y397872D01*
X132726Y397864D01*
X132741Y397851D01*
X132837Y397812D01*
X132931Y397769D01*
X132951Y397767D01*
X132969Y397759D01*
X133136Y397741D01*
X135612Y397741D01*
X137101Y396252D01*
X137101Y374148D01*
X135612Y372659D01*
X121008Y372659D01*
X119519Y374148D01*
X119519Y396252D01*
X121008Y397741D01*
X123484Y397741D01*
X123504Y397744D01*
X123523Y397742D01*
X123625Y397764D01*
X123727Y397780D01*
X123744Y397790D01*
X123764Y397794D01*
X123853Y397847D01*
X123944Y397896D01*
X123958Y397910D01*
X123975Y397920D01*
X124042Y397999D01*
X124114Y398074D01*
X124122Y398092D01*
X124135Y398107D01*
X124174Y398203D01*
X124217Y398297D01*
X124219Y398317D01*
X124227Y398335D01*
X124245Y398502D01*
X124245Y459994D01*
X158316Y494065D01*
X771884Y494065D01*
X790865Y475084D01*
X790939Y475031D01*
X791008Y474971D01*
X791038Y474959D01*
X791064Y474940D01*
X791151Y474913D01*
X791236Y474879D01*
X791277Y474875D01*
X791300Y474868D01*
X791332Y474869D01*
X791403Y474861D01*
X799709Y474861D01*
X805661Y468909D01*
X805661Y460491D01*
X799709Y454539D01*
X791291Y454539D01*
X785418Y460412D01*
X785344Y460465D01*
X785275Y460525D01*
X785245Y460537D01*
X785219Y460556D01*
X785132Y460583D01*
X785047Y460617D01*
X785006Y460621D01*
X784983Y460628D01*
X784951Y460627D01*
X784880Y460635D01*
X780720Y460635D01*
X780630Y460621D01*
X780539Y460613D01*
X780509Y460601D01*
X780477Y460596D01*
X780397Y460553D01*
X780313Y460517D01*
X780281Y460491D01*
X780260Y460480D01*
X780238Y460457D01*
X780182Y460412D01*
X774309Y454539D01*
X765891Y454539D01*
X759939Y460491D01*
X759939Y468909D01*
X765891Y474861D01*
X774309Y474861D01*
X780182Y468988D01*
X780256Y468935D01*
X780325Y468875D01*
X780355Y468863D01*
X780381Y468844D01*
X780468Y468817D01*
X780553Y468783D01*
X780594Y468779D01*
X780617Y468772D01*
X780649Y468773D01*
X780720Y468765D01*
G37*
%LPD*%
%LPC*%
G36*
X856984Y14839D02*
X856984Y14839D01*
X851412Y17147D01*
X847147Y21412D01*
X844839Y26984D01*
X844839Y33016D01*
X847147Y38588D01*
X851412Y42853D01*
X856984Y45161D01*
X863016Y45161D01*
X868588Y42853D01*
X872853Y38588D01*
X875161Y33016D01*
X875161Y26984D01*
X872853Y21412D01*
X868588Y17147D01*
X863016Y14839D01*
X856984Y14839D01*
G37*
%LPD*%
%LPC*%
G36*
X812228Y454539D02*
X812228Y454539D01*
X810739Y456028D01*
X810739Y473372D01*
X812228Y474861D01*
X829572Y474861D01*
X831061Y473372D01*
X831061Y456028D01*
X829572Y454539D01*
X812228Y454539D01*
G37*
%LPD*%
%LPC*%
G36*
X812228Y200539D02*
X812228Y200539D01*
X810739Y202028D01*
X810739Y219372D01*
X812228Y220861D01*
X829572Y220861D01*
X831061Y219372D01*
X831061Y202028D01*
X829572Y200539D01*
X812228Y200539D01*
G37*
%LPD*%
%LPC*%
G36*
X816691Y175139D02*
X816691Y175139D01*
X810739Y181091D01*
X810739Y189509D01*
X816691Y195461D01*
X825109Y195461D01*
X831061Y189509D01*
X831061Y181091D01*
X825109Y175139D01*
X816691Y175139D01*
G37*
%LPD*%
%LPC*%
G36*
X461091Y175139D02*
X461091Y175139D01*
X455139Y181091D01*
X455139Y189509D01*
X461091Y195461D01*
X469509Y195461D01*
X475461Y189509D01*
X475461Y181091D01*
X469509Y175139D01*
X461091Y175139D01*
G37*
%LPD*%
%LPC*%
G36*
X384891Y175139D02*
X384891Y175139D01*
X378939Y181091D01*
X378939Y189509D01*
X384891Y195461D01*
X393309Y195461D01*
X399261Y189509D01*
X399261Y181091D01*
X393309Y175139D01*
X384891Y175139D01*
G37*
%LPD*%
%LPC*%
G36*
X740491Y454539D02*
X740491Y454539D01*
X734539Y460491D01*
X734539Y468909D01*
X740491Y474861D01*
X748909Y474861D01*
X754861Y468909D01*
X754861Y460491D01*
X748909Y454539D01*
X740491Y454539D01*
G37*
%LPD*%
%LPC*%
G36*
X715091Y429139D02*
X715091Y429139D01*
X709139Y435091D01*
X709139Y443509D01*
X715091Y449461D01*
X723509Y449461D01*
X729461Y443509D01*
X729461Y435091D01*
X723509Y429139D01*
X715091Y429139D01*
G37*
%LPD*%
%LPC*%
G36*
X765891Y429139D02*
X765891Y429139D01*
X759939Y435091D01*
X759939Y443509D01*
X765891Y449461D01*
X774309Y449461D01*
X780261Y443509D01*
X780261Y435091D01*
X774309Y429139D01*
X765891Y429139D01*
G37*
%LPD*%
%LPC*%
G36*
X689691Y429139D02*
X689691Y429139D01*
X683739Y435091D01*
X683739Y443509D01*
X689691Y449461D01*
X698109Y449461D01*
X704061Y443509D01*
X704061Y435091D01*
X698109Y429139D01*
X689691Y429139D01*
G37*
%LPD*%
%LPC*%
G36*
X816691Y429139D02*
X816691Y429139D01*
X810739Y435091D01*
X810739Y443509D01*
X816691Y449461D01*
X825109Y449461D01*
X831061Y443509D01*
X831061Y435091D01*
X825109Y429139D01*
X816691Y429139D01*
G37*
%LPD*%
%LPC*%
G36*
X791291Y429139D02*
X791291Y429139D01*
X785339Y435091D01*
X785339Y443509D01*
X791291Y449461D01*
X799709Y449461D01*
X805661Y443509D01*
X805661Y435091D01*
X799709Y429139D01*
X791291Y429139D01*
G37*
%LPD*%
%LPC*%
G36*
X410291Y175139D02*
X410291Y175139D01*
X404339Y181091D01*
X404339Y189509D01*
X410291Y195461D01*
X418709Y195461D01*
X424661Y189509D01*
X424661Y181091D01*
X418709Y175139D01*
X410291Y175139D01*
G37*
%LPD*%
%LPC*%
G36*
X765891Y175139D02*
X765891Y175139D01*
X759939Y181091D01*
X759939Y189509D01*
X765891Y195461D01*
X774309Y195461D01*
X780261Y189509D01*
X780261Y181091D01*
X774309Y175139D01*
X765891Y175139D01*
G37*
%LPD*%
%LPC*%
G36*
X435691Y175139D02*
X435691Y175139D01*
X429739Y181091D01*
X429739Y189509D01*
X435691Y195461D01*
X444109Y195461D01*
X450061Y189509D01*
X450061Y181091D01*
X444109Y175139D01*
X435691Y175139D01*
G37*
%LPD*%
%LPC*%
G36*
X486491Y175139D02*
X486491Y175139D01*
X480539Y181091D01*
X480539Y189509D01*
X486491Y195461D01*
X494909Y195461D01*
X500861Y189509D01*
X500861Y181091D01*
X494909Y175139D01*
X486491Y175139D01*
G37*
%LPD*%
%LPC*%
G36*
X791291Y175139D02*
X791291Y175139D01*
X785339Y181091D01*
X785339Y189509D01*
X791291Y195461D01*
X799709Y195461D01*
X805661Y189509D01*
X805661Y181091D01*
X799709Y175139D01*
X791291Y175139D01*
G37*
%LPD*%
%LPC*%
G36*
X613491Y175139D02*
X613491Y175139D01*
X607539Y181091D01*
X607539Y189509D01*
X613491Y195461D01*
X621909Y195461D01*
X627861Y189509D01*
X627861Y181091D01*
X621909Y175139D01*
X613491Y175139D01*
G37*
%LPD*%
%LPC*%
G36*
X689691Y175139D02*
X689691Y175139D01*
X683739Y181091D01*
X683739Y189509D01*
X689691Y195461D01*
X698109Y195461D01*
X704061Y189509D01*
X704061Y181091D01*
X698109Y175139D01*
X689691Y175139D01*
G37*
%LPD*%
%LPC*%
G36*
X715091Y175139D02*
X715091Y175139D01*
X709139Y181091D01*
X709139Y189509D01*
X715091Y195461D01*
X723509Y195461D01*
X729461Y189509D01*
X729461Y181091D01*
X723509Y175139D01*
X715091Y175139D01*
G37*
%LPD*%
%LPC*%
G36*
X511891Y175139D02*
X511891Y175139D01*
X505939Y181091D01*
X505939Y189509D01*
X511891Y195461D01*
X520309Y195461D01*
X526261Y189509D01*
X526261Y181091D01*
X520309Y175139D01*
X511891Y175139D01*
G37*
%LPD*%
%LPC*%
G36*
X461091Y200539D02*
X461091Y200539D01*
X455139Y206491D01*
X455139Y214909D01*
X461091Y220861D01*
X469509Y220861D01*
X475461Y214909D01*
X475461Y206491D01*
X469509Y200539D01*
X461091Y200539D01*
G37*
%LPD*%
%LPC*%
G36*
X791291Y200539D02*
X791291Y200539D01*
X785339Y206491D01*
X785339Y214909D01*
X791291Y220861D01*
X799709Y220861D01*
X805661Y214909D01*
X805661Y206491D01*
X799709Y200539D01*
X791291Y200539D01*
G37*
%LPD*%
%LPC*%
G36*
X765891Y200539D02*
X765891Y200539D01*
X759939Y206491D01*
X759939Y214909D01*
X765891Y220861D01*
X774309Y220861D01*
X780261Y214909D01*
X780261Y206491D01*
X774309Y200539D01*
X765891Y200539D01*
G37*
%LPD*%
%LPC*%
G36*
X740491Y200539D02*
X740491Y200539D01*
X734539Y206491D01*
X734539Y214909D01*
X740491Y220861D01*
X748909Y220861D01*
X754861Y214909D01*
X754861Y206491D01*
X748909Y200539D01*
X740491Y200539D01*
G37*
%LPD*%
%LPC*%
G36*
X715091Y200539D02*
X715091Y200539D01*
X709139Y206491D01*
X709139Y214909D01*
X715091Y220861D01*
X723509Y220861D01*
X729461Y214909D01*
X729461Y206491D01*
X723509Y200539D01*
X715091Y200539D01*
G37*
%LPD*%
%LPC*%
G36*
X689691Y200539D02*
X689691Y200539D01*
X683739Y206491D01*
X683739Y214909D01*
X689691Y220861D01*
X698109Y220861D01*
X704061Y214909D01*
X704061Y206491D01*
X698109Y200539D01*
X689691Y200539D01*
G37*
%LPD*%
%LPC*%
G36*
X613491Y200539D02*
X613491Y200539D01*
X607539Y206491D01*
X607539Y214909D01*
X613491Y220861D01*
X621909Y220861D01*
X627861Y214909D01*
X627861Y206491D01*
X621909Y200539D01*
X613491Y200539D01*
G37*
%LPD*%
%LPC*%
G36*
X537291Y200539D02*
X537291Y200539D01*
X531339Y206491D01*
X531339Y214909D01*
X537291Y220861D01*
X545709Y220861D01*
X551661Y214909D01*
X551661Y206491D01*
X545709Y200539D01*
X537291Y200539D01*
G37*
%LPD*%
%LPC*%
G36*
X511891Y200539D02*
X511891Y200539D01*
X505939Y206491D01*
X505939Y214909D01*
X511891Y220861D01*
X520309Y220861D01*
X526261Y214909D01*
X526261Y206491D01*
X520309Y200539D01*
X511891Y200539D01*
G37*
%LPD*%
%LPC*%
G36*
X486491Y200539D02*
X486491Y200539D01*
X480539Y206491D01*
X480539Y214909D01*
X486491Y220861D01*
X494909Y220861D01*
X500861Y214909D01*
X500861Y206491D01*
X494909Y200539D01*
X486491Y200539D01*
G37*
%LPD*%
%LPC*%
G36*
X435691Y200539D02*
X435691Y200539D01*
X429739Y206491D01*
X429739Y214909D01*
X435691Y220861D01*
X444109Y220861D01*
X450061Y214909D01*
X450061Y206491D01*
X444109Y200539D01*
X435691Y200539D01*
G37*
%LPD*%
%LPC*%
G36*
X410291Y200539D02*
X410291Y200539D01*
X404339Y206491D01*
X404339Y214909D01*
X410291Y220861D01*
X418709Y220861D01*
X424661Y214909D01*
X424661Y206491D01*
X418709Y200539D01*
X410291Y200539D01*
G37*
%LPD*%
%LPC*%
G36*
X384891Y200539D02*
X384891Y200539D01*
X378939Y206491D01*
X378939Y214909D01*
X384891Y220861D01*
X393309Y220861D01*
X399261Y214909D01*
X399261Y206491D01*
X393309Y200539D01*
X384891Y200539D01*
G37*
%LPD*%
%LPC*%
G36*
X740491Y175139D02*
X740491Y175139D01*
X734539Y181091D01*
X734539Y189509D01*
X740491Y195461D01*
X748909Y195461D01*
X754861Y189509D01*
X754861Y181091D01*
X748909Y175139D01*
X740491Y175139D01*
G37*
%LPD*%
%LPC*%
G36*
X537291Y175139D02*
X537291Y175139D01*
X531339Y181091D01*
X531339Y189509D01*
X537291Y195461D01*
X545709Y195461D01*
X551661Y189509D01*
X551661Y181091D01*
X545709Y175139D01*
X537291Y175139D01*
G37*
%LPD*%
G36*
X649656Y455049D02*
X649656Y455049D01*
X661944Y455049D01*
X662015Y455060D01*
X662086Y455062D01*
X662135Y455080D01*
X662187Y455088D01*
X662250Y455122D01*
X662317Y455147D01*
X662358Y455179D01*
X662404Y455204D01*
X662454Y455256D01*
X662510Y455300D01*
X662538Y455344D01*
X662574Y455382D01*
X662604Y455447D01*
X662643Y455507D01*
X662655Y455558D01*
X662677Y455605D01*
X662685Y455676D01*
X662703Y455746D01*
X662699Y455798D01*
X662704Y455849D01*
X662689Y455920D01*
X662683Y455991D01*
X662663Y456039D01*
X662652Y456090D01*
X662615Y456151D01*
X662587Y456217D01*
X662542Y456273D01*
X662526Y456301D01*
X662508Y456316D01*
X662482Y456348D01*
X658339Y460491D01*
X658339Y463177D01*
X667738Y463177D01*
X667758Y463180D01*
X667777Y463178D01*
X667879Y463200D01*
X667981Y463217D01*
X667998Y463226D01*
X668018Y463230D01*
X668107Y463283D01*
X668198Y463332D01*
X668212Y463346D01*
X668229Y463356D01*
X668296Y463435D01*
X668367Y463510D01*
X668376Y463528D01*
X668389Y463543D01*
X668427Y463639D01*
X668471Y463733D01*
X668473Y463753D01*
X668481Y463771D01*
X668499Y463938D01*
X668499Y465462D01*
X668496Y465482D01*
X668498Y465501D01*
X668476Y465603D01*
X668459Y465705D01*
X668450Y465722D01*
X668446Y465742D01*
X668393Y465831D01*
X668344Y465922D01*
X668330Y465936D01*
X668320Y465953D01*
X668241Y466020D01*
X668166Y466091D01*
X668148Y466100D01*
X668133Y466113D01*
X668037Y466152D01*
X667943Y466195D01*
X667923Y466197D01*
X667905Y466205D01*
X667738Y466223D01*
X658339Y466223D01*
X658339Y468909D01*
X664066Y474636D01*
X664108Y474694D01*
X664158Y474746D01*
X664179Y474793D01*
X664210Y474835D01*
X664231Y474904D01*
X664261Y474969D01*
X664267Y475021D01*
X664282Y475071D01*
X664280Y475142D01*
X664288Y475213D01*
X664277Y475264D01*
X664276Y475316D01*
X664251Y475384D01*
X664236Y475454D01*
X664209Y475499D01*
X664191Y475547D01*
X664147Y475603D01*
X664110Y475665D01*
X664070Y475699D01*
X664038Y475739D01*
X663977Y475778D01*
X663923Y475825D01*
X663875Y475844D01*
X663831Y475872D01*
X663761Y475890D01*
X663695Y475917D01*
X663623Y475925D01*
X663592Y475933D01*
X663569Y475931D01*
X663528Y475935D01*
X648072Y475935D01*
X648001Y475924D01*
X647930Y475922D01*
X647881Y475904D01*
X647829Y475896D01*
X647766Y475862D01*
X647699Y475837D01*
X647658Y475805D01*
X647612Y475780D01*
X647562Y475728D01*
X647506Y475684D01*
X647478Y475640D01*
X647442Y475602D01*
X647412Y475537D01*
X647373Y475477D01*
X647361Y475426D01*
X647339Y475379D01*
X647331Y475308D01*
X647313Y475238D01*
X647317Y475186D01*
X647312Y475135D01*
X647327Y475064D01*
X647333Y474993D01*
X647353Y474945D01*
X647364Y474894D01*
X647401Y474833D01*
X647429Y474767D01*
X647474Y474711D01*
X647490Y474683D01*
X647508Y474668D01*
X647534Y474636D01*
X653261Y468909D01*
X653261Y466223D01*
X643862Y466223D01*
X643842Y466220D01*
X643823Y466222D01*
X643721Y466200D01*
X643619Y466183D01*
X643602Y466174D01*
X643582Y466170D01*
X643493Y466117D01*
X643402Y466068D01*
X643388Y466054D01*
X643371Y466044D01*
X643304Y465965D01*
X643233Y465890D01*
X643224Y465872D01*
X643211Y465857D01*
X643173Y465761D01*
X643129Y465667D01*
X643127Y465647D01*
X643119Y465629D01*
X643101Y465462D01*
X643101Y463938D01*
X643104Y463918D01*
X643102Y463899D01*
X643124Y463797D01*
X643141Y463695D01*
X643150Y463678D01*
X643154Y463658D01*
X643207Y463569D01*
X643256Y463478D01*
X643270Y463464D01*
X643280Y463447D01*
X643359Y463380D01*
X643434Y463309D01*
X643452Y463300D01*
X643467Y463287D01*
X643563Y463248D01*
X643657Y463205D01*
X643677Y463203D01*
X643695Y463195D01*
X643862Y463177D01*
X653261Y463177D01*
X653261Y460491D01*
X649118Y456348D01*
X649076Y456290D01*
X649026Y456238D01*
X649005Y456191D01*
X648974Y456149D01*
X648953Y456080D01*
X648923Y456015D01*
X648917Y455963D01*
X648902Y455913D01*
X648904Y455842D01*
X648896Y455771D01*
X648907Y455720D01*
X648908Y455668D01*
X648933Y455600D01*
X648948Y455530D01*
X648975Y455485D01*
X648993Y455437D01*
X649037Y455381D01*
X649074Y455319D01*
X649114Y455285D01*
X649146Y455245D01*
X649207Y455206D01*
X649261Y455159D01*
X649309Y455140D01*
X649353Y455112D01*
X649423Y455094D01*
X649489Y455067D01*
X649561Y455059D01*
X649592Y455051D01*
X649615Y455053D01*
X649656Y455049D01*
G37*
G36*
X642581Y463217D02*
X642581Y463217D01*
X642598Y463226D01*
X642618Y463230D01*
X642707Y463283D01*
X642798Y463332D01*
X642812Y463346D01*
X642829Y463356D01*
X642896Y463435D01*
X642967Y463510D01*
X642976Y463528D01*
X642989Y463543D01*
X643027Y463639D01*
X643071Y463733D01*
X643073Y463753D01*
X643081Y463771D01*
X643099Y463938D01*
X643099Y465462D01*
X643096Y465482D01*
X643098Y465501D01*
X643076Y465603D01*
X643059Y465705D01*
X643050Y465722D01*
X643046Y465742D01*
X642993Y465831D01*
X642944Y465922D01*
X642930Y465936D01*
X642920Y465953D01*
X642841Y466020D01*
X642766Y466091D01*
X642748Y466100D01*
X642733Y466113D01*
X642637Y466152D01*
X642543Y466195D01*
X642523Y466197D01*
X642505Y466205D01*
X642338Y466223D01*
X632939Y466223D01*
X632939Y468909D01*
X638666Y474636D01*
X638708Y474694D01*
X638758Y474746D01*
X638779Y474793D01*
X638810Y474835D01*
X638831Y474904D01*
X638861Y474969D01*
X638867Y475021D01*
X638882Y475071D01*
X638880Y475142D01*
X638888Y475213D01*
X638877Y475264D01*
X638876Y475316D01*
X638851Y475384D01*
X638836Y475454D01*
X638809Y475499D01*
X638791Y475547D01*
X638747Y475603D01*
X638710Y475665D01*
X638670Y475699D01*
X638638Y475739D01*
X638577Y475778D01*
X638523Y475825D01*
X638475Y475844D01*
X638431Y475872D01*
X638361Y475890D01*
X638295Y475917D01*
X638223Y475925D01*
X638192Y475933D01*
X638169Y475931D01*
X638128Y475935D01*
X622672Y475935D01*
X622601Y475924D01*
X622530Y475922D01*
X622481Y475904D01*
X622429Y475896D01*
X622366Y475862D01*
X622299Y475837D01*
X622258Y475805D01*
X622212Y475780D01*
X622162Y475728D01*
X622106Y475684D01*
X622078Y475640D01*
X622042Y475602D01*
X622012Y475537D01*
X621973Y475477D01*
X621961Y475426D01*
X621939Y475379D01*
X621931Y475308D01*
X621913Y475238D01*
X621917Y475186D01*
X621912Y475135D01*
X621927Y475064D01*
X621933Y474993D01*
X621953Y474945D01*
X621964Y474894D01*
X622001Y474833D01*
X622029Y474767D01*
X622074Y474711D01*
X622090Y474683D01*
X622108Y474668D01*
X622134Y474636D01*
X627861Y468909D01*
X627861Y460491D01*
X623718Y456348D01*
X623676Y456290D01*
X623626Y456238D01*
X623605Y456191D01*
X623574Y456149D01*
X623553Y456080D01*
X623523Y456015D01*
X623517Y455963D01*
X623502Y455913D01*
X623504Y455842D01*
X623496Y455771D01*
X623507Y455720D01*
X623508Y455668D01*
X623533Y455600D01*
X623548Y455530D01*
X623575Y455485D01*
X623593Y455437D01*
X623637Y455381D01*
X623674Y455319D01*
X623714Y455285D01*
X623746Y455245D01*
X623807Y455206D01*
X623861Y455159D01*
X623909Y455140D01*
X623953Y455112D01*
X624023Y455094D01*
X624089Y455067D01*
X624161Y455059D01*
X624192Y455051D01*
X624215Y455053D01*
X624256Y455049D01*
X636544Y455049D01*
X636615Y455060D01*
X636686Y455062D01*
X636735Y455080D01*
X636787Y455088D01*
X636850Y455122D01*
X636917Y455147D01*
X636958Y455179D01*
X637004Y455204D01*
X637054Y455256D01*
X637110Y455300D01*
X637138Y455344D01*
X637174Y455382D01*
X637204Y455447D01*
X637243Y455507D01*
X637255Y455558D01*
X637277Y455605D01*
X637285Y455676D01*
X637303Y455746D01*
X637299Y455798D01*
X637304Y455849D01*
X637289Y455920D01*
X637283Y455991D01*
X637263Y456039D01*
X637252Y456090D01*
X637215Y456151D01*
X637187Y456217D01*
X637142Y456273D01*
X637126Y456301D01*
X637108Y456316D01*
X637082Y456348D01*
X632939Y460491D01*
X632939Y463177D01*
X642338Y463177D01*
X642358Y463180D01*
X642377Y463178D01*
X642479Y463200D01*
X642581Y463217D01*
G37*
G36*
X675056Y455049D02*
X675056Y455049D01*
X678185Y455049D01*
X678275Y455063D01*
X678366Y455071D01*
X678396Y455083D01*
X678428Y455088D01*
X678508Y455131D01*
X678592Y455167D01*
X678624Y455193D01*
X678645Y455204D01*
X678667Y455227D01*
X678723Y455272D01*
X683516Y460065D01*
X683569Y460139D01*
X683629Y460208D01*
X683641Y460238D01*
X683660Y460264D01*
X683687Y460351D01*
X683721Y460436D01*
X683725Y460477D01*
X683732Y460500D01*
X683731Y460532D01*
X683739Y460603D01*
X683739Y468909D01*
X689466Y474636D01*
X689508Y474694D01*
X689558Y474746D01*
X689579Y474793D01*
X689610Y474835D01*
X689631Y474904D01*
X689661Y474969D01*
X689667Y475021D01*
X689682Y475071D01*
X689680Y475142D01*
X689688Y475213D01*
X689677Y475264D01*
X689676Y475316D01*
X689651Y475384D01*
X689636Y475454D01*
X689609Y475499D01*
X689591Y475547D01*
X689547Y475603D01*
X689510Y475665D01*
X689470Y475699D01*
X689438Y475739D01*
X689377Y475778D01*
X689323Y475825D01*
X689275Y475844D01*
X689231Y475872D01*
X689161Y475890D01*
X689095Y475917D01*
X689023Y475925D01*
X688992Y475933D01*
X688969Y475931D01*
X688928Y475935D01*
X673472Y475935D01*
X673401Y475924D01*
X673330Y475922D01*
X673281Y475904D01*
X673229Y475896D01*
X673166Y475862D01*
X673099Y475837D01*
X673058Y475805D01*
X673012Y475780D01*
X672962Y475728D01*
X672906Y475684D01*
X672878Y475640D01*
X672842Y475602D01*
X672812Y475537D01*
X672773Y475477D01*
X672761Y475426D01*
X672739Y475379D01*
X672731Y475308D01*
X672713Y475238D01*
X672717Y475186D01*
X672712Y475135D01*
X672727Y475064D01*
X672733Y474993D01*
X672753Y474945D01*
X672764Y474894D01*
X672801Y474833D01*
X672829Y474767D01*
X672874Y474711D01*
X672890Y474683D01*
X672908Y474668D01*
X672934Y474636D01*
X678661Y468909D01*
X678661Y466223D01*
X669262Y466223D01*
X669242Y466220D01*
X669223Y466222D01*
X669121Y466200D01*
X669019Y466183D01*
X669002Y466174D01*
X668982Y466170D01*
X668893Y466117D01*
X668802Y466068D01*
X668788Y466054D01*
X668771Y466044D01*
X668704Y465965D01*
X668633Y465890D01*
X668624Y465872D01*
X668611Y465857D01*
X668573Y465761D01*
X668529Y465667D01*
X668527Y465647D01*
X668519Y465629D01*
X668501Y465462D01*
X668501Y463938D01*
X668504Y463918D01*
X668502Y463899D01*
X668524Y463797D01*
X668541Y463695D01*
X668550Y463678D01*
X668554Y463658D01*
X668607Y463569D01*
X668656Y463478D01*
X668670Y463464D01*
X668680Y463447D01*
X668759Y463380D01*
X668834Y463309D01*
X668852Y463300D01*
X668867Y463287D01*
X668963Y463248D01*
X669057Y463205D01*
X669077Y463203D01*
X669095Y463195D01*
X669262Y463177D01*
X678661Y463177D01*
X678661Y460491D01*
X674518Y456348D01*
X674476Y456290D01*
X674426Y456238D01*
X674405Y456191D01*
X674374Y456149D01*
X674353Y456080D01*
X674323Y456015D01*
X674317Y455963D01*
X674302Y455913D01*
X674304Y455842D01*
X674296Y455771D01*
X674307Y455720D01*
X674308Y455668D01*
X674333Y455600D01*
X674348Y455530D01*
X674375Y455485D01*
X674393Y455437D01*
X674437Y455381D01*
X674474Y455319D01*
X674514Y455285D01*
X674546Y455245D01*
X674607Y455206D01*
X674661Y455159D01*
X674709Y455140D01*
X674753Y455112D01*
X674823Y455094D01*
X674889Y455067D01*
X674961Y455059D01*
X674992Y455051D01*
X675015Y455053D01*
X675056Y455049D01*
G37*
%LPC*%
G36*
X189733Y386723D02*
X189733Y386723D01*
X189733Y397741D01*
X194794Y397741D01*
X195441Y397568D01*
X196020Y397233D01*
X196493Y396760D01*
X196828Y396181D01*
X197001Y395534D01*
X197001Y386723D01*
X189733Y386723D01*
G37*
%LPD*%
%LPC*%
G36*
X179419Y386723D02*
X179419Y386723D01*
X179419Y395534D01*
X179592Y396181D01*
X179927Y396760D01*
X180400Y397233D01*
X180979Y397568D01*
X181626Y397741D01*
X186687Y397741D01*
X186687Y386723D01*
X179419Y386723D01*
G37*
%LPD*%
%LPC*%
G36*
X189733Y372659D02*
X189733Y372659D01*
X189733Y383677D01*
X197001Y383677D01*
X197001Y374866D01*
X196828Y374219D01*
X196493Y373640D01*
X196020Y373167D01*
X195441Y372832D01*
X194794Y372659D01*
X189733Y372659D01*
G37*
%LPD*%
%LPC*%
G36*
X181626Y372659D02*
X181626Y372659D01*
X180979Y372832D01*
X180400Y373167D01*
X179927Y373640D01*
X179592Y374219D01*
X179419Y374866D01*
X179419Y383677D01*
X186687Y383677D01*
X186687Y372659D01*
X181626Y372659D01*
G37*
%LPD*%
%LPC*%
G36*
X644623Y212223D02*
X644623Y212223D01*
X644623Y220861D01*
X647309Y220861D01*
X653261Y214909D01*
X653261Y212223D01*
X644623Y212223D01*
G37*
%LPD*%
%LPC*%
G36*
X632939Y212223D02*
X632939Y212223D01*
X632939Y214909D01*
X638891Y220861D01*
X641577Y220861D01*
X641577Y212223D01*
X632939Y212223D01*
G37*
%LPD*%
%LPC*%
G36*
X556739Y212223D02*
X556739Y212223D01*
X556739Y214909D01*
X562691Y220861D01*
X565377Y220861D01*
X565377Y212223D01*
X556739Y212223D01*
G37*
%LPD*%
%LPC*%
G36*
X644623Y429139D02*
X644623Y429139D01*
X644623Y437777D01*
X653261Y437777D01*
X653261Y435091D01*
X647309Y429139D01*
X644623Y429139D01*
G37*
%LPD*%
%LPC*%
G36*
X568423Y429139D02*
X568423Y429139D01*
X568423Y437777D01*
X577061Y437777D01*
X577061Y435091D01*
X571109Y429139D01*
X568423Y429139D01*
G37*
%LPD*%
%LPC*%
G36*
X644623Y200539D02*
X644623Y200539D01*
X644623Y209177D01*
X653261Y209177D01*
X653261Y206491D01*
X647309Y200539D01*
X644623Y200539D01*
G37*
%LPD*%
%LPC*%
G36*
X562691Y429139D02*
X562691Y429139D01*
X556739Y435091D01*
X556739Y437777D01*
X565377Y437777D01*
X565377Y429139D01*
X562691Y429139D01*
G37*
%LPD*%
%LPC*%
G36*
X638891Y429139D02*
X638891Y429139D01*
X632939Y435091D01*
X632939Y437777D01*
X641577Y437777D01*
X641577Y429139D01*
X638891Y429139D01*
G37*
%LPD*%
%LPC*%
G36*
X638891Y200539D02*
X638891Y200539D01*
X632939Y206491D01*
X632939Y209177D01*
X641577Y209177D01*
X641577Y200539D01*
X638891Y200539D01*
G37*
%LPD*%
%LPC*%
G36*
X562691Y200539D02*
X562691Y200539D01*
X556739Y206491D01*
X556739Y209177D01*
X565377Y209177D01*
X565377Y200539D01*
X562691Y200539D01*
G37*
%LPD*%
%LPC*%
G36*
X643099Y210699D02*
X643099Y210699D01*
X643099Y210701D01*
X643101Y210701D01*
X643101Y210699D01*
X643099Y210699D01*
G37*
%LPD*%
%LPC*%
G36*
X188209Y385199D02*
X188209Y385199D01*
X188209Y385201D01*
X188211Y385201D01*
X188211Y385199D01*
X188209Y385199D01*
G37*
%LPD*%
D10*
X820900Y464700D03*
D11*
X820900Y439300D03*
X795500Y464700D03*
X795500Y439300D03*
X770100Y464700D03*
X770100Y439300D03*
X744700Y464700D03*
X744700Y439300D03*
X719300Y464700D03*
X719300Y439300D03*
X693900Y464700D03*
X693900Y439300D03*
X668500Y464700D03*
X668500Y439300D03*
X643100Y464700D03*
X643100Y439300D03*
X617700Y464700D03*
X617700Y439300D03*
X592300Y464700D03*
X592300Y439300D03*
X566900Y464700D03*
X566900Y439300D03*
X541500Y464700D03*
X541500Y439300D03*
X516100Y464700D03*
X516100Y439300D03*
X490700Y464700D03*
X490700Y439300D03*
X465300Y464700D03*
X465300Y439300D03*
X439900Y464700D03*
X439900Y439300D03*
X414500Y464700D03*
X414500Y439300D03*
X389100Y464700D03*
X389100Y439300D03*
D10*
X820900Y210700D03*
D11*
X820900Y185300D03*
X795500Y210700D03*
X795500Y185300D03*
X770100Y210700D03*
X770100Y185300D03*
X744700Y210700D03*
X744700Y185300D03*
X719300Y210700D03*
X719300Y185300D03*
X693900Y210700D03*
X693900Y185300D03*
X668500Y210700D03*
X668500Y185300D03*
X643100Y210700D03*
X643100Y185300D03*
X617700Y210700D03*
X617700Y185300D03*
X592300Y210700D03*
X592300Y185300D03*
X566900Y210700D03*
X566900Y185300D03*
X541500Y210700D03*
X541500Y185300D03*
X516100Y210700D03*
X516100Y185300D03*
X490700Y210700D03*
X490700Y185300D03*
X465300Y210700D03*
X465300Y185300D03*
X439900Y210700D03*
X439900Y185300D03*
X414500Y210700D03*
X414500Y185300D03*
X389100Y210700D03*
X389100Y185300D03*
D12*
X128310Y385200D03*
X149310Y385500D03*
X167910Y385200D03*
X188210Y385200D03*
D13*
X572700Y22700D03*
X605720Y22700D03*
X638740Y22700D03*
D14*
X340000Y140000D03*
X340000Y20000D03*
X830000Y20000D03*
D15*
X638740Y22700D02*
X638740Y158740D01*
X668500Y201824D02*
X668500Y210700D01*
X656816Y190140D02*
X656816Y176816D01*
X656816Y190140D02*
X668500Y201824D01*
X656816Y176816D02*
X638740Y158740D01*
X572700Y174576D02*
X572700Y22700D01*
X572700Y174576D02*
X578584Y180460D01*
X578584Y358584D01*
X725400Y420000D02*
X744700Y439300D01*
X640000Y420000D02*
X578584Y358584D01*
X640000Y420000D02*
X725400Y420000D01*
X128310Y385200D02*
X128310Y458310D01*
X160000Y490000D01*
X770200Y490000D01*
X795500Y464700D01*
X770100Y464700D01*
X167910Y397910D02*
X167910Y385200D01*
X680184Y450984D02*
X693900Y464700D01*
X220984Y450984D02*
X167910Y397910D01*
X220984Y450984D02*
X680184Y450984D01*
X149310Y459310D02*
X149310Y385500D01*
X149310Y459310D02*
X170000Y480000D01*
X704000Y480000D01*
X719300Y464700D01*
M02*
