G04 EAGLE Gerber RS-274X export*
G75*
%MOMM*%
%FSLAX34Y34*%
%LPD*%
%IN*%
%IPPOS*%
%AMOC8*
5,1,8,0,0,1.08239X$1,22.5*%
G01*
%ADD10C,0.254000*%


D10*
X0Y320000D02*
X320000Y320000D01*
X320000Y0D01*
X890000Y0D01*
X890000Y510000D01*
X0Y510000D01*
X0Y320000D01*
X25000Y489719D02*
X24937Y489161D01*
X24812Y488614D01*
X24627Y488084D01*
X24383Y487578D01*
X24084Y487102D01*
X23734Y486663D01*
X23337Y486266D01*
X22898Y485916D01*
X22422Y485617D01*
X21916Y485373D01*
X21386Y485188D01*
X20839Y485063D01*
X20281Y485000D01*
X19719Y485000D01*
X19161Y485063D01*
X18614Y485188D01*
X18084Y485373D01*
X17578Y485617D01*
X17102Y485916D01*
X16663Y486266D01*
X16266Y486663D01*
X15916Y487102D01*
X15617Y487578D01*
X15373Y488084D01*
X15188Y488614D01*
X15063Y489161D01*
X15000Y489719D01*
X15000Y490281D01*
X15063Y490839D01*
X15188Y491386D01*
X15373Y491916D01*
X15617Y492422D01*
X15916Y492898D01*
X16266Y493337D01*
X16663Y493734D01*
X17102Y494084D01*
X17578Y494383D01*
X18084Y494627D01*
X18614Y494812D01*
X19161Y494937D01*
X19719Y495000D01*
X20281Y495000D01*
X20839Y494937D01*
X21386Y494812D01*
X21916Y494627D01*
X22422Y494383D01*
X22898Y494084D01*
X23337Y493734D01*
X23734Y493337D01*
X24084Y492898D01*
X24383Y492422D01*
X24627Y491916D01*
X24812Y491386D01*
X24937Y490839D01*
X25000Y490281D01*
X25000Y489719D01*
X865000Y29719D02*
X864937Y29161D01*
X864812Y28614D01*
X864627Y28084D01*
X864383Y27578D01*
X864084Y27102D01*
X863734Y26663D01*
X863337Y26266D01*
X862898Y25916D01*
X862422Y25617D01*
X861916Y25373D01*
X861386Y25188D01*
X860839Y25063D01*
X860281Y25000D01*
X859719Y25000D01*
X859161Y25063D01*
X858614Y25188D01*
X858084Y25373D01*
X857578Y25617D01*
X857102Y25916D01*
X856663Y26266D01*
X856266Y26663D01*
X855916Y27102D01*
X855617Y27578D01*
X855373Y28084D01*
X855188Y28614D01*
X855063Y29161D01*
X855000Y29719D01*
X855000Y30281D01*
X855063Y30839D01*
X855188Y31386D01*
X855373Y31916D01*
X855617Y32422D01*
X855916Y32898D01*
X856266Y33337D01*
X856663Y33734D01*
X857102Y34084D01*
X857578Y34383D01*
X858084Y34627D01*
X858614Y34812D01*
X859161Y34937D01*
X859719Y35000D01*
X860281Y35000D01*
X860839Y34937D01*
X861386Y34812D01*
X861916Y34627D01*
X862422Y34383D01*
X862898Y34084D01*
X863337Y33734D01*
X863734Y33337D01*
X864084Y32898D01*
X864383Y32422D01*
X864627Y31916D01*
X864812Y31386D01*
X864937Y30839D01*
X865000Y30281D01*
X865000Y29719D01*
M02*
