G04 EAGLE Gerber RS-274X export*
G75*
%MOMM*%
%FSLAX34Y34*%
%LPD*%
%INSilkscreen Top*%
%IPPOS*%
%AMOC8*
5,1,8,0,0,1.08239X$1,22.5*%
G01*
%ADD10C,0.152400*%
%ADD11C,0.254000*%
%ADD12C,0.101600*%


D10*
X376181Y120358D02*
X376181Y107714D01*
X376180Y107714D02*
X376178Y107596D01*
X376172Y107478D01*
X376163Y107360D01*
X376149Y107243D01*
X376132Y107126D01*
X376111Y107009D01*
X376086Y106894D01*
X376057Y106779D01*
X376024Y106665D01*
X375988Y106553D01*
X375948Y106442D01*
X375905Y106332D01*
X375858Y106223D01*
X375808Y106116D01*
X375753Y106011D01*
X375696Y105908D01*
X375635Y105807D01*
X375571Y105707D01*
X375504Y105610D01*
X375434Y105515D01*
X375360Y105423D01*
X375284Y105332D01*
X375204Y105245D01*
X375122Y105160D01*
X375037Y105078D01*
X374950Y104998D01*
X374859Y104922D01*
X374767Y104848D01*
X374672Y104778D01*
X374575Y104711D01*
X374475Y104647D01*
X374374Y104586D01*
X374271Y104529D01*
X374166Y104474D01*
X374059Y104424D01*
X373950Y104377D01*
X373840Y104334D01*
X373729Y104294D01*
X373617Y104258D01*
X373503Y104225D01*
X373388Y104196D01*
X373273Y104171D01*
X373156Y104150D01*
X373039Y104133D01*
X372922Y104119D01*
X372804Y104110D01*
X372686Y104104D01*
X372568Y104102D01*
X370762Y104102D01*
X383630Y106811D02*
X383630Y114939D01*
X383630Y106811D02*
X383632Y106710D01*
X383638Y106609D01*
X383647Y106508D01*
X383660Y106407D01*
X383677Y106307D01*
X383698Y106208D01*
X383722Y106110D01*
X383750Y106013D01*
X383782Y105916D01*
X383817Y105821D01*
X383856Y105728D01*
X383898Y105636D01*
X383944Y105545D01*
X383993Y105457D01*
X384045Y105370D01*
X384101Y105285D01*
X384159Y105202D01*
X384221Y105122D01*
X384286Y105044D01*
X384353Y104968D01*
X384423Y104895D01*
X384496Y104825D01*
X384572Y104758D01*
X384650Y104693D01*
X384730Y104631D01*
X384813Y104573D01*
X384898Y104517D01*
X384985Y104465D01*
X385073Y104416D01*
X385164Y104370D01*
X385256Y104328D01*
X385349Y104289D01*
X385444Y104254D01*
X385541Y104222D01*
X385638Y104194D01*
X385736Y104170D01*
X385835Y104149D01*
X385935Y104132D01*
X386036Y104119D01*
X386137Y104110D01*
X386238Y104104D01*
X386339Y104102D01*
X390855Y104102D01*
X390855Y114939D01*
X397935Y120358D02*
X397935Y106811D01*
X397937Y106710D01*
X397943Y106609D01*
X397952Y106508D01*
X397965Y106407D01*
X397982Y106307D01*
X398003Y106208D01*
X398027Y106110D01*
X398055Y106013D01*
X398087Y105916D01*
X398122Y105821D01*
X398161Y105728D01*
X398203Y105636D01*
X398249Y105545D01*
X398298Y105457D01*
X398350Y105370D01*
X398406Y105285D01*
X398464Y105202D01*
X398526Y105122D01*
X398591Y105044D01*
X398658Y104968D01*
X398728Y104895D01*
X398801Y104825D01*
X398877Y104758D01*
X398955Y104693D01*
X399035Y104631D01*
X399118Y104573D01*
X399203Y104517D01*
X399290Y104465D01*
X399378Y104416D01*
X399469Y104370D01*
X399561Y104328D01*
X399654Y104289D01*
X399749Y104254D01*
X399846Y104222D01*
X399943Y104194D01*
X400041Y104170D01*
X400140Y104149D01*
X400240Y104132D01*
X400341Y104119D01*
X400442Y104110D01*
X400543Y104104D01*
X400644Y104102D01*
X406000Y104102D02*
X406000Y114939D01*
X405548Y119455D02*
X405548Y120358D01*
X406451Y120358D01*
X406451Y119455D01*
X405548Y119455D01*
X415375Y110424D02*
X419439Y110424D01*
X415375Y110424D02*
X415263Y110422D01*
X415152Y110416D01*
X415041Y110406D01*
X414930Y110393D01*
X414820Y110375D01*
X414711Y110353D01*
X414602Y110328D01*
X414494Y110299D01*
X414388Y110266D01*
X414282Y110229D01*
X414178Y110189D01*
X414076Y110145D01*
X413975Y110097D01*
X413876Y110046D01*
X413778Y109991D01*
X413683Y109933D01*
X413590Y109872D01*
X413499Y109807D01*
X413410Y109739D01*
X413324Y109668D01*
X413241Y109595D01*
X413160Y109518D01*
X413081Y109438D01*
X413006Y109356D01*
X412934Y109271D01*
X412864Y109184D01*
X412798Y109094D01*
X412735Y109002D01*
X412675Y108907D01*
X412619Y108811D01*
X412566Y108713D01*
X412517Y108613D01*
X412471Y108511D01*
X412429Y108408D01*
X412390Y108303D01*
X412355Y108197D01*
X412324Y108090D01*
X412297Y107982D01*
X412273Y107873D01*
X412254Y107763D01*
X412238Y107653D01*
X412226Y107542D01*
X412218Y107430D01*
X412214Y107319D01*
X412214Y107207D01*
X412218Y107096D01*
X412226Y106984D01*
X412238Y106873D01*
X412254Y106763D01*
X412273Y106653D01*
X412297Y106544D01*
X412324Y106436D01*
X412355Y106329D01*
X412390Y106223D01*
X412429Y106118D01*
X412471Y106015D01*
X412517Y105913D01*
X412566Y105813D01*
X412619Y105715D01*
X412675Y105619D01*
X412735Y105524D01*
X412798Y105432D01*
X412864Y105342D01*
X412934Y105255D01*
X413006Y105170D01*
X413081Y105088D01*
X413160Y105008D01*
X413241Y104931D01*
X413324Y104858D01*
X413410Y104787D01*
X413499Y104719D01*
X413590Y104654D01*
X413683Y104593D01*
X413778Y104535D01*
X413876Y104480D01*
X413975Y104429D01*
X414076Y104381D01*
X414178Y104337D01*
X414282Y104297D01*
X414388Y104260D01*
X414494Y104227D01*
X414602Y104198D01*
X414711Y104173D01*
X414820Y104151D01*
X414930Y104133D01*
X415041Y104120D01*
X415152Y104110D01*
X415263Y104104D01*
X415375Y104102D01*
X419439Y104102D01*
X419439Y112230D01*
X419438Y112230D02*
X419436Y112331D01*
X419430Y112432D01*
X419421Y112533D01*
X419408Y112634D01*
X419391Y112734D01*
X419370Y112833D01*
X419346Y112931D01*
X419318Y113028D01*
X419286Y113125D01*
X419251Y113220D01*
X419212Y113313D01*
X419170Y113405D01*
X419124Y113496D01*
X419075Y113585D01*
X419023Y113671D01*
X418967Y113756D01*
X418909Y113839D01*
X418847Y113919D01*
X418782Y113997D01*
X418715Y114073D01*
X418645Y114146D01*
X418572Y114216D01*
X418496Y114283D01*
X418418Y114348D01*
X418338Y114410D01*
X418255Y114468D01*
X418170Y114524D01*
X418084Y114576D01*
X417995Y114625D01*
X417904Y114671D01*
X417812Y114713D01*
X417719Y114752D01*
X417624Y114787D01*
X417527Y114819D01*
X417430Y114847D01*
X417332Y114871D01*
X417233Y114892D01*
X417133Y114909D01*
X417032Y114922D01*
X416931Y114931D01*
X416830Y114937D01*
X416729Y114939D01*
X413117Y114939D01*
X426876Y114939D02*
X426876Y104102D01*
X426876Y114939D02*
X431392Y114939D01*
X431496Y114937D01*
X431599Y114931D01*
X431703Y114921D01*
X431806Y114907D01*
X431908Y114889D01*
X432009Y114868D01*
X432110Y114842D01*
X432209Y114813D01*
X432308Y114780D01*
X432405Y114743D01*
X432500Y114702D01*
X432594Y114658D01*
X432686Y114610D01*
X432776Y114559D01*
X432865Y114504D01*
X432951Y114446D01*
X433034Y114384D01*
X433116Y114320D01*
X433194Y114252D01*
X433270Y114182D01*
X433344Y114109D01*
X433414Y114032D01*
X433482Y113954D01*
X433546Y113872D01*
X433608Y113789D01*
X433666Y113703D01*
X433721Y113614D01*
X433772Y113524D01*
X433820Y113432D01*
X433864Y113338D01*
X433905Y113243D01*
X433942Y113146D01*
X433975Y113047D01*
X434004Y112948D01*
X434030Y112847D01*
X434051Y112746D01*
X434069Y112644D01*
X434083Y112541D01*
X434093Y112437D01*
X434099Y112334D01*
X434101Y112230D01*
X434101Y104102D01*
X444032Y110424D02*
X448096Y110424D01*
X444032Y110424D02*
X443920Y110422D01*
X443809Y110416D01*
X443698Y110406D01*
X443587Y110393D01*
X443477Y110375D01*
X443368Y110353D01*
X443259Y110328D01*
X443151Y110299D01*
X443045Y110266D01*
X442939Y110229D01*
X442835Y110189D01*
X442733Y110145D01*
X442632Y110097D01*
X442533Y110046D01*
X442435Y109991D01*
X442340Y109933D01*
X442247Y109872D01*
X442156Y109807D01*
X442067Y109739D01*
X441981Y109668D01*
X441898Y109595D01*
X441817Y109518D01*
X441738Y109438D01*
X441663Y109356D01*
X441591Y109271D01*
X441521Y109184D01*
X441455Y109094D01*
X441392Y109002D01*
X441332Y108907D01*
X441276Y108811D01*
X441223Y108713D01*
X441174Y108613D01*
X441128Y108511D01*
X441086Y108408D01*
X441047Y108303D01*
X441012Y108197D01*
X440981Y108090D01*
X440954Y107982D01*
X440930Y107873D01*
X440911Y107763D01*
X440895Y107653D01*
X440883Y107542D01*
X440875Y107430D01*
X440871Y107319D01*
X440871Y107207D01*
X440875Y107096D01*
X440883Y106984D01*
X440895Y106873D01*
X440911Y106763D01*
X440930Y106653D01*
X440954Y106544D01*
X440981Y106436D01*
X441012Y106329D01*
X441047Y106223D01*
X441086Y106118D01*
X441128Y106015D01*
X441174Y105913D01*
X441223Y105813D01*
X441276Y105715D01*
X441332Y105619D01*
X441392Y105524D01*
X441455Y105432D01*
X441521Y105342D01*
X441591Y105255D01*
X441663Y105170D01*
X441738Y105088D01*
X441817Y105008D01*
X441898Y104931D01*
X441981Y104858D01*
X442067Y104787D01*
X442156Y104719D01*
X442247Y104654D01*
X442340Y104593D01*
X442435Y104535D01*
X442533Y104480D01*
X442632Y104429D01*
X442733Y104381D01*
X442835Y104337D01*
X442939Y104297D01*
X443045Y104260D01*
X443151Y104227D01*
X443259Y104198D01*
X443368Y104173D01*
X443477Y104151D01*
X443587Y104133D01*
X443698Y104120D01*
X443809Y104110D01*
X443920Y104104D01*
X444032Y104102D01*
X448096Y104102D01*
X448096Y112230D01*
X448095Y112230D02*
X448093Y112331D01*
X448087Y112432D01*
X448078Y112533D01*
X448065Y112634D01*
X448048Y112734D01*
X448027Y112833D01*
X448003Y112931D01*
X447975Y113028D01*
X447943Y113125D01*
X447908Y113220D01*
X447869Y113313D01*
X447827Y113405D01*
X447781Y113496D01*
X447732Y113585D01*
X447680Y113671D01*
X447624Y113756D01*
X447566Y113839D01*
X447504Y113919D01*
X447439Y113997D01*
X447372Y114073D01*
X447302Y114146D01*
X447229Y114216D01*
X447153Y114283D01*
X447075Y114348D01*
X446995Y114410D01*
X446912Y114468D01*
X446827Y114524D01*
X446741Y114576D01*
X446652Y114625D01*
X446561Y114671D01*
X446469Y114713D01*
X446376Y114752D01*
X446281Y114787D01*
X446184Y114819D01*
X446087Y114847D01*
X445989Y114871D01*
X445890Y114892D01*
X445790Y114909D01*
X445689Y114922D01*
X445588Y114931D01*
X445487Y114937D01*
X445386Y114939D01*
X441774Y114939D01*
X462863Y120358D02*
X466475Y104102D01*
X470088Y114939D01*
X473700Y104102D01*
X477313Y120358D01*
X486236Y110424D02*
X490300Y110424D01*
X486236Y110424D02*
X486124Y110422D01*
X486013Y110416D01*
X485902Y110406D01*
X485791Y110393D01*
X485681Y110375D01*
X485572Y110353D01*
X485463Y110328D01*
X485355Y110299D01*
X485249Y110266D01*
X485143Y110229D01*
X485039Y110189D01*
X484937Y110145D01*
X484836Y110097D01*
X484737Y110046D01*
X484639Y109991D01*
X484544Y109933D01*
X484451Y109872D01*
X484360Y109807D01*
X484271Y109739D01*
X484185Y109668D01*
X484102Y109595D01*
X484021Y109518D01*
X483942Y109438D01*
X483867Y109356D01*
X483795Y109271D01*
X483725Y109184D01*
X483659Y109094D01*
X483596Y109002D01*
X483536Y108907D01*
X483480Y108811D01*
X483427Y108713D01*
X483378Y108613D01*
X483332Y108511D01*
X483290Y108408D01*
X483251Y108303D01*
X483216Y108197D01*
X483185Y108090D01*
X483158Y107982D01*
X483134Y107873D01*
X483115Y107763D01*
X483099Y107653D01*
X483087Y107542D01*
X483079Y107430D01*
X483075Y107319D01*
X483075Y107207D01*
X483079Y107096D01*
X483087Y106984D01*
X483099Y106873D01*
X483115Y106763D01*
X483134Y106653D01*
X483158Y106544D01*
X483185Y106436D01*
X483216Y106329D01*
X483251Y106223D01*
X483290Y106118D01*
X483332Y106015D01*
X483378Y105913D01*
X483427Y105813D01*
X483480Y105715D01*
X483536Y105619D01*
X483596Y105524D01*
X483659Y105432D01*
X483725Y105342D01*
X483795Y105255D01*
X483867Y105170D01*
X483942Y105088D01*
X484021Y105008D01*
X484102Y104931D01*
X484185Y104858D01*
X484271Y104787D01*
X484360Y104719D01*
X484451Y104654D01*
X484544Y104593D01*
X484639Y104535D01*
X484737Y104480D01*
X484836Y104429D01*
X484937Y104381D01*
X485039Y104337D01*
X485143Y104297D01*
X485249Y104260D01*
X485355Y104227D01*
X485463Y104198D01*
X485572Y104173D01*
X485681Y104151D01*
X485791Y104133D01*
X485902Y104120D01*
X486013Y104110D01*
X486124Y104104D01*
X486236Y104102D01*
X490300Y104102D01*
X490300Y112230D01*
X490298Y112331D01*
X490292Y112432D01*
X490283Y112533D01*
X490270Y112634D01*
X490253Y112734D01*
X490232Y112833D01*
X490208Y112931D01*
X490180Y113028D01*
X490148Y113125D01*
X490113Y113220D01*
X490074Y113313D01*
X490032Y113405D01*
X489986Y113496D01*
X489937Y113585D01*
X489885Y113671D01*
X489829Y113756D01*
X489771Y113839D01*
X489709Y113919D01*
X489644Y113997D01*
X489577Y114073D01*
X489507Y114146D01*
X489434Y114216D01*
X489358Y114283D01*
X489280Y114348D01*
X489200Y114410D01*
X489117Y114468D01*
X489032Y114524D01*
X488946Y114576D01*
X488857Y114625D01*
X488766Y114671D01*
X488674Y114713D01*
X488581Y114752D01*
X488486Y114787D01*
X488389Y114819D01*
X488292Y114847D01*
X488194Y114871D01*
X488095Y114892D01*
X487995Y114909D01*
X487894Y114922D01*
X487793Y114931D01*
X487692Y114937D01*
X487591Y114939D01*
X483978Y114939D01*
X497738Y114939D02*
X497738Y104102D01*
X497738Y114939D02*
X502253Y114939D01*
X502357Y114937D01*
X502460Y114931D01*
X502564Y114921D01*
X502667Y114907D01*
X502769Y114889D01*
X502870Y114868D01*
X502971Y114842D01*
X503070Y114813D01*
X503169Y114780D01*
X503266Y114743D01*
X503361Y114702D01*
X503455Y114658D01*
X503547Y114610D01*
X503637Y114559D01*
X503726Y114504D01*
X503812Y114446D01*
X503895Y114384D01*
X503977Y114320D01*
X504055Y114252D01*
X504131Y114182D01*
X504205Y114109D01*
X504275Y114032D01*
X504343Y113954D01*
X504407Y113872D01*
X504469Y113789D01*
X504527Y113703D01*
X504582Y113614D01*
X504633Y113524D01*
X504681Y113432D01*
X504725Y113338D01*
X504766Y113243D01*
X504803Y113146D01*
X504836Y113047D01*
X504865Y112948D01*
X504891Y112847D01*
X504912Y112746D01*
X504930Y112644D01*
X504944Y112541D01*
X504954Y112437D01*
X504960Y112334D01*
X504962Y112230D01*
X504963Y112230D02*
X504963Y104102D01*
X514442Y104102D02*
X518957Y104102D01*
X514442Y104102D02*
X514341Y104104D01*
X514240Y104110D01*
X514139Y104119D01*
X514038Y104132D01*
X513938Y104149D01*
X513839Y104170D01*
X513741Y104194D01*
X513644Y104222D01*
X513547Y104254D01*
X513452Y104289D01*
X513359Y104328D01*
X513267Y104370D01*
X513176Y104416D01*
X513088Y104465D01*
X513001Y104517D01*
X512916Y104573D01*
X512833Y104631D01*
X512753Y104693D01*
X512675Y104758D01*
X512599Y104825D01*
X512526Y104895D01*
X512456Y104968D01*
X512389Y105044D01*
X512324Y105122D01*
X512262Y105202D01*
X512204Y105285D01*
X512148Y105370D01*
X512096Y105457D01*
X512047Y105545D01*
X512001Y105636D01*
X511959Y105728D01*
X511920Y105821D01*
X511885Y105916D01*
X511853Y106013D01*
X511825Y106110D01*
X511801Y106208D01*
X511780Y106307D01*
X511763Y106407D01*
X511750Y106508D01*
X511741Y106609D01*
X511735Y106710D01*
X511733Y106811D01*
X511732Y106811D02*
X511732Y112230D01*
X511733Y112230D02*
X511735Y112331D01*
X511741Y112432D01*
X511750Y112533D01*
X511763Y112634D01*
X511780Y112734D01*
X511801Y112833D01*
X511825Y112931D01*
X511853Y113028D01*
X511885Y113125D01*
X511920Y113220D01*
X511959Y113313D01*
X512001Y113405D01*
X512047Y113496D01*
X512096Y113585D01*
X512148Y113671D01*
X512204Y113756D01*
X512262Y113839D01*
X512324Y113919D01*
X512389Y113997D01*
X512456Y114073D01*
X512526Y114146D01*
X512599Y114216D01*
X512675Y114283D01*
X512753Y114348D01*
X512833Y114410D01*
X512916Y114468D01*
X513001Y114524D01*
X513088Y114576D01*
X513176Y114625D01*
X513267Y114671D01*
X513359Y114713D01*
X513452Y114752D01*
X513547Y114787D01*
X513644Y114819D01*
X513741Y114847D01*
X513839Y114871D01*
X513938Y114892D01*
X514038Y114909D01*
X514139Y114922D01*
X514240Y114931D01*
X514341Y114937D01*
X514442Y114939D01*
X518957Y114939D01*
X518957Y101393D01*
X518955Y101289D01*
X518949Y101186D01*
X518939Y101082D01*
X518925Y100979D01*
X518907Y100877D01*
X518886Y100776D01*
X518860Y100675D01*
X518831Y100576D01*
X518798Y100477D01*
X518761Y100380D01*
X518720Y100285D01*
X518676Y100191D01*
X518628Y100099D01*
X518577Y100009D01*
X518522Y99920D01*
X518464Y99834D01*
X518402Y99751D01*
X518338Y99669D01*
X518270Y99591D01*
X518200Y99515D01*
X518127Y99441D01*
X518050Y99371D01*
X517972Y99303D01*
X517890Y99239D01*
X517807Y99177D01*
X517721Y99119D01*
X517632Y99064D01*
X517542Y99013D01*
X517450Y98965D01*
X517356Y98921D01*
X517261Y98880D01*
X517164Y98843D01*
X517065Y98810D01*
X516966Y98781D01*
X516865Y98755D01*
X516764Y98734D01*
X516662Y98716D01*
X516559Y98702D01*
X516455Y98692D01*
X516352Y98686D01*
X516248Y98684D01*
X516248Y98683D02*
X512636Y98683D01*
X377987Y77432D02*
X370762Y77432D01*
X370762Y93688D01*
X377987Y93688D01*
X376181Y86463D02*
X370762Y86463D01*
X384279Y93688D02*
X384279Y77432D01*
X393310Y77432D02*
X384279Y93688D01*
X393310Y93688D02*
X393310Y77432D01*
X407274Y86463D02*
X409984Y86463D01*
X409984Y77432D01*
X404565Y77432D01*
X404447Y77434D01*
X404329Y77440D01*
X404211Y77449D01*
X404094Y77463D01*
X403977Y77480D01*
X403860Y77501D01*
X403745Y77526D01*
X403630Y77555D01*
X403516Y77588D01*
X403404Y77624D01*
X403293Y77664D01*
X403183Y77707D01*
X403074Y77754D01*
X402967Y77804D01*
X402862Y77859D01*
X402759Y77916D01*
X402658Y77977D01*
X402558Y78041D01*
X402461Y78108D01*
X402366Y78178D01*
X402274Y78252D01*
X402183Y78328D01*
X402096Y78408D01*
X402011Y78490D01*
X401929Y78575D01*
X401849Y78662D01*
X401773Y78753D01*
X401699Y78845D01*
X401629Y78940D01*
X401562Y79037D01*
X401498Y79137D01*
X401437Y79238D01*
X401380Y79341D01*
X401325Y79446D01*
X401275Y79553D01*
X401228Y79662D01*
X401185Y79772D01*
X401145Y79883D01*
X401109Y79995D01*
X401076Y80109D01*
X401047Y80224D01*
X401022Y80339D01*
X401001Y80456D01*
X400984Y80573D01*
X400970Y80690D01*
X400961Y80808D01*
X400955Y80926D01*
X400953Y81044D01*
X400953Y90076D01*
X400955Y90194D01*
X400961Y90312D01*
X400970Y90430D01*
X400984Y90547D01*
X401001Y90664D01*
X401022Y90781D01*
X401047Y90896D01*
X401076Y91011D01*
X401109Y91125D01*
X401145Y91237D01*
X401185Y91348D01*
X401228Y91458D01*
X401275Y91567D01*
X401325Y91674D01*
X401379Y91779D01*
X401437Y91882D01*
X401498Y91983D01*
X401562Y92083D01*
X401629Y92180D01*
X401699Y92275D01*
X401773Y92367D01*
X401849Y92458D01*
X401929Y92545D01*
X402011Y92630D01*
X402096Y92712D01*
X402183Y92792D01*
X402274Y92868D01*
X402366Y92942D01*
X402461Y93012D01*
X402558Y93079D01*
X402658Y93143D01*
X402759Y93204D01*
X402862Y93261D01*
X402967Y93315D01*
X403074Y93366D01*
X403183Y93413D01*
X403293Y93456D01*
X403404Y93496D01*
X403516Y93532D01*
X403630Y93565D01*
X403745Y93594D01*
X403860Y93619D01*
X403977Y93640D01*
X404094Y93657D01*
X404211Y93671D01*
X404329Y93680D01*
X404447Y93686D01*
X404565Y93688D01*
X409984Y93688D01*
X418494Y93688D02*
X418494Y77432D01*
X416688Y77432D02*
X420300Y77432D01*
X420300Y93688D02*
X416688Y93688D01*
X434820Y77432D02*
X439336Y77432D01*
X439469Y77434D01*
X439601Y77440D01*
X439733Y77450D01*
X439865Y77463D01*
X439997Y77481D01*
X440127Y77502D01*
X440258Y77527D01*
X440387Y77556D01*
X440515Y77589D01*
X440643Y77625D01*
X440769Y77665D01*
X440894Y77709D01*
X441018Y77757D01*
X441140Y77808D01*
X441261Y77863D01*
X441380Y77921D01*
X441498Y77983D01*
X441613Y78048D01*
X441727Y78117D01*
X441838Y78188D01*
X441947Y78264D01*
X442054Y78342D01*
X442159Y78423D01*
X442261Y78508D01*
X442361Y78595D01*
X442458Y78685D01*
X442553Y78778D01*
X442644Y78874D01*
X442733Y78972D01*
X442819Y79073D01*
X442902Y79177D01*
X442982Y79283D01*
X443058Y79391D01*
X443132Y79501D01*
X443202Y79614D01*
X443269Y79728D01*
X443332Y79845D01*
X443392Y79963D01*
X443449Y80083D01*
X443502Y80205D01*
X443551Y80328D01*
X443597Y80452D01*
X443639Y80578D01*
X443677Y80705D01*
X443712Y80833D01*
X443743Y80962D01*
X443770Y81091D01*
X443793Y81222D01*
X443813Y81353D01*
X443828Y81485D01*
X443840Y81617D01*
X443848Y81749D01*
X443852Y81882D01*
X443852Y82014D01*
X443848Y82147D01*
X443840Y82279D01*
X443828Y82411D01*
X443813Y82543D01*
X443793Y82674D01*
X443770Y82805D01*
X443743Y82934D01*
X443712Y83063D01*
X443677Y83191D01*
X443639Y83318D01*
X443597Y83444D01*
X443551Y83568D01*
X443502Y83691D01*
X443449Y83813D01*
X443392Y83933D01*
X443332Y84051D01*
X443269Y84168D01*
X443202Y84282D01*
X443132Y84395D01*
X443058Y84505D01*
X442982Y84613D01*
X442902Y84719D01*
X442819Y84823D01*
X442733Y84924D01*
X442644Y85022D01*
X442553Y85118D01*
X442458Y85211D01*
X442361Y85301D01*
X442261Y85388D01*
X442159Y85473D01*
X442054Y85554D01*
X441947Y85632D01*
X441838Y85708D01*
X441727Y85779D01*
X441613Y85848D01*
X441498Y85913D01*
X441380Y85975D01*
X441261Y86033D01*
X441140Y86088D01*
X441018Y86139D01*
X440894Y86187D01*
X440769Y86231D01*
X440643Y86271D01*
X440515Y86307D01*
X440387Y86340D01*
X440258Y86369D01*
X440127Y86394D01*
X439997Y86415D01*
X439865Y86433D01*
X439733Y86446D01*
X439601Y86456D01*
X439469Y86462D01*
X439336Y86464D01*
X440239Y93688D02*
X434820Y93688D01*
X440239Y93688D02*
X440358Y93686D01*
X440478Y93680D01*
X440597Y93670D01*
X440715Y93656D01*
X440834Y93639D01*
X440951Y93617D01*
X441068Y93592D01*
X441183Y93562D01*
X441298Y93529D01*
X441412Y93492D01*
X441524Y93452D01*
X441635Y93407D01*
X441744Y93359D01*
X441852Y93308D01*
X441958Y93253D01*
X442062Y93194D01*
X442164Y93132D01*
X442264Y93067D01*
X442362Y92998D01*
X442458Y92926D01*
X442551Y92851D01*
X442641Y92774D01*
X442729Y92693D01*
X442814Y92609D01*
X442896Y92522D01*
X442976Y92433D01*
X443052Y92341D01*
X443126Y92247D01*
X443196Y92150D01*
X443263Y92052D01*
X443327Y91951D01*
X443387Y91847D01*
X443444Y91742D01*
X443497Y91635D01*
X443547Y91527D01*
X443593Y91417D01*
X443635Y91305D01*
X443674Y91192D01*
X443709Y91078D01*
X443740Y90963D01*
X443768Y90846D01*
X443791Y90729D01*
X443811Y90612D01*
X443827Y90493D01*
X443839Y90374D01*
X443847Y90255D01*
X443851Y90136D01*
X443851Y90016D01*
X443847Y89897D01*
X443839Y89778D01*
X443827Y89659D01*
X443811Y89540D01*
X443791Y89423D01*
X443768Y89306D01*
X443740Y89189D01*
X443709Y89074D01*
X443674Y88960D01*
X443635Y88847D01*
X443593Y88735D01*
X443547Y88625D01*
X443497Y88517D01*
X443444Y88410D01*
X443387Y88305D01*
X443327Y88201D01*
X443263Y88100D01*
X443196Y88002D01*
X443126Y87905D01*
X443052Y87811D01*
X442976Y87719D01*
X442896Y87630D01*
X442814Y87543D01*
X442729Y87459D01*
X442641Y87378D01*
X442551Y87301D01*
X442458Y87226D01*
X442362Y87154D01*
X442264Y87085D01*
X442164Y87020D01*
X442062Y86958D01*
X441958Y86899D01*
X441852Y86844D01*
X441744Y86793D01*
X441635Y86745D01*
X441524Y86700D01*
X441412Y86660D01*
X441298Y86623D01*
X441183Y86590D01*
X441068Y86560D01*
X440951Y86535D01*
X440834Y86513D01*
X440715Y86496D01*
X440597Y86482D01*
X440478Y86472D01*
X440358Y86466D01*
X440239Y86464D01*
X440239Y86463D02*
X436626Y86463D01*
X450452Y85560D02*
X450456Y85880D01*
X450467Y86199D01*
X450486Y86519D01*
X450513Y86837D01*
X450547Y87155D01*
X450589Y87472D01*
X450639Y87788D01*
X450696Y88103D01*
X450760Y88416D01*
X450832Y88728D01*
X450911Y89038D01*
X450998Y89345D01*
X451092Y89651D01*
X451193Y89954D01*
X451302Y90255D01*
X451417Y90553D01*
X451540Y90849D01*
X451670Y91141D01*
X451807Y91430D01*
X451806Y91431D02*
X451845Y91539D01*
X451888Y91646D01*
X451934Y91751D01*
X451985Y91855D01*
X452038Y91957D01*
X452095Y92057D01*
X452156Y92155D01*
X452220Y92250D01*
X452287Y92344D01*
X452358Y92435D01*
X452431Y92524D01*
X452508Y92610D01*
X452587Y92693D01*
X452669Y92774D01*
X452754Y92852D01*
X452842Y92926D01*
X452932Y92998D01*
X453024Y93066D01*
X453119Y93132D01*
X453216Y93194D01*
X453315Y93252D01*
X453417Y93308D01*
X453519Y93359D01*
X453624Y93407D01*
X453730Y93452D01*
X453838Y93493D01*
X453947Y93530D01*
X454057Y93563D01*
X454169Y93592D01*
X454281Y93618D01*
X454394Y93640D01*
X454508Y93657D01*
X454622Y93671D01*
X454737Y93681D01*
X454852Y93687D01*
X454967Y93689D01*
X454967Y93688D02*
X455082Y93686D01*
X455197Y93680D01*
X455312Y93670D01*
X455426Y93656D01*
X455540Y93639D01*
X455653Y93617D01*
X455765Y93591D01*
X455877Y93562D01*
X455987Y93529D01*
X456096Y93492D01*
X456204Y93451D01*
X456310Y93406D01*
X456415Y93358D01*
X456517Y93307D01*
X456618Y93251D01*
X456718Y93193D01*
X456815Y93131D01*
X456909Y93066D01*
X457002Y92997D01*
X457092Y92925D01*
X457180Y92851D01*
X457265Y92773D01*
X457347Y92692D01*
X457426Y92609D01*
X457503Y92523D01*
X457576Y92434D01*
X457647Y92343D01*
X457714Y92249D01*
X457778Y92154D01*
X457839Y92056D01*
X457896Y91956D01*
X457949Y91854D01*
X458000Y91750D01*
X458046Y91645D01*
X458089Y91538D01*
X458128Y91430D01*
X458127Y91430D02*
X458264Y91141D01*
X458394Y90849D01*
X458517Y90553D01*
X458632Y90255D01*
X458741Y89954D01*
X458842Y89651D01*
X458936Y89345D01*
X459023Y89038D01*
X459102Y88728D01*
X459174Y88416D01*
X459238Y88103D01*
X459295Y87788D01*
X459345Y87472D01*
X459387Y87155D01*
X459421Y86837D01*
X459448Y86519D01*
X459467Y86199D01*
X459478Y85880D01*
X459482Y85560D01*
X450452Y85560D02*
X450456Y85240D01*
X450467Y84921D01*
X450486Y84601D01*
X450513Y84283D01*
X450547Y83965D01*
X450589Y83648D01*
X450639Y83332D01*
X450696Y83017D01*
X450760Y82704D01*
X450832Y82392D01*
X450911Y82082D01*
X450998Y81775D01*
X451092Y81469D01*
X451193Y81166D01*
X451302Y80865D01*
X451417Y80567D01*
X451540Y80271D01*
X451670Y79979D01*
X451807Y79690D01*
X451806Y79690D02*
X451845Y79582D01*
X451888Y79475D01*
X451934Y79370D01*
X451985Y79266D01*
X452038Y79164D01*
X452095Y79064D01*
X452156Y78966D01*
X452220Y78871D01*
X452287Y78777D01*
X452358Y78686D01*
X452431Y78597D01*
X452508Y78511D01*
X452587Y78428D01*
X452669Y78347D01*
X452754Y78269D01*
X452842Y78195D01*
X452932Y78123D01*
X453025Y78054D01*
X453119Y77989D01*
X453216Y77927D01*
X453316Y77869D01*
X453417Y77813D01*
X453519Y77762D01*
X453624Y77714D01*
X453730Y77669D01*
X453838Y77628D01*
X453947Y77591D01*
X454057Y77558D01*
X454169Y77529D01*
X454281Y77503D01*
X454394Y77481D01*
X454508Y77464D01*
X454622Y77450D01*
X454737Y77440D01*
X454852Y77434D01*
X454967Y77432D01*
X458127Y79690D02*
X458264Y79979D01*
X458394Y80271D01*
X458517Y80567D01*
X458632Y80865D01*
X458741Y81166D01*
X458842Y81469D01*
X458936Y81775D01*
X459023Y82082D01*
X459102Y82392D01*
X459174Y82704D01*
X459238Y83017D01*
X459295Y83332D01*
X459345Y83648D01*
X459387Y83965D01*
X459421Y84283D01*
X459448Y84601D01*
X459467Y84921D01*
X459478Y85240D01*
X459482Y85560D01*
X458128Y79690D02*
X458089Y79582D01*
X458046Y79475D01*
X458000Y79370D01*
X457949Y79266D01*
X457896Y79164D01*
X457839Y79064D01*
X457778Y78966D01*
X457714Y78871D01*
X457647Y78777D01*
X457576Y78686D01*
X457503Y78597D01*
X457426Y78511D01*
X457347Y78428D01*
X457265Y78347D01*
X457180Y78269D01*
X457092Y78195D01*
X457002Y78123D01*
X456909Y78054D01*
X456815Y77989D01*
X456718Y77927D01*
X456618Y77869D01*
X456517Y77813D01*
X456414Y77762D01*
X456310Y77714D01*
X456204Y77669D01*
X456096Y77628D01*
X455987Y77591D01*
X455877Y77558D01*
X455765Y77529D01*
X455653Y77503D01*
X455540Y77481D01*
X455426Y77464D01*
X455312Y77450D01*
X455197Y77440D01*
X455082Y77434D01*
X454967Y77432D01*
X451355Y81044D02*
X458579Y90076D01*
X466083Y90076D02*
X470598Y93688D01*
X470598Y77432D01*
X466083Y77432D02*
X475114Y77432D01*
X370762Y67018D02*
X370762Y50762D01*
X370762Y67018D02*
X375278Y67018D01*
X375411Y67016D01*
X375543Y67010D01*
X375675Y67000D01*
X375807Y66987D01*
X375939Y66969D01*
X376069Y66948D01*
X376200Y66923D01*
X376329Y66894D01*
X376457Y66861D01*
X376585Y66825D01*
X376711Y66785D01*
X376836Y66741D01*
X376960Y66693D01*
X377082Y66642D01*
X377203Y66587D01*
X377322Y66529D01*
X377440Y66467D01*
X377555Y66402D01*
X377669Y66333D01*
X377780Y66262D01*
X377889Y66186D01*
X377996Y66108D01*
X378101Y66027D01*
X378203Y65942D01*
X378303Y65855D01*
X378400Y65765D01*
X378495Y65672D01*
X378586Y65576D01*
X378675Y65478D01*
X378761Y65377D01*
X378844Y65273D01*
X378924Y65167D01*
X379000Y65059D01*
X379074Y64949D01*
X379144Y64836D01*
X379211Y64722D01*
X379274Y64605D01*
X379334Y64487D01*
X379391Y64367D01*
X379444Y64245D01*
X379493Y64122D01*
X379539Y63998D01*
X379581Y63872D01*
X379619Y63745D01*
X379654Y63617D01*
X379685Y63488D01*
X379712Y63359D01*
X379735Y63228D01*
X379755Y63097D01*
X379770Y62965D01*
X379782Y62833D01*
X379790Y62701D01*
X379794Y62568D01*
X379794Y62436D01*
X379790Y62303D01*
X379782Y62171D01*
X379770Y62039D01*
X379755Y61907D01*
X379735Y61776D01*
X379712Y61645D01*
X379685Y61516D01*
X379654Y61387D01*
X379619Y61259D01*
X379581Y61132D01*
X379539Y61006D01*
X379493Y60882D01*
X379444Y60759D01*
X379391Y60637D01*
X379334Y60517D01*
X379274Y60399D01*
X379211Y60282D01*
X379144Y60168D01*
X379074Y60055D01*
X379000Y59945D01*
X378924Y59837D01*
X378844Y59731D01*
X378761Y59627D01*
X378675Y59526D01*
X378586Y59428D01*
X378495Y59332D01*
X378400Y59239D01*
X378303Y59149D01*
X378203Y59062D01*
X378101Y58977D01*
X377996Y58896D01*
X377889Y58818D01*
X377780Y58742D01*
X377669Y58671D01*
X377555Y58602D01*
X377440Y58537D01*
X377322Y58475D01*
X377203Y58417D01*
X377082Y58362D01*
X376960Y58311D01*
X376836Y58263D01*
X376711Y58219D01*
X376585Y58179D01*
X376457Y58143D01*
X376329Y58110D01*
X376200Y58081D01*
X376069Y58056D01*
X375939Y58035D01*
X375807Y58017D01*
X375675Y58004D01*
X375543Y57994D01*
X375411Y57988D01*
X375278Y57986D01*
X375278Y57987D02*
X370762Y57987D01*
X376181Y57987D02*
X379793Y50762D01*
X388872Y50762D02*
X393388Y50762D01*
X388872Y50762D02*
X388771Y50764D01*
X388670Y50770D01*
X388569Y50779D01*
X388468Y50792D01*
X388368Y50809D01*
X388269Y50830D01*
X388171Y50854D01*
X388074Y50882D01*
X387977Y50914D01*
X387882Y50949D01*
X387789Y50988D01*
X387697Y51030D01*
X387606Y51076D01*
X387518Y51125D01*
X387431Y51177D01*
X387346Y51233D01*
X387263Y51291D01*
X387183Y51353D01*
X387105Y51418D01*
X387029Y51485D01*
X386956Y51555D01*
X386886Y51628D01*
X386819Y51704D01*
X386754Y51782D01*
X386692Y51862D01*
X386634Y51945D01*
X386578Y52030D01*
X386526Y52116D01*
X386477Y52205D01*
X386431Y52296D01*
X386389Y52388D01*
X386350Y52481D01*
X386315Y52576D01*
X386283Y52673D01*
X386255Y52770D01*
X386231Y52868D01*
X386210Y52967D01*
X386193Y53067D01*
X386180Y53168D01*
X386171Y53269D01*
X386165Y53370D01*
X386163Y53471D01*
X386163Y57987D01*
X386165Y58106D01*
X386171Y58226D01*
X386181Y58345D01*
X386195Y58463D01*
X386212Y58582D01*
X386234Y58699D01*
X386259Y58816D01*
X386289Y58931D01*
X386322Y59046D01*
X386359Y59160D01*
X386399Y59272D01*
X386444Y59383D01*
X386492Y59492D01*
X386543Y59600D01*
X386598Y59706D01*
X386657Y59810D01*
X386719Y59912D01*
X386784Y60012D01*
X386853Y60110D01*
X386925Y60206D01*
X387000Y60299D01*
X387077Y60389D01*
X387158Y60477D01*
X387242Y60562D01*
X387329Y60644D01*
X387418Y60724D01*
X387510Y60800D01*
X387604Y60874D01*
X387701Y60944D01*
X387799Y61011D01*
X387900Y61075D01*
X388004Y61135D01*
X388109Y61192D01*
X388216Y61245D01*
X388324Y61295D01*
X388434Y61341D01*
X388546Y61383D01*
X388659Y61422D01*
X388773Y61457D01*
X388888Y61488D01*
X389005Y61516D01*
X389122Y61539D01*
X389239Y61559D01*
X389358Y61575D01*
X389477Y61587D01*
X389596Y61595D01*
X389715Y61599D01*
X389835Y61599D01*
X389954Y61595D01*
X390073Y61587D01*
X390192Y61575D01*
X390311Y61559D01*
X390428Y61539D01*
X390545Y61516D01*
X390662Y61488D01*
X390777Y61457D01*
X390891Y61422D01*
X391004Y61383D01*
X391116Y61341D01*
X391226Y61295D01*
X391334Y61245D01*
X391441Y61192D01*
X391546Y61135D01*
X391650Y61075D01*
X391751Y61011D01*
X391849Y60944D01*
X391946Y60874D01*
X392040Y60800D01*
X392132Y60724D01*
X392221Y60644D01*
X392308Y60562D01*
X392392Y60477D01*
X392473Y60389D01*
X392550Y60299D01*
X392625Y60206D01*
X392697Y60110D01*
X392766Y60012D01*
X392831Y59912D01*
X392893Y59810D01*
X392952Y59706D01*
X393007Y59600D01*
X393058Y59492D01*
X393106Y59383D01*
X393151Y59272D01*
X393191Y59160D01*
X393228Y59046D01*
X393261Y58931D01*
X393291Y58816D01*
X393316Y58699D01*
X393338Y58582D01*
X393355Y58463D01*
X393369Y58345D01*
X393379Y58226D01*
X393385Y58106D01*
X393387Y57987D01*
X393388Y57987D02*
X393388Y56181D01*
X386163Y56181D01*
X399189Y61599D02*
X402801Y50762D01*
X406414Y61599D01*
X419787Y50762D02*
X425206Y67018D01*
X430625Y50762D01*
X429270Y54826D02*
X421142Y54826D01*
D11*
X431270Y151270D02*
X781270Y151270D01*
X783686Y151299D01*
X786101Y151387D01*
X788513Y151533D01*
X790921Y151737D01*
X793324Y151999D01*
X795719Y152319D01*
X798106Y152697D01*
X800483Y153133D01*
X802848Y153626D01*
X805202Y154176D01*
X807541Y154782D01*
X809865Y155445D01*
X812172Y156164D01*
X814461Y156939D01*
X816730Y157768D01*
X818979Y158653D01*
X821206Y159591D01*
X823410Y160583D01*
X825589Y161627D01*
X827742Y162724D01*
X829868Y163873D01*
X831966Y165073D01*
X834034Y166323D01*
X836071Y167623D01*
X838076Y168972D01*
X840049Y170368D01*
X841986Y171812D01*
X843889Y173303D01*
X845754Y174838D01*
X847582Y176419D01*
X849372Y178043D01*
X851121Y179710D01*
X852830Y181419D01*
X854497Y183168D01*
X856121Y184958D01*
X857702Y186786D01*
X859237Y188651D01*
X860728Y190554D01*
X862172Y192491D01*
X863568Y194464D01*
X864917Y196469D01*
X866217Y198506D01*
X867467Y200574D01*
X868667Y202672D01*
X869816Y204798D01*
X870913Y206951D01*
X871957Y209130D01*
X872949Y211334D01*
X873887Y213561D01*
X874772Y215810D01*
X875601Y218079D01*
X876376Y220368D01*
X877095Y222675D01*
X877758Y224999D01*
X878364Y227338D01*
X878914Y229692D01*
X879407Y232057D01*
X879843Y234434D01*
X880221Y236821D01*
X880541Y239216D01*
X880803Y241619D01*
X881007Y244027D01*
X881153Y246439D01*
X881241Y248854D01*
X881270Y251270D01*
X881270Y401270D01*
X881241Y403686D01*
X881153Y406101D01*
X881007Y408513D01*
X880803Y410921D01*
X880541Y413324D01*
X880221Y415719D01*
X879843Y418106D01*
X879407Y420483D01*
X878914Y422848D01*
X878364Y425202D01*
X877758Y427541D01*
X877095Y429865D01*
X876376Y432172D01*
X875601Y434461D01*
X874772Y436730D01*
X873887Y438979D01*
X872949Y441206D01*
X871957Y443410D01*
X870913Y445589D01*
X869816Y447742D01*
X868667Y449868D01*
X867467Y451966D01*
X866217Y454034D01*
X864917Y456071D01*
X863568Y458076D01*
X862172Y460049D01*
X860728Y461986D01*
X859237Y463889D01*
X857702Y465754D01*
X856121Y467582D01*
X854497Y469372D01*
X852830Y471121D01*
X851121Y472830D01*
X849372Y474497D01*
X847582Y476121D01*
X845754Y477702D01*
X843889Y479237D01*
X841986Y480728D01*
X840049Y482172D01*
X838076Y483568D01*
X836071Y484917D01*
X834034Y486217D01*
X831966Y487467D01*
X829868Y488667D01*
X827742Y489816D01*
X825589Y490913D01*
X823410Y491957D01*
X821206Y492949D01*
X818979Y493887D01*
X816730Y494772D01*
X814461Y495601D01*
X812172Y496376D01*
X809865Y497095D01*
X807541Y497758D01*
X805202Y498364D01*
X802848Y498914D01*
X800483Y499407D01*
X798106Y499843D01*
X795719Y500221D01*
X793324Y500541D01*
X790921Y500803D01*
X788513Y501007D01*
X786101Y501153D01*
X783686Y501241D01*
X781270Y501270D01*
X431270Y501270D01*
X428854Y501241D01*
X426439Y501153D01*
X424027Y501007D01*
X421619Y500803D01*
X419216Y500541D01*
X416821Y500221D01*
X414434Y499843D01*
X412057Y499407D01*
X409692Y498914D01*
X407338Y498364D01*
X404999Y497758D01*
X402675Y497095D01*
X400368Y496376D01*
X398079Y495601D01*
X395810Y494772D01*
X393561Y493887D01*
X391334Y492949D01*
X389130Y491957D01*
X386951Y490913D01*
X384798Y489816D01*
X382672Y488667D01*
X380574Y487467D01*
X378506Y486217D01*
X376469Y484917D01*
X374464Y483568D01*
X372491Y482172D01*
X370554Y480728D01*
X368651Y479237D01*
X366786Y477702D01*
X364958Y476121D01*
X363168Y474497D01*
X361419Y472830D01*
X359710Y471121D01*
X358043Y469372D01*
X356419Y467582D01*
X354838Y465754D01*
X353303Y463889D01*
X351812Y461986D01*
X350368Y460049D01*
X348972Y458076D01*
X347623Y456071D01*
X346323Y454034D01*
X345073Y451966D01*
X343873Y449868D01*
X342724Y447742D01*
X341627Y445589D01*
X340583Y443410D01*
X339591Y441206D01*
X338653Y438979D01*
X337768Y436730D01*
X336939Y434461D01*
X336164Y432172D01*
X335445Y429865D01*
X334782Y427541D01*
X334176Y425202D01*
X333626Y422848D01*
X333133Y420483D01*
X332697Y418106D01*
X332319Y415719D01*
X331999Y413324D01*
X331737Y410921D01*
X331533Y408513D01*
X331387Y406101D01*
X331299Y403686D01*
X331270Y401270D01*
X331270Y251270D01*
X331299Y248854D01*
X331387Y246439D01*
X331533Y244027D01*
X331737Y241619D01*
X331999Y239216D01*
X332319Y236821D01*
X332697Y234434D01*
X333133Y232057D01*
X333626Y229692D01*
X334176Y227338D01*
X334782Y224999D01*
X335445Y222675D01*
X336164Y220368D01*
X336939Y218079D01*
X337768Y215810D01*
X338653Y213561D01*
X339591Y211334D01*
X340583Y209130D01*
X341627Y206951D01*
X342724Y204798D01*
X343873Y202672D01*
X345073Y200574D01*
X346323Y198506D01*
X347623Y196469D01*
X348972Y194464D01*
X350368Y192491D01*
X351812Y190554D01*
X353303Y188651D01*
X354838Y186786D01*
X356419Y184958D01*
X358043Y183168D01*
X359710Y181419D01*
X361419Y179710D01*
X363168Y178043D01*
X364958Y176419D01*
X366786Y174838D01*
X368651Y173303D01*
X370554Y171812D01*
X372491Y170368D01*
X374464Y168972D01*
X376469Y167623D01*
X378506Y166323D01*
X380574Y165073D01*
X382672Y163873D01*
X384798Y162724D01*
X386951Y161627D01*
X389130Y160583D01*
X391334Y159591D01*
X393561Y158653D01*
X395810Y157768D01*
X398079Y156939D01*
X400368Y156164D01*
X402675Y155445D01*
X404999Y154782D01*
X407338Y154176D01*
X409692Y153626D01*
X412057Y153133D01*
X414434Y152697D01*
X416821Y152319D01*
X419216Y151999D01*
X421619Y151737D01*
X424027Y151533D01*
X426439Y151387D01*
X428854Y151299D01*
X431270Y151270D01*
D10*
X842662Y440677D02*
X853838Y440677D01*
X842662Y440677D02*
X842662Y443781D01*
X842664Y443892D01*
X842670Y444002D01*
X842680Y444113D01*
X842694Y444223D01*
X842711Y444332D01*
X842733Y444441D01*
X842758Y444549D01*
X842788Y444655D01*
X842821Y444761D01*
X842858Y444866D01*
X842898Y444969D01*
X842943Y445070D01*
X842990Y445170D01*
X843042Y445269D01*
X843097Y445365D01*
X843155Y445459D01*
X843216Y445551D01*
X843281Y445641D01*
X843349Y445729D01*
X843420Y445814D01*
X843494Y445896D01*
X843571Y445976D01*
X843651Y446053D01*
X843733Y446127D01*
X843818Y446198D01*
X843906Y446266D01*
X843996Y446331D01*
X844088Y446392D01*
X844182Y446450D01*
X844278Y446505D01*
X844377Y446557D01*
X844477Y446604D01*
X844578Y446649D01*
X844681Y446689D01*
X844786Y446726D01*
X844892Y446759D01*
X844998Y446789D01*
X845106Y446814D01*
X845215Y446836D01*
X845324Y446853D01*
X845434Y446867D01*
X845545Y446877D01*
X845655Y446883D01*
X845766Y446885D01*
X845877Y446883D01*
X845987Y446877D01*
X846098Y446867D01*
X846208Y446853D01*
X846317Y446836D01*
X846426Y446814D01*
X846534Y446789D01*
X846640Y446759D01*
X846746Y446726D01*
X846851Y446689D01*
X846954Y446649D01*
X847055Y446604D01*
X847155Y446557D01*
X847254Y446505D01*
X847350Y446450D01*
X847444Y446392D01*
X847536Y446331D01*
X847626Y446266D01*
X847714Y446198D01*
X847799Y446127D01*
X847881Y446053D01*
X847961Y445976D01*
X848038Y445896D01*
X848112Y445814D01*
X848183Y445729D01*
X848251Y445641D01*
X848316Y445551D01*
X848377Y445459D01*
X848435Y445365D01*
X848490Y445269D01*
X848542Y445170D01*
X848589Y445070D01*
X848634Y444969D01*
X848674Y444866D01*
X848711Y444761D01*
X848744Y444655D01*
X848774Y444549D01*
X848799Y444441D01*
X848821Y444332D01*
X848838Y444223D01*
X848852Y444113D01*
X848862Y444002D01*
X848868Y443892D01*
X848870Y443781D01*
X848871Y443781D02*
X848871Y440677D01*
X845146Y451514D02*
X842662Y454619D01*
X853838Y454619D01*
X853838Y457723D02*
X853838Y451514D01*
X853838Y186677D02*
X842662Y186677D01*
X842662Y189781D01*
X842664Y189892D01*
X842670Y190002D01*
X842680Y190113D01*
X842694Y190223D01*
X842711Y190332D01*
X842733Y190441D01*
X842758Y190549D01*
X842788Y190655D01*
X842821Y190761D01*
X842858Y190866D01*
X842898Y190969D01*
X842943Y191070D01*
X842990Y191170D01*
X843042Y191269D01*
X843097Y191365D01*
X843155Y191459D01*
X843216Y191551D01*
X843281Y191641D01*
X843349Y191729D01*
X843420Y191814D01*
X843494Y191896D01*
X843571Y191976D01*
X843651Y192053D01*
X843733Y192127D01*
X843818Y192198D01*
X843906Y192266D01*
X843996Y192331D01*
X844088Y192392D01*
X844182Y192450D01*
X844278Y192505D01*
X844377Y192557D01*
X844477Y192604D01*
X844578Y192649D01*
X844681Y192689D01*
X844786Y192726D01*
X844892Y192759D01*
X844998Y192789D01*
X845106Y192814D01*
X845215Y192836D01*
X845324Y192853D01*
X845434Y192867D01*
X845545Y192877D01*
X845655Y192883D01*
X845766Y192885D01*
X845877Y192883D01*
X845987Y192877D01*
X846098Y192867D01*
X846208Y192853D01*
X846317Y192836D01*
X846426Y192814D01*
X846534Y192789D01*
X846640Y192759D01*
X846746Y192726D01*
X846851Y192689D01*
X846954Y192649D01*
X847055Y192604D01*
X847155Y192557D01*
X847254Y192505D01*
X847350Y192450D01*
X847444Y192392D01*
X847536Y192331D01*
X847626Y192266D01*
X847714Y192198D01*
X847799Y192127D01*
X847881Y192053D01*
X847961Y191976D01*
X848038Y191896D01*
X848112Y191814D01*
X848183Y191729D01*
X848251Y191641D01*
X848316Y191551D01*
X848377Y191459D01*
X848435Y191365D01*
X848490Y191269D01*
X848542Y191170D01*
X848589Y191070D01*
X848634Y190969D01*
X848674Y190866D01*
X848711Y190761D01*
X848744Y190655D01*
X848774Y190549D01*
X848799Y190441D01*
X848821Y190332D01*
X848838Y190223D01*
X848852Y190113D01*
X848862Y190002D01*
X848868Y189892D01*
X848870Y189781D01*
X848871Y189781D02*
X848871Y186677D01*
X842662Y200929D02*
X842664Y201033D01*
X842670Y201138D01*
X842680Y201242D01*
X842693Y201345D01*
X842711Y201448D01*
X842732Y201551D01*
X842757Y201652D01*
X842786Y201753D01*
X842819Y201852D01*
X842855Y201950D01*
X842895Y202046D01*
X842939Y202141D01*
X842986Y202235D01*
X843036Y202326D01*
X843090Y202415D01*
X843147Y202503D01*
X843208Y202588D01*
X843272Y202671D01*
X843338Y202751D01*
X843408Y202829D01*
X843480Y202905D01*
X843556Y202977D01*
X843634Y203047D01*
X843714Y203113D01*
X843797Y203177D01*
X843882Y203238D01*
X843970Y203295D01*
X844059Y203349D01*
X844150Y203399D01*
X844244Y203446D01*
X844339Y203490D01*
X844435Y203530D01*
X844533Y203566D01*
X844632Y203599D01*
X844733Y203628D01*
X844834Y203653D01*
X844937Y203674D01*
X845040Y203692D01*
X845143Y203705D01*
X845247Y203715D01*
X845352Y203721D01*
X845456Y203723D01*
X842662Y200929D02*
X842664Y200810D01*
X842670Y200692D01*
X842680Y200573D01*
X842693Y200455D01*
X842711Y200338D01*
X842733Y200221D01*
X842758Y200105D01*
X842787Y199990D01*
X842820Y199875D01*
X842857Y199762D01*
X842897Y199651D01*
X842941Y199540D01*
X842989Y199432D01*
X843040Y199325D01*
X843095Y199219D01*
X843154Y199116D01*
X843215Y199014D01*
X843280Y198915D01*
X843349Y198817D01*
X843420Y198723D01*
X843495Y198630D01*
X843572Y198540D01*
X843653Y198453D01*
X843736Y198368D01*
X843822Y198286D01*
X843911Y198207D01*
X844002Y198131D01*
X844096Y198058D01*
X844192Y197989D01*
X844291Y197922D01*
X844391Y197859D01*
X844494Y197799D01*
X844598Y197742D01*
X844705Y197690D01*
X844813Y197640D01*
X844922Y197594D01*
X845034Y197552D01*
X845146Y197514D01*
X847629Y202792D02*
X847555Y202867D01*
X847478Y202939D01*
X847399Y203009D01*
X847317Y203076D01*
X847233Y203140D01*
X847147Y203201D01*
X847059Y203259D01*
X846968Y203314D01*
X846876Y203366D01*
X846782Y203414D01*
X846687Y203459D01*
X846589Y203501D01*
X846491Y203539D01*
X846391Y203574D01*
X846290Y203605D01*
X846188Y203632D01*
X846085Y203656D01*
X845982Y203677D01*
X845877Y203693D01*
X845772Y203706D01*
X845667Y203716D01*
X845562Y203721D01*
X845456Y203723D01*
X847629Y202792D02*
X853838Y197514D01*
X853838Y203723D01*
D12*
X553907Y240158D02*
X553907Y251842D01*
X557152Y251842D01*
X557265Y251840D01*
X557378Y251834D01*
X557491Y251824D01*
X557604Y251810D01*
X557716Y251793D01*
X557827Y251771D01*
X557937Y251746D01*
X558047Y251716D01*
X558155Y251683D01*
X558262Y251646D01*
X558368Y251606D01*
X558472Y251561D01*
X558575Y251513D01*
X558676Y251462D01*
X558775Y251407D01*
X558872Y251349D01*
X558967Y251287D01*
X559060Y251222D01*
X559150Y251154D01*
X559238Y251083D01*
X559324Y251008D01*
X559407Y250931D01*
X559487Y250851D01*
X559564Y250768D01*
X559639Y250682D01*
X559710Y250594D01*
X559778Y250504D01*
X559843Y250411D01*
X559905Y250316D01*
X559963Y250219D01*
X560018Y250120D01*
X560069Y250019D01*
X560117Y249916D01*
X560162Y249812D01*
X560202Y249706D01*
X560239Y249599D01*
X560272Y249491D01*
X560302Y249381D01*
X560327Y249271D01*
X560349Y249160D01*
X560366Y249048D01*
X560380Y248935D01*
X560390Y248822D01*
X560396Y248709D01*
X560398Y248596D01*
X560396Y248483D01*
X560390Y248370D01*
X560380Y248257D01*
X560366Y248144D01*
X560349Y248032D01*
X560327Y247921D01*
X560302Y247811D01*
X560272Y247701D01*
X560239Y247593D01*
X560202Y247486D01*
X560162Y247380D01*
X560117Y247276D01*
X560069Y247173D01*
X560018Y247072D01*
X559963Y246973D01*
X559905Y246876D01*
X559843Y246781D01*
X559778Y246688D01*
X559710Y246598D01*
X559639Y246510D01*
X559564Y246424D01*
X559487Y246341D01*
X559407Y246261D01*
X559324Y246184D01*
X559238Y246109D01*
X559150Y246038D01*
X559060Y245970D01*
X558967Y245905D01*
X558872Y245843D01*
X558775Y245785D01*
X558676Y245730D01*
X558575Y245679D01*
X558472Y245631D01*
X558368Y245586D01*
X558262Y245546D01*
X558155Y245509D01*
X558047Y245476D01*
X557937Y245446D01*
X557827Y245421D01*
X557716Y245399D01*
X557604Y245382D01*
X557491Y245368D01*
X557378Y245358D01*
X557265Y245352D01*
X557152Y245350D01*
X557152Y245351D02*
X553907Y245351D01*
X564673Y245351D02*
X564673Y242754D01*
X564674Y245351D02*
X564676Y245452D01*
X564682Y245552D01*
X564692Y245652D01*
X564705Y245752D01*
X564723Y245851D01*
X564744Y245950D01*
X564769Y246047D01*
X564798Y246144D01*
X564831Y246239D01*
X564867Y246333D01*
X564907Y246425D01*
X564950Y246516D01*
X564997Y246605D01*
X565047Y246692D01*
X565101Y246778D01*
X565158Y246861D01*
X565218Y246941D01*
X565281Y247020D01*
X565348Y247096D01*
X565417Y247169D01*
X565489Y247239D01*
X565563Y247307D01*
X565640Y247372D01*
X565720Y247433D01*
X565802Y247492D01*
X565886Y247547D01*
X565972Y247599D01*
X566060Y247648D01*
X566150Y247693D01*
X566242Y247735D01*
X566335Y247773D01*
X566430Y247807D01*
X566525Y247838D01*
X566622Y247865D01*
X566720Y247888D01*
X566819Y247908D01*
X566919Y247923D01*
X567019Y247935D01*
X567119Y247943D01*
X567220Y247947D01*
X567320Y247947D01*
X567421Y247943D01*
X567521Y247935D01*
X567621Y247923D01*
X567721Y247908D01*
X567820Y247888D01*
X567918Y247865D01*
X568015Y247838D01*
X568110Y247807D01*
X568205Y247773D01*
X568298Y247735D01*
X568390Y247693D01*
X568480Y247648D01*
X568568Y247599D01*
X568654Y247547D01*
X568738Y247492D01*
X568820Y247433D01*
X568900Y247372D01*
X568977Y247307D01*
X569051Y247239D01*
X569123Y247169D01*
X569192Y247096D01*
X569259Y247020D01*
X569322Y246941D01*
X569382Y246861D01*
X569439Y246778D01*
X569493Y246692D01*
X569543Y246605D01*
X569590Y246516D01*
X569633Y246425D01*
X569673Y246333D01*
X569709Y246239D01*
X569742Y246144D01*
X569771Y246047D01*
X569796Y245950D01*
X569817Y245851D01*
X569835Y245752D01*
X569848Y245652D01*
X569858Y245552D01*
X569864Y245452D01*
X569866Y245351D01*
X569866Y242754D01*
X569864Y242653D01*
X569858Y242553D01*
X569848Y242453D01*
X569835Y242353D01*
X569817Y242254D01*
X569796Y242155D01*
X569771Y242058D01*
X569742Y241961D01*
X569709Y241866D01*
X569673Y241772D01*
X569633Y241680D01*
X569590Y241589D01*
X569543Y241500D01*
X569493Y241413D01*
X569439Y241327D01*
X569382Y241244D01*
X569322Y241164D01*
X569259Y241085D01*
X569192Y241009D01*
X569123Y240936D01*
X569051Y240866D01*
X568977Y240798D01*
X568900Y240733D01*
X568820Y240672D01*
X568738Y240613D01*
X568654Y240558D01*
X568568Y240506D01*
X568480Y240457D01*
X568390Y240412D01*
X568298Y240370D01*
X568205Y240332D01*
X568110Y240298D01*
X568015Y240267D01*
X567918Y240240D01*
X567820Y240217D01*
X567721Y240197D01*
X567621Y240182D01*
X567521Y240170D01*
X567421Y240162D01*
X567320Y240158D01*
X567220Y240158D01*
X567119Y240162D01*
X567019Y240170D01*
X566919Y240182D01*
X566819Y240197D01*
X566720Y240217D01*
X566622Y240240D01*
X566525Y240267D01*
X566430Y240298D01*
X566335Y240332D01*
X566242Y240370D01*
X566150Y240412D01*
X566060Y240457D01*
X565972Y240506D01*
X565886Y240558D01*
X565802Y240613D01*
X565720Y240672D01*
X565640Y240733D01*
X565563Y240798D01*
X565489Y240866D01*
X565417Y240936D01*
X565348Y241009D01*
X565281Y241085D01*
X565218Y241164D01*
X565158Y241244D01*
X565101Y241327D01*
X565047Y241413D01*
X564997Y241500D01*
X564950Y241589D01*
X564907Y241680D01*
X564867Y241772D01*
X564831Y241866D01*
X564798Y241961D01*
X564769Y242058D01*
X564744Y242155D01*
X564723Y242254D01*
X564705Y242353D01*
X564692Y242453D01*
X564682Y242553D01*
X564676Y242653D01*
X564674Y242754D01*
X576540Y240158D02*
X579136Y240158D01*
X576540Y240158D02*
X576453Y240160D01*
X576365Y240166D01*
X576279Y240176D01*
X576192Y240189D01*
X576107Y240207D01*
X576022Y240228D01*
X575938Y240253D01*
X575856Y240282D01*
X575775Y240315D01*
X575695Y240351D01*
X575617Y240390D01*
X575541Y240434D01*
X575467Y240480D01*
X575396Y240530D01*
X575326Y240583D01*
X575259Y240639D01*
X575195Y240698D01*
X575133Y240760D01*
X575074Y240824D01*
X575018Y240891D01*
X574965Y240961D01*
X574915Y241032D01*
X574869Y241106D01*
X574825Y241182D01*
X574786Y241260D01*
X574750Y241340D01*
X574717Y241421D01*
X574688Y241503D01*
X574663Y241587D01*
X574642Y241672D01*
X574624Y241757D01*
X574611Y241844D01*
X574601Y241930D01*
X574595Y242018D01*
X574593Y242105D01*
X574593Y246000D01*
X574595Y246087D01*
X574601Y246175D01*
X574611Y246261D01*
X574624Y246348D01*
X574642Y246433D01*
X574663Y246518D01*
X574688Y246602D01*
X574717Y246684D01*
X574750Y246765D01*
X574786Y246845D01*
X574825Y246923D01*
X574869Y246999D01*
X574915Y247073D01*
X574965Y247144D01*
X575018Y247214D01*
X575074Y247281D01*
X575133Y247345D01*
X575195Y247407D01*
X575259Y247466D01*
X575326Y247522D01*
X575396Y247575D01*
X575467Y247625D01*
X575541Y247671D01*
X575617Y247715D01*
X575695Y247754D01*
X575775Y247790D01*
X575856Y247823D01*
X575938Y247852D01*
X576022Y247877D01*
X576107Y247898D01*
X576192Y247916D01*
X576279Y247929D01*
X576365Y247939D01*
X576453Y247945D01*
X576540Y247947D01*
X579136Y247947D01*
X585290Y240158D02*
X588535Y240158D01*
X585290Y240158D02*
X585203Y240160D01*
X585115Y240166D01*
X585029Y240176D01*
X584942Y240189D01*
X584857Y240207D01*
X584772Y240228D01*
X584688Y240253D01*
X584606Y240282D01*
X584525Y240315D01*
X584445Y240351D01*
X584367Y240390D01*
X584291Y240434D01*
X584217Y240480D01*
X584146Y240530D01*
X584076Y240583D01*
X584009Y240639D01*
X583945Y240698D01*
X583883Y240760D01*
X583824Y240824D01*
X583768Y240891D01*
X583715Y240961D01*
X583665Y241032D01*
X583619Y241106D01*
X583575Y241182D01*
X583536Y241260D01*
X583500Y241340D01*
X583467Y241421D01*
X583438Y241503D01*
X583413Y241587D01*
X583392Y241672D01*
X583374Y241757D01*
X583361Y241844D01*
X583351Y241930D01*
X583345Y242018D01*
X583343Y242105D01*
X583342Y242105D02*
X583342Y245351D01*
X583343Y245351D02*
X583345Y245452D01*
X583351Y245552D01*
X583361Y245652D01*
X583374Y245752D01*
X583392Y245851D01*
X583413Y245950D01*
X583438Y246047D01*
X583467Y246144D01*
X583500Y246239D01*
X583536Y246333D01*
X583576Y246425D01*
X583619Y246516D01*
X583666Y246605D01*
X583716Y246692D01*
X583770Y246778D01*
X583827Y246861D01*
X583887Y246941D01*
X583950Y247020D01*
X584017Y247096D01*
X584086Y247169D01*
X584158Y247239D01*
X584232Y247307D01*
X584309Y247372D01*
X584389Y247433D01*
X584471Y247492D01*
X584555Y247547D01*
X584641Y247599D01*
X584729Y247648D01*
X584819Y247693D01*
X584911Y247735D01*
X585004Y247773D01*
X585099Y247807D01*
X585194Y247838D01*
X585291Y247865D01*
X585389Y247888D01*
X585488Y247908D01*
X585588Y247923D01*
X585688Y247935D01*
X585788Y247943D01*
X585889Y247947D01*
X585989Y247947D01*
X586090Y247943D01*
X586190Y247935D01*
X586290Y247923D01*
X586390Y247908D01*
X586489Y247888D01*
X586587Y247865D01*
X586684Y247838D01*
X586779Y247807D01*
X586874Y247773D01*
X586967Y247735D01*
X587059Y247693D01*
X587149Y247648D01*
X587237Y247599D01*
X587323Y247547D01*
X587407Y247492D01*
X587489Y247433D01*
X587569Y247372D01*
X587646Y247307D01*
X587720Y247239D01*
X587792Y247169D01*
X587861Y247096D01*
X587928Y247020D01*
X587991Y246941D01*
X588051Y246861D01*
X588108Y246778D01*
X588162Y246692D01*
X588212Y246605D01*
X588259Y246516D01*
X588302Y246425D01*
X588342Y246333D01*
X588378Y246239D01*
X588411Y246144D01*
X588440Y246047D01*
X588465Y245950D01*
X588486Y245851D01*
X588504Y245752D01*
X588517Y245652D01*
X588527Y245552D01*
X588533Y245452D01*
X588535Y245351D01*
X588535Y244053D01*
X583342Y244053D01*
X593765Y240158D02*
X593765Y251842D01*
X598958Y247947D02*
X593765Y244053D01*
X596037Y245675D02*
X598958Y240158D01*
X602187Y247947D02*
X606082Y247947D01*
X603485Y251842D02*
X603485Y242105D01*
X603486Y242105D02*
X603488Y242018D01*
X603494Y241930D01*
X603504Y241844D01*
X603517Y241757D01*
X603535Y241672D01*
X603556Y241587D01*
X603581Y241503D01*
X603610Y241421D01*
X603643Y241340D01*
X603679Y241260D01*
X603718Y241182D01*
X603762Y241106D01*
X603808Y241032D01*
X603858Y240961D01*
X603911Y240891D01*
X603967Y240824D01*
X604026Y240760D01*
X604088Y240698D01*
X604152Y240639D01*
X604219Y240583D01*
X604289Y240530D01*
X604360Y240480D01*
X604434Y240434D01*
X604510Y240390D01*
X604588Y240351D01*
X604668Y240315D01*
X604749Y240282D01*
X604831Y240253D01*
X604915Y240228D01*
X605000Y240207D01*
X605085Y240189D01*
X605172Y240176D01*
X605258Y240166D01*
X605346Y240160D01*
X605433Y240158D01*
X606082Y240158D01*
X611056Y246649D02*
X614302Y246649D01*
X614302Y246650D02*
X614415Y246648D01*
X614528Y246642D01*
X614641Y246632D01*
X614754Y246618D01*
X614866Y246601D01*
X614977Y246579D01*
X615087Y246554D01*
X615197Y246524D01*
X615305Y246491D01*
X615412Y246454D01*
X615518Y246414D01*
X615622Y246369D01*
X615725Y246321D01*
X615826Y246270D01*
X615925Y246215D01*
X616022Y246157D01*
X616117Y246095D01*
X616210Y246030D01*
X616300Y245962D01*
X616388Y245891D01*
X616474Y245816D01*
X616557Y245739D01*
X616637Y245659D01*
X616714Y245576D01*
X616789Y245490D01*
X616860Y245402D01*
X616928Y245312D01*
X616993Y245219D01*
X617055Y245124D01*
X617113Y245027D01*
X617168Y244928D01*
X617219Y244827D01*
X617267Y244724D01*
X617312Y244620D01*
X617352Y244514D01*
X617389Y244407D01*
X617422Y244299D01*
X617452Y244189D01*
X617477Y244079D01*
X617499Y243968D01*
X617516Y243856D01*
X617530Y243743D01*
X617540Y243630D01*
X617546Y243517D01*
X617548Y243404D01*
X617546Y243291D01*
X617540Y243178D01*
X617530Y243065D01*
X617516Y242952D01*
X617499Y242840D01*
X617477Y242729D01*
X617452Y242619D01*
X617422Y242509D01*
X617389Y242401D01*
X617352Y242294D01*
X617312Y242188D01*
X617267Y242084D01*
X617219Y241981D01*
X617168Y241880D01*
X617113Y241781D01*
X617055Y241684D01*
X616993Y241589D01*
X616928Y241496D01*
X616860Y241406D01*
X616789Y241318D01*
X616714Y241232D01*
X616637Y241149D01*
X616557Y241069D01*
X616474Y240992D01*
X616388Y240917D01*
X616300Y240846D01*
X616210Y240778D01*
X616117Y240713D01*
X616022Y240651D01*
X615925Y240593D01*
X615826Y240538D01*
X615725Y240487D01*
X615622Y240439D01*
X615518Y240394D01*
X615412Y240354D01*
X615305Y240317D01*
X615197Y240284D01*
X615087Y240254D01*
X614977Y240229D01*
X614866Y240207D01*
X614754Y240190D01*
X614641Y240176D01*
X614528Y240166D01*
X614415Y240160D01*
X614302Y240158D01*
X611056Y240158D01*
X611056Y251842D01*
X614302Y251842D01*
X614403Y251840D01*
X614503Y251834D01*
X614603Y251824D01*
X614703Y251811D01*
X614802Y251793D01*
X614901Y251772D01*
X614998Y251747D01*
X615095Y251718D01*
X615190Y251685D01*
X615284Y251649D01*
X615376Y251609D01*
X615467Y251566D01*
X615556Y251519D01*
X615643Y251469D01*
X615729Y251415D01*
X615812Y251358D01*
X615892Y251298D01*
X615971Y251235D01*
X616047Y251168D01*
X616120Y251099D01*
X616190Y251027D01*
X616258Y250953D01*
X616323Y250876D01*
X616384Y250796D01*
X616443Y250714D01*
X616498Y250630D01*
X616550Y250544D01*
X616599Y250456D01*
X616644Y250366D01*
X616686Y250274D01*
X616724Y250181D01*
X616758Y250086D01*
X616789Y249991D01*
X616816Y249894D01*
X616839Y249796D01*
X616859Y249697D01*
X616874Y249597D01*
X616886Y249497D01*
X616894Y249397D01*
X616898Y249296D01*
X616898Y249196D01*
X616894Y249095D01*
X616886Y248995D01*
X616874Y248895D01*
X616859Y248795D01*
X616839Y248696D01*
X616816Y248598D01*
X616789Y248501D01*
X616758Y248406D01*
X616724Y248311D01*
X616686Y248218D01*
X616644Y248126D01*
X616599Y248036D01*
X616550Y247948D01*
X616498Y247862D01*
X616443Y247778D01*
X616384Y247696D01*
X616323Y247616D01*
X616258Y247539D01*
X616190Y247465D01*
X616120Y247393D01*
X616047Y247324D01*
X615971Y247257D01*
X615892Y247194D01*
X615812Y247134D01*
X615729Y247077D01*
X615643Y247023D01*
X615556Y246973D01*
X615467Y246926D01*
X615376Y246883D01*
X615284Y246843D01*
X615190Y246807D01*
X615095Y246774D01*
X614998Y246745D01*
X614901Y246720D01*
X614802Y246699D01*
X614703Y246681D01*
X614603Y246668D01*
X614503Y246658D01*
X614403Y246652D01*
X614302Y246650D01*
X623771Y240158D02*
X627016Y240158D01*
X623771Y240158D02*
X623684Y240160D01*
X623596Y240166D01*
X623510Y240176D01*
X623423Y240189D01*
X623338Y240207D01*
X623253Y240228D01*
X623169Y240253D01*
X623087Y240282D01*
X623006Y240315D01*
X622926Y240351D01*
X622848Y240390D01*
X622772Y240434D01*
X622698Y240480D01*
X622627Y240530D01*
X622557Y240583D01*
X622490Y240639D01*
X622426Y240698D01*
X622364Y240760D01*
X622305Y240824D01*
X622249Y240891D01*
X622196Y240961D01*
X622146Y241032D01*
X622100Y241106D01*
X622056Y241182D01*
X622017Y241260D01*
X621981Y241340D01*
X621948Y241421D01*
X621919Y241503D01*
X621894Y241587D01*
X621873Y241672D01*
X621855Y241757D01*
X621842Y241844D01*
X621832Y241930D01*
X621826Y242018D01*
X621824Y242105D01*
X621823Y242105D02*
X621823Y245351D01*
X621824Y245351D02*
X621826Y245452D01*
X621832Y245552D01*
X621842Y245652D01*
X621855Y245752D01*
X621873Y245851D01*
X621894Y245950D01*
X621919Y246047D01*
X621948Y246144D01*
X621981Y246239D01*
X622017Y246333D01*
X622057Y246425D01*
X622100Y246516D01*
X622147Y246605D01*
X622197Y246692D01*
X622251Y246778D01*
X622308Y246861D01*
X622368Y246941D01*
X622431Y247020D01*
X622498Y247096D01*
X622567Y247169D01*
X622639Y247239D01*
X622713Y247307D01*
X622790Y247372D01*
X622870Y247433D01*
X622952Y247492D01*
X623036Y247547D01*
X623122Y247599D01*
X623210Y247648D01*
X623300Y247693D01*
X623392Y247735D01*
X623485Y247773D01*
X623580Y247807D01*
X623675Y247838D01*
X623772Y247865D01*
X623870Y247888D01*
X623969Y247908D01*
X624069Y247923D01*
X624169Y247935D01*
X624269Y247943D01*
X624370Y247947D01*
X624470Y247947D01*
X624571Y247943D01*
X624671Y247935D01*
X624771Y247923D01*
X624871Y247908D01*
X624970Y247888D01*
X625068Y247865D01*
X625165Y247838D01*
X625260Y247807D01*
X625355Y247773D01*
X625448Y247735D01*
X625540Y247693D01*
X625630Y247648D01*
X625718Y247599D01*
X625804Y247547D01*
X625888Y247492D01*
X625970Y247433D01*
X626050Y247372D01*
X626127Y247307D01*
X626201Y247239D01*
X626273Y247169D01*
X626342Y247096D01*
X626409Y247020D01*
X626472Y246941D01*
X626532Y246861D01*
X626589Y246778D01*
X626643Y246692D01*
X626693Y246605D01*
X626740Y246516D01*
X626783Y246425D01*
X626823Y246333D01*
X626859Y246239D01*
X626892Y246144D01*
X626921Y246047D01*
X626946Y245950D01*
X626967Y245851D01*
X626985Y245752D01*
X626998Y245652D01*
X627008Y245552D01*
X627014Y245452D01*
X627016Y245351D01*
X627016Y244053D01*
X621823Y244053D01*
X633942Y244702D02*
X636863Y244702D01*
X633942Y244702D02*
X633848Y244700D01*
X633754Y244694D01*
X633661Y244685D01*
X633568Y244671D01*
X633476Y244654D01*
X633384Y244632D01*
X633294Y244608D01*
X633204Y244579D01*
X633116Y244547D01*
X633029Y244511D01*
X632944Y244471D01*
X632861Y244428D01*
X632779Y244382D01*
X632699Y244332D01*
X632622Y244279D01*
X632547Y244223D01*
X632474Y244164D01*
X632403Y244102D01*
X632335Y244037D01*
X632270Y243969D01*
X632208Y243898D01*
X632149Y243825D01*
X632093Y243750D01*
X632040Y243673D01*
X631990Y243593D01*
X631944Y243511D01*
X631901Y243428D01*
X631861Y243343D01*
X631825Y243256D01*
X631793Y243168D01*
X631764Y243078D01*
X631740Y242988D01*
X631718Y242896D01*
X631701Y242804D01*
X631687Y242711D01*
X631678Y242618D01*
X631672Y242524D01*
X631670Y242430D01*
X631672Y242336D01*
X631678Y242242D01*
X631687Y242149D01*
X631701Y242056D01*
X631718Y241964D01*
X631740Y241872D01*
X631764Y241782D01*
X631793Y241692D01*
X631825Y241604D01*
X631861Y241517D01*
X631901Y241432D01*
X631944Y241349D01*
X631990Y241267D01*
X632040Y241187D01*
X632093Y241110D01*
X632149Y241035D01*
X632208Y240962D01*
X632270Y240891D01*
X632335Y240823D01*
X632403Y240758D01*
X632474Y240696D01*
X632547Y240637D01*
X632622Y240581D01*
X632699Y240528D01*
X632779Y240478D01*
X632861Y240432D01*
X632944Y240389D01*
X633029Y240349D01*
X633116Y240313D01*
X633204Y240281D01*
X633294Y240252D01*
X633384Y240228D01*
X633476Y240206D01*
X633568Y240189D01*
X633661Y240175D01*
X633754Y240166D01*
X633848Y240160D01*
X633942Y240158D01*
X636863Y240158D01*
X636863Y246000D01*
X636861Y246087D01*
X636855Y246175D01*
X636845Y246261D01*
X636832Y246348D01*
X636814Y246433D01*
X636793Y246518D01*
X636768Y246602D01*
X636739Y246684D01*
X636706Y246765D01*
X636670Y246845D01*
X636631Y246923D01*
X636587Y246999D01*
X636541Y247073D01*
X636491Y247144D01*
X636438Y247214D01*
X636382Y247281D01*
X636323Y247345D01*
X636261Y247407D01*
X636197Y247466D01*
X636130Y247522D01*
X636060Y247575D01*
X635989Y247625D01*
X635915Y247671D01*
X635839Y247715D01*
X635761Y247754D01*
X635681Y247790D01*
X635600Y247823D01*
X635518Y247852D01*
X635434Y247877D01*
X635349Y247898D01*
X635264Y247916D01*
X635177Y247929D01*
X635091Y247939D01*
X635003Y247945D01*
X634916Y247947D01*
X632319Y247947D01*
X643905Y240158D02*
X647150Y240158D01*
X643905Y240158D02*
X643818Y240160D01*
X643730Y240166D01*
X643644Y240176D01*
X643557Y240189D01*
X643472Y240207D01*
X643387Y240228D01*
X643303Y240253D01*
X643221Y240282D01*
X643140Y240315D01*
X643060Y240351D01*
X642982Y240390D01*
X642906Y240434D01*
X642832Y240480D01*
X642761Y240530D01*
X642691Y240583D01*
X642624Y240639D01*
X642560Y240698D01*
X642498Y240760D01*
X642439Y240824D01*
X642383Y240891D01*
X642330Y240961D01*
X642280Y241032D01*
X642234Y241106D01*
X642190Y241182D01*
X642151Y241260D01*
X642115Y241340D01*
X642082Y241421D01*
X642053Y241503D01*
X642028Y241587D01*
X642007Y241672D01*
X641989Y241757D01*
X641976Y241844D01*
X641966Y241930D01*
X641960Y242018D01*
X641958Y242105D01*
X641957Y242105D02*
X641957Y246000D01*
X641958Y246000D02*
X641960Y246087D01*
X641966Y246175D01*
X641976Y246261D01*
X641989Y246348D01*
X642007Y246433D01*
X642028Y246518D01*
X642053Y246602D01*
X642082Y246684D01*
X642115Y246765D01*
X642151Y246845D01*
X642190Y246923D01*
X642234Y246999D01*
X642280Y247073D01*
X642330Y247144D01*
X642383Y247214D01*
X642439Y247281D01*
X642498Y247345D01*
X642560Y247407D01*
X642624Y247466D01*
X642691Y247522D01*
X642761Y247575D01*
X642832Y247625D01*
X642906Y247671D01*
X642982Y247715D01*
X643060Y247754D01*
X643140Y247790D01*
X643221Y247823D01*
X643303Y247852D01*
X643387Y247877D01*
X643472Y247898D01*
X643557Y247916D01*
X643644Y247929D01*
X643730Y247939D01*
X643818Y247945D01*
X643905Y247947D01*
X647150Y247947D01*
X647150Y238211D01*
X647148Y238124D01*
X647142Y238036D01*
X647132Y237950D01*
X647119Y237863D01*
X647101Y237778D01*
X647080Y237693D01*
X647055Y237609D01*
X647026Y237527D01*
X646993Y237446D01*
X646957Y237366D01*
X646918Y237288D01*
X646874Y237212D01*
X646828Y237138D01*
X646778Y237067D01*
X646725Y236997D01*
X646669Y236930D01*
X646610Y236866D01*
X646549Y236804D01*
X646484Y236745D01*
X646417Y236689D01*
X646347Y236636D01*
X646276Y236586D01*
X646202Y236540D01*
X646126Y236496D01*
X646048Y236457D01*
X645968Y236421D01*
X645887Y236388D01*
X645805Y236359D01*
X645721Y236334D01*
X645636Y236313D01*
X645551Y236295D01*
X645464Y236282D01*
X645378Y236272D01*
X645290Y236266D01*
X645203Y236264D01*
X645203Y236263D02*
X642606Y236263D01*
X652453Y242105D02*
X652453Y251842D01*
X652453Y242105D02*
X652455Y242018D01*
X652461Y241930D01*
X652471Y241844D01*
X652484Y241757D01*
X652502Y241672D01*
X652523Y241587D01*
X652548Y241503D01*
X652577Y241421D01*
X652610Y241340D01*
X652646Y241260D01*
X652685Y241182D01*
X652729Y241106D01*
X652775Y241032D01*
X652825Y240961D01*
X652878Y240891D01*
X652934Y240824D01*
X652993Y240760D01*
X653055Y240698D01*
X653119Y240639D01*
X653186Y240583D01*
X653256Y240530D01*
X653327Y240480D01*
X653401Y240434D01*
X653477Y240390D01*
X653555Y240351D01*
X653635Y240315D01*
X653716Y240282D01*
X653798Y240253D01*
X653882Y240228D01*
X653967Y240207D01*
X654052Y240189D01*
X654139Y240176D01*
X654225Y240166D01*
X654313Y240160D01*
X654400Y240158D01*
X660346Y240158D02*
X663592Y240158D01*
X660346Y240158D02*
X660259Y240160D01*
X660171Y240166D01*
X660085Y240176D01*
X659998Y240189D01*
X659913Y240207D01*
X659828Y240228D01*
X659744Y240253D01*
X659662Y240282D01*
X659581Y240315D01*
X659501Y240351D01*
X659423Y240390D01*
X659347Y240434D01*
X659273Y240480D01*
X659202Y240530D01*
X659132Y240583D01*
X659065Y240639D01*
X659001Y240698D01*
X658939Y240760D01*
X658880Y240824D01*
X658824Y240891D01*
X658771Y240961D01*
X658721Y241032D01*
X658675Y241106D01*
X658631Y241182D01*
X658592Y241260D01*
X658556Y241340D01*
X658523Y241421D01*
X658494Y241503D01*
X658469Y241587D01*
X658448Y241672D01*
X658430Y241757D01*
X658417Y241844D01*
X658407Y241930D01*
X658401Y242018D01*
X658399Y242105D01*
X658399Y245351D01*
X658400Y245351D02*
X658402Y245452D01*
X658408Y245552D01*
X658418Y245652D01*
X658431Y245752D01*
X658449Y245851D01*
X658470Y245950D01*
X658495Y246047D01*
X658524Y246144D01*
X658557Y246239D01*
X658593Y246333D01*
X658633Y246425D01*
X658676Y246516D01*
X658723Y246605D01*
X658773Y246692D01*
X658827Y246778D01*
X658884Y246861D01*
X658944Y246941D01*
X659007Y247020D01*
X659074Y247096D01*
X659143Y247169D01*
X659215Y247239D01*
X659289Y247307D01*
X659366Y247372D01*
X659446Y247433D01*
X659528Y247492D01*
X659612Y247547D01*
X659698Y247599D01*
X659786Y247648D01*
X659876Y247693D01*
X659968Y247735D01*
X660061Y247773D01*
X660156Y247807D01*
X660251Y247838D01*
X660348Y247865D01*
X660446Y247888D01*
X660545Y247908D01*
X660645Y247923D01*
X660745Y247935D01*
X660845Y247943D01*
X660946Y247947D01*
X661046Y247947D01*
X661147Y247943D01*
X661247Y247935D01*
X661347Y247923D01*
X661447Y247908D01*
X661546Y247888D01*
X661644Y247865D01*
X661741Y247838D01*
X661836Y247807D01*
X661931Y247773D01*
X662024Y247735D01*
X662116Y247693D01*
X662206Y247648D01*
X662294Y247599D01*
X662380Y247547D01*
X662464Y247492D01*
X662546Y247433D01*
X662626Y247372D01*
X662703Y247307D01*
X662777Y247239D01*
X662849Y247169D01*
X662918Y247096D01*
X662985Y247020D01*
X663048Y246941D01*
X663108Y246861D01*
X663165Y246778D01*
X663219Y246692D01*
X663269Y246605D01*
X663316Y246516D01*
X663359Y246425D01*
X663399Y246333D01*
X663435Y246239D01*
X663468Y246144D01*
X663497Y246047D01*
X663522Y245950D01*
X663543Y245851D01*
X663561Y245752D01*
X663574Y245652D01*
X663584Y245552D01*
X663590Y245452D01*
X663592Y245351D01*
X663592Y244053D01*
X658399Y244053D01*
D10*
X210710Y397400D02*
X104710Y397400D01*
X210710Y397400D02*
X210710Y320400D01*
X104710Y320400D01*
X104710Y396400D01*
X540950Y41750D02*
X670490Y41750D01*
X670490Y2380D01*
X540950Y2380D01*
X540950Y41750D01*
M02*
