G04 EAGLE Gerber RS-274X export*
G75*
%MOMM*%
%FSLAX34Y34*%
%LPD*%
%INSoldermask Bottom*%
%IPPOS*%
%AMOC8*
5,1,8,0,0,1.08239X$1,22.5*%
G01*
%ADD10C,1.203200*%
%ADD11R,1.727200X1.727200*%
%ADD12P,1.869504X8X202.500000*%


D10*
X20000Y490000D03*
X860000Y30000D03*
D11*
X820900Y464700D03*
D12*
X820900Y439300D03*
X795500Y464700D03*
X795500Y439300D03*
X770100Y464700D03*
X770100Y439300D03*
X744700Y464700D03*
X744700Y439300D03*
X719300Y464700D03*
X719300Y439300D03*
X693900Y464700D03*
X693900Y439300D03*
X668500Y464700D03*
X668500Y439300D03*
X643100Y464700D03*
X643100Y439300D03*
X617700Y464700D03*
X617700Y439300D03*
X592300Y464700D03*
X592300Y439300D03*
X566900Y464700D03*
X566900Y439300D03*
X541500Y464700D03*
X541500Y439300D03*
X516100Y464700D03*
X516100Y439300D03*
X490700Y464700D03*
X490700Y439300D03*
X465300Y464700D03*
X465300Y439300D03*
X439900Y464700D03*
X439900Y439300D03*
X414500Y464700D03*
X414500Y439300D03*
X389100Y464700D03*
X389100Y439300D03*
D11*
X820900Y210700D03*
D12*
X820900Y185300D03*
X795500Y210700D03*
X795500Y185300D03*
X770100Y210700D03*
X770100Y185300D03*
X744700Y210700D03*
X744700Y185300D03*
X719300Y210700D03*
X719300Y185300D03*
X693900Y210700D03*
X693900Y185300D03*
X668500Y210700D03*
X668500Y185300D03*
X643100Y210700D03*
X643100Y185300D03*
X617700Y210700D03*
X617700Y185300D03*
X592300Y210700D03*
X592300Y185300D03*
X566900Y210700D03*
X566900Y185300D03*
X541500Y210700D03*
X541500Y185300D03*
X516100Y210700D03*
X516100Y185300D03*
X490700Y210700D03*
X490700Y185300D03*
X465300Y210700D03*
X465300Y185300D03*
X439900Y210700D03*
X439900Y185300D03*
X414500Y210700D03*
X414500Y185300D03*
X389100Y210700D03*
X389100Y185300D03*
M02*
