G04 EAGLE Gerber RS-274X export*
G75*
%MOMM*%
%FSLAX34Y34*%
%LPD*%
%INSoldermask Top*%
%IPPOS*%
%AMOC8*
5,1,8,0,0,1.08239X$1,22.5*%
G01*
%ADD10C,1.203200*%
%ADD11R,1.727200X1.727200*%
%ADD12P,1.869504X8X202.500000*%
%ADD13R,1.453200X2.203200*%
%ADD14R,2.853200X2.853200*%
%ADD15C,0.609600*%
%ADD16C,1.219200*%


D10*
X20000Y490000D03*
X860000Y30000D03*
D11*
X820900Y464700D03*
D12*
X820900Y439300D03*
X795500Y464700D03*
X795500Y439300D03*
X770100Y464700D03*
X770100Y439300D03*
X744700Y464700D03*
X744700Y439300D03*
X719300Y464700D03*
X719300Y439300D03*
X693900Y464700D03*
X693900Y439300D03*
X668500Y464700D03*
X668500Y439300D03*
X643100Y464700D03*
X643100Y439300D03*
X617700Y464700D03*
X617700Y439300D03*
X592300Y464700D03*
X592300Y439300D03*
X566900Y464700D03*
X566900Y439300D03*
X541500Y464700D03*
X541500Y439300D03*
X516100Y464700D03*
X516100Y439300D03*
X490700Y464700D03*
X490700Y439300D03*
X465300Y464700D03*
X465300Y439300D03*
X439900Y464700D03*
X439900Y439300D03*
X414500Y464700D03*
X414500Y439300D03*
X389100Y464700D03*
X389100Y439300D03*
D11*
X820900Y210700D03*
D12*
X820900Y185300D03*
X795500Y210700D03*
X795500Y185300D03*
X770100Y210700D03*
X770100Y185300D03*
X744700Y210700D03*
X744700Y185300D03*
X719300Y210700D03*
X719300Y185300D03*
X693900Y210700D03*
X693900Y185300D03*
X668500Y210700D03*
X668500Y185300D03*
X643100Y210700D03*
X643100Y185300D03*
X617700Y210700D03*
X617700Y185300D03*
X592300Y210700D03*
X592300Y185300D03*
X566900Y210700D03*
X566900Y185300D03*
X541500Y210700D03*
X541500Y185300D03*
X516100Y210700D03*
X516100Y185300D03*
X490700Y210700D03*
X490700Y185300D03*
X465300Y210700D03*
X465300Y185300D03*
X439900Y210700D03*
X439900Y185300D03*
X414500Y210700D03*
X414500Y185300D03*
X389100Y210700D03*
X389100Y185300D03*
D13*
X128310Y385200D03*
X149310Y385500D03*
X167910Y385200D03*
X188210Y385200D03*
D14*
X572700Y22700D03*
X605720Y22700D03*
X638740Y22700D03*
D15*
X332380Y140000D02*
X332382Y140187D01*
X332389Y140374D01*
X332401Y140561D01*
X332417Y140747D01*
X332437Y140933D01*
X332462Y141118D01*
X332492Y141303D01*
X332526Y141487D01*
X332565Y141670D01*
X332608Y141852D01*
X332656Y142032D01*
X332708Y142212D01*
X332765Y142390D01*
X332825Y142567D01*
X332891Y142742D01*
X332960Y142916D01*
X333034Y143088D01*
X333112Y143258D01*
X333194Y143426D01*
X333280Y143592D01*
X333370Y143756D01*
X333464Y143917D01*
X333562Y144077D01*
X333664Y144233D01*
X333770Y144388D01*
X333880Y144539D01*
X333993Y144688D01*
X334110Y144834D01*
X334230Y144977D01*
X334354Y145117D01*
X334481Y145254D01*
X334612Y145388D01*
X334746Y145519D01*
X334883Y145646D01*
X335023Y145770D01*
X335166Y145890D01*
X335312Y146007D01*
X335461Y146120D01*
X335612Y146230D01*
X335767Y146336D01*
X335923Y146438D01*
X336083Y146536D01*
X336244Y146630D01*
X336408Y146720D01*
X336574Y146806D01*
X336742Y146888D01*
X336912Y146966D01*
X337084Y147040D01*
X337258Y147109D01*
X337433Y147175D01*
X337610Y147235D01*
X337788Y147292D01*
X337968Y147344D01*
X338148Y147392D01*
X338330Y147435D01*
X338513Y147474D01*
X338697Y147508D01*
X338882Y147538D01*
X339067Y147563D01*
X339253Y147583D01*
X339439Y147599D01*
X339626Y147611D01*
X339813Y147618D01*
X340000Y147620D01*
X340187Y147618D01*
X340374Y147611D01*
X340561Y147599D01*
X340747Y147583D01*
X340933Y147563D01*
X341118Y147538D01*
X341303Y147508D01*
X341487Y147474D01*
X341670Y147435D01*
X341852Y147392D01*
X342032Y147344D01*
X342212Y147292D01*
X342390Y147235D01*
X342567Y147175D01*
X342742Y147109D01*
X342916Y147040D01*
X343088Y146966D01*
X343258Y146888D01*
X343426Y146806D01*
X343592Y146720D01*
X343756Y146630D01*
X343917Y146536D01*
X344077Y146438D01*
X344233Y146336D01*
X344388Y146230D01*
X344539Y146120D01*
X344688Y146007D01*
X344834Y145890D01*
X344977Y145770D01*
X345117Y145646D01*
X345254Y145519D01*
X345388Y145388D01*
X345519Y145254D01*
X345646Y145117D01*
X345770Y144977D01*
X345890Y144834D01*
X346007Y144688D01*
X346120Y144539D01*
X346230Y144388D01*
X346336Y144233D01*
X346438Y144077D01*
X346536Y143917D01*
X346630Y143756D01*
X346720Y143592D01*
X346806Y143426D01*
X346888Y143258D01*
X346966Y143088D01*
X347040Y142916D01*
X347109Y142742D01*
X347175Y142567D01*
X347235Y142390D01*
X347292Y142212D01*
X347344Y142032D01*
X347392Y141852D01*
X347435Y141670D01*
X347474Y141487D01*
X347508Y141303D01*
X347538Y141118D01*
X347563Y140933D01*
X347583Y140747D01*
X347599Y140561D01*
X347611Y140374D01*
X347618Y140187D01*
X347620Y140000D01*
X347618Y139813D01*
X347611Y139626D01*
X347599Y139439D01*
X347583Y139253D01*
X347563Y139067D01*
X347538Y138882D01*
X347508Y138697D01*
X347474Y138513D01*
X347435Y138330D01*
X347392Y138148D01*
X347344Y137968D01*
X347292Y137788D01*
X347235Y137610D01*
X347175Y137433D01*
X347109Y137258D01*
X347040Y137084D01*
X346966Y136912D01*
X346888Y136742D01*
X346806Y136574D01*
X346720Y136408D01*
X346630Y136244D01*
X346536Y136083D01*
X346438Y135923D01*
X346336Y135767D01*
X346230Y135612D01*
X346120Y135461D01*
X346007Y135312D01*
X345890Y135166D01*
X345770Y135023D01*
X345646Y134883D01*
X345519Y134746D01*
X345388Y134612D01*
X345254Y134481D01*
X345117Y134354D01*
X344977Y134230D01*
X344834Y134110D01*
X344688Y133993D01*
X344539Y133880D01*
X344388Y133770D01*
X344233Y133664D01*
X344077Y133562D01*
X343917Y133464D01*
X343756Y133370D01*
X343592Y133280D01*
X343426Y133194D01*
X343258Y133112D01*
X343088Y133034D01*
X342916Y132960D01*
X342742Y132891D01*
X342567Y132825D01*
X342390Y132765D01*
X342212Y132708D01*
X342032Y132656D01*
X341852Y132608D01*
X341670Y132565D01*
X341487Y132526D01*
X341303Y132492D01*
X341118Y132462D01*
X340933Y132437D01*
X340747Y132417D01*
X340561Y132401D01*
X340374Y132389D01*
X340187Y132382D01*
X340000Y132380D01*
X339813Y132382D01*
X339626Y132389D01*
X339439Y132401D01*
X339253Y132417D01*
X339067Y132437D01*
X338882Y132462D01*
X338697Y132492D01*
X338513Y132526D01*
X338330Y132565D01*
X338148Y132608D01*
X337968Y132656D01*
X337788Y132708D01*
X337610Y132765D01*
X337433Y132825D01*
X337258Y132891D01*
X337084Y132960D01*
X336912Y133034D01*
X336742Y133112D01*
X336574Y133194D01*
X336408Y133280D01*
X336244Y133370D01*
X336083Y133464D01*
X335923Y133562D01*
X335767Y133664D01*
X335612Y133770D01*
X335461Y133880D01*
X335312Y133993D01*
X335166Y134110D01*
X335023Y134230D01*
X334883Y134354D01*
X334746Y134481D01*
X334612Y134612D01*
X334481Y134746D01*
X334354Y134883D01*
X334230Y135023D01*
X334110Y135166D01*
X333993Y135312D01*
X333880Y135461D01*
X333770Y135612D01*
X333664Y135767D01*
X333562Y135923D01*
X333464Y136083D01*
X333370Y136244D01*
X333280Y136408D01*
X333194Y136574D01*
X333112Y136742D01*
X333034Y136912D01*
X332960Y137084D01*
X332891Y137258D01*
X332825Y137433D01*
X332765Y137610D01*
X332708Y137788D01*
X332656Y137968D01*
X332608Y138148D01*
X332565Y138330D01*
X332526Y138513D01*
X332492Y138697D01*
X332462Y138882D01*
X332437Y139067D01*
X332417Y139253D01*
X332401Y139439D01*
X332389Y139626D01*
X332382Y139813D01*
X332380Y140000D01*
D16*
X340000Y140000D03*
D15*
X332380Y20000D02*
X332382Y20187D01*
X332389Y20374D01*
X332401Y20561D01*
X332417Y20747D01*
X332437Y20933D01*
X332462Y21118D01*
X332492Y21303D01*
X332526Y21487D01*
X332565Y21670D01*
X332608Y21852D01*
X332656Y22032D01*
X332708Y22212D01*
X332765Y22390D01*
X332825Y22567D01*
X332891Y22742D01*
X332960Y22916D01*
X333034Y23088D01*
X333112Y23258D01*
X333194Y23426D01*
X333280Y23592D01*
X333370Y23756D01*
X333464Y23917D01*
X333562Y24077D01*
X333664Y24233D01*
X333770Y24388D01*
X333880Y24539D01*
X333993Y24688D01*
X334110Y24834D01*
X334230Y24977D01*
X334354Y25117D01*
X334481Y25254D01*
X334612Y25388D01*
X334746Y25519D01*
X334883Y25646D01*
X335023Y25770D01*
X335166Y25890D01*
X335312Y26007D01*
X335461Y26120D01*
X335612Y26230D01*
X335767Y26336D01*
X335923Y26438D01*
X336083Y26536D01*
X336244Y26630D01*
X336408Y26720D01*
X336574Y26806D01*
X336742Y26888D01*
X336912Y26966D01*
X337084Y27040D01*
X337258Y27109D01*
X337433Y27175D01*
X337610Y27235D01*
X337788Y27292D01*
X337968Y27344D01*
X338148Y27392D01*
X338330Y27435D01*
X338513Y27474D01*
X338697Y27508D01*
X338882Y27538D01*
X339067Y27563D01*
X339253Y27583D01*
X339439Y27599D01*
X339626Y27611D01*
X339813Y27618D01*
X340000Y27620D01*
X340187Y27618D01*
X340374Y27611D01*
X340561Y27599D01*
X340747Y27583D01*
X340933Y27563D01*
X341118Y27538D01*
X341303Y27508D01*
X341487Y27474D01*
X341670Y27435D01*
X341852Y27392D01*
X342032Y27344D01*
X342212Y27292D01*
X342390Y27235D01*
X342567Y27175D01*
X342742Y27109D01*
X342916Y27040D01*
X343088Y26966D01*
X343258Y26888D01*
X343426Y26806D01*
X343592Y26720D01*
X343756Y26630D01*
X343917Y26536D01*
X344077Y26438D01*
X344233Y26336D01*
X344388Y26230D01*
X344539Y26120D01*
X344688Y26007D01*
X344834Y25890D01*
X344977Y25770D01*
X345117Y25646D01*
X345254Y25519D01*
X345388Y25388D01*
X345519Y25254D01*
X345646Y25117D01*
X345770Y24977D01*
X345890Y24834D01*
X346007Y24688D01*
X346120Y24539D01*
X346230Y24388D01*
X346336Y24233D01*
X346438Y24077D01*
X346536Y23917D01*
X346630Y23756D01*
X346720Y23592D01*
X346806Y23426D01*
X346888Y23258D01*
X346966Y23088D01*
X347040Y22916D01*
X347109Y22742D01*
X347175Y22567D01*
X347235Y22390D01*
X347292Y22212D01*
X347344Y22032D01*
X347392Y21852D01*
X347435Y21670D01*
X347474Y21487D01*
X347508Y21303D01*
X347538Y21118D01*
X347563Y20933D01*
X347583Y20747D01*
X347599Y20561D01*
X347611Y20374D01*
X347618Y20187D01*
X347620Y20000D01*
X347618Y19813D01*
X347611Y19626D01*
X347599Y19439D01*
X347583Y19253D01*
X347563Y19067D01*
X347538Y18882D01*
X347508Y18697D01*
X347474Y18513D01*
X347435Y18330D01*
X347392Y18148D01*
X347344Y17968D01*
X347292Y17788D01*
X347235Y17610D01*
X347175Y17433D01*
X347109Y17258D01*
X347040Y17084D01*
X346966Y16912D01*
X346888Y16742D01*
X346806Y16574D01*
X346720Y16408D01*
X346630Y16244D01*
X346536Y16083D01*
X346438Y15923D01*
X346336Y15767D01*
X346230Y15612D01*
X346120Y15461D01*
X346007Y15312D01*
X345890Y15166D01*
X345770Y15023D01*
X345646Y14883D01*
X345519Y14746D01*
X345388Y14612D01*
X345254Y14481D01*
X345117Y14354D01*
X344977Y14230D01*
X344834Y14110D01*
X344688Y13993D01*
X344539Y13880D01*
X344388Y13770D01*
X344233Y13664D01*
X344077Y13562D01*
X343917Y13464D01*
X343756Y13370D01*
X343592Y13280D01*
X343426Y13194D01*
X343258Y13112D01*
X343088Y13034D01*
X342916Y12960D01*
X342742Y12891D01*
X342567Y12825D01*
X342390Y12765D01*
X342212Y12708D01*
X342032Y12656D01*
X341852Y12608D01*
X341670Y12565D01*
X341487Y12526D01*
X341303Y12492D01*
X341118Y12462D01*
X340933Y12437D01*
X340747Y12417D01*
X340561Y12401D01*
X340374Y12389D01*
X340187Y12382D01*
X340000Y12380D01*
X339813Y12382D01*
X339626Y12389D01*
X339439Y12401D01*
X339253Y12417D01*
X339067Y12437D01*
X338882Y12462D01*
X338697Y12492D01*
X338513Y12526D01*
X338330Y12565D01*
X338148Y12608D01*
X337968Y12656D01*
X337788Y12708D01*
X337610Y12765D01*
X337433Y12825D01*
X337258Y12891D01*
X337084Y12960D01*
X336912Y13034D01*
X336742Y13112D01*
X336574Y13194D01*
X336408Y13280D01*
X336244Y13370D01*
X336083Y13464D01*
X335923Y13562D01*
X335767Y13664D01*
X335612Y13770D01*
X335461Y13880D01*
X335312Y13993D01*
X335166Y14110D01*
X335023Y14230D01*
X334883Y14354D01*
X334746Y14481D01*
X334612Y14612D01*
X334481Y14746D01*
X334354Y14883D01*
X334230Y15023D01*
X334110Y15166D01*
X333993Y15312D01*
X333880Y15461D01*
X333770Y15612D01*
X333664Y15767D01*
X333562Y15923D01*
X333464Y16083D01*
X333370Y16244D01*
X333280Y16408D01*
X333194Y16574D01*
X333112Y16742D01*
X333034Y16912D01*
X332960Y17084D01*
X332891Y17258D01*
X332825Y17433D01*
X332765Y17610D01*
X332708Y17788D01*
X332656Y17968D01*
X332608Y18148D01*
X332565Y18330D01*
X332526Y18513D01*
X332492Y18697D01*
X332462Y18882D01*
X332437Y19067D01*
X332417Y19253D01*
X332401Y19439D01*
X332389Y19626D01*
X332382Y19813D01*
X332380Y20000D01*
D16*
X340000Y20000D03*
D15*
X822380Y20000D02*
X822382Y20187D01*
X822389Y20374D01*
X822401Y20561D01*
X822417Y20747D01*
X822437Y20933D01*
X822462Y21118D01*
X822492Y21303D01*
X822526Y21487D01*
X822565Y21670D01*
X822608Y21852D01*
X822656Y22032D01*
X822708Y22212D01*
X822765Y22390D01*
X822825Y22567D01*
X822891Y22742D01*
X822960Y22916D01*
X823034Y23088D01*
X823112Y23258D01*
X823194Y23426D01*
X823280Y23592D01*
X823370Y23756D01*
X823464Y23917D01*
X823562Y24077D01*
X823664Y24233D01*
X823770Y24388D01*
X823880Y24539D01*
X823993Y24688D01*
X824110Y24834D01*
X824230Y24977D01*
X824354Y25117D01*
X824481Y25254D01*
X824612Y25388D01*
X824746Y25519D01*
X824883Y25646D01*
X825023Y25770D01*
X825166Y25890D01*
X825312Y26007D01*
X825461Y26120D01*
X825612Y26230D01*
X825767Y26336D01*
X825923Y26438D01*
X826083Y26536D01*
X826244Y26630D01*
X826408Y26720D01*
X826574Y26806D01*
X826742Y26888D01*
X826912Y26966D01*
X827084Y27040D01*
X827258Y27109D01*
X827433Y27175D01*
X827610Y27235D01*
X827788Y27292D01*
X827968Y27344D01*
X828148Y27392D01*
X828330Y27435D01*
X828513Y27474D01*
X828697Y27508D01*
X828882Y27538D01*
X829067Y27563D01*
X829253Y27583D01*
X829439Y27599D01*
X829626Y27611D01*
X829813Y27618D01*
X830000Y27620D01*
X830187Y27618D01*
X830374Y27611D01*
X830561Y27599D01*
X830747Y27583D01*
X830933Y27563D01*
X831118Y27538D01*
X831303Y27508D01*
X831487Y27474D01*
X831670Y27435D01*
X831852Y27392D01*
X832032Y27344D01*
X832212Y27292D01*
X832390Y27235D01*
X832567Y27175D01*
X832742Y27109D01*
X832916Y27040D01*
X833088Y26966D01*
X833258Y26888D01*
X833426Y26806D01*
X833592Y26720D01*
X833756Y26630D01*
X833917Y26536D01*
X834077Y26438D01*
X834233Y26336D01*
X834388Y26230D01*
X834539Y26120D01*
X834688Y26007D01*
X834834Y25890D01*
X834977Y25770D01*
X835117Y25646D01*
X835254Y25519D01*
X835388Y25388D01*
X835519Y25254D01*
X835646Y25117D01*
X835770Y24977D01*
X835890Y24834D01*
X836007Y24688D01*
X836120Y24539D01*
X836230Y24388D01*
X836336Y24233D01*
X836438Y24077D01*
X836536Y23917D01*
X836630Y23756D01*
X836720Y23592D01*
X836806Y23426D01*
X836888Y23258D01*
X836966Y23088D01*
X837040Y22916D01*
X837109Y22742D01*
X837175Y22567D01*
X837235Y22390D01*
X837292Y22212D01*
X837344Y22032D01*
X837392Y21852D01*
X837435Y21670D01*
X837474Y21487D01*
X837508Y21303D01*
X837538Y21118D01*
X837563Y20933D01*
X837583Y20747D01*
X837599Y20561D01*
X837611Y20374D01*
X837618Y20187D01*
X837620Y20000D01*
X837618Y19813D01*
X837611Y19626D01*
X837599Y19439D01*
X837583Y19253D01*
X837563Y19067D01*
X837538Y18882D01*
X837508Y18697D01*
X837474Y18513D01*
X837435Y18330D01*
X837392Y18148D01*
X837344Y17968D01*
X837292Y17788D01*
X837235Y17610D01*
X837175Y17433D01*
X837109Y17258D01*
X837040Y17084D01*
X836966Y16912D01*
X836888Y16742D01*
X836806Y16574D01*
X836720Y16408D01*
X836630Y16244D01*
X836536Y16083D01*
X836438Y15923D01*
X836336Y15767D01*
X836230Y15612D01*
X836120Y15461D01*
X836007Y15312D01*
X835890Y15166D01*
X835770Y15023D01*
X835646Y14883D01*
X835519Y14746D01*
X835388Y14612D01*
X835254Y14481D01*
X835117Y14354D01*
X834977Y14230D01*
X834834Y14110D01*
X834688Y13993D01*
X834539Y13880D01*
X834388Y13770D01*
X834233Y13664D01*
X834077Y13562D01*
X833917Y13464D01*
X833756Y13370D01*
X833592Y13280D01*
X833426Y13194D01*
X833258Y13112D01*
X833088Y13034D01*
X832916Y12960D01*
X832742Y12891D01*
X832567Y12825D01*
X832390Y12765D01*
X832212Y12708D01*
X832032Y12656D01*
X831852Y12608D01*
X831670Y12565D01*
X831487Y12526D01*
X831303Y12492D01*
X831118Y12462D01*
X830933Y12437D01*
X830747Y12417D01*
X830561Y12401D01*
X830374Y12389D01*
X830187Y12382D01*
X830000Y12380D01*
X829813Y12382D01*
X829626Y12389D01*
X829439Y12401D01*
X829253Y12417D01*
X829067Y12437D01*
X828882Y12462D01*
X828697Y12492D01*
X828513Y12526D01*
X828330Y12565D01*
X828148Y12608D01*
X827968Y12656D01*
X827788Y12708D01*
X827610Y12765D01*
X827433Y12825D01*
X827258Y12891D01*
X827084Y12960D01*
X826912Y13034D01*
X826742Y13112D01*
X826574Y13194D01*
X826408Y13280D01*
X826244Y13370D01*
X826083Y13464D01*
X825923Y13562D01*
X825767Y13664D01*
X825612Y13770D01*
X825461Y13880D01*
X825312Y13993D01*
X825166Y14110D01*
X825023Y14230D01*
X824883Y14354D01*
X824746Y14481D01*
X824612Y14612D01*
X824481Y14746D01*
X824354Y14883D01*
X824230Y15023D01*
X824110Y15166D01*
X823993Y15312D01*
X823880Y15461D01*
X823770Y15612D01*
X823664Y15767D01*
X823562Y15923D01*
X823464Y16083D01*
X823370Y16244D01*
X823280Y16408D01*
X823194Y16574D01*
X823112Y16742D01*
X823034Y16912D01*
X822960Y17084D01*
X822891Y17258D01*
X822825Y17433D01*
X822765Y17610D01*
X822708Y17788D01*
X822656Y17968D01*
X822608Y18148D01*
X822565Y18330D01*
X822526Y18513D01*
X822492Y18697D01*
X822462Y18882D01*
X822437Y19067D01*
X822417Y19253D01*
X822401Y19439D01*
X822389Y19626D01*
X822382Y19813D01*
X822380Y20000D01*
D16*
X830000Y20000D03*
M02*
