M48
;GenerationSoftware,Autodesk,EAGLE,9.5.1*%
;CreationDate,2019-12-19T04:48:28Z*%
FMAT,2
ICI,OFF
METRIC,TZ,000.000
T2C0.889
T1C1.000
%
G90
M71
T1
X2000Y49000
X86000Y3000
T2
X82090Y46470
X82090Y43930
X79550Y46470
X79550Y43930
X77010Y46470
X77010Y43930
X74470Y46470
X74470Y43930
X71930Y46470
X71930Y43930
X69390Y46470
X69390Y43930
X66850Y46470
X66850Y43930
X64310Y46470
X64310Y43930
X61770Y46470
X61770Y43930
X59230Y46470
X59230Y43930
X56690Y46470
X56690Y43930
X54150Y46470
X54150Y43930
X51610Y46470
X51610Y43930
X49070Y46470
X49070Y43930
X46530Y46470
X46530Y43930
X43990Y46470
X43990Y43930
X41450Y46470
X41450Y43930
X38910Y46470
X38910Y43930
X82090Y21070
X82090Y18530
X79550Y21070
X79550Y18530
X77010Y21070
X77010Y18530
X74470Y21070
X74470Y18530
X71930Y21070
X71930Y18530
X69390Y21070
X69390Y18530
X66850Y21070
X66850Y18530
X64310Y21070
X64310Y18530
X61770Y21070
X61770Y18530
X59230Y21070
X59230Y18530
X56690Y21070
X56690Y18530
X54150Y21070
X54150Y18530
X51610Y21070
X51610Y18530
X49070Y21070
X49070Y18530
X46530Y21070
X46530Y18530
X43990Y21070
X43990Y18530
X41450Y21070
X41450Y18530
X38910Y21070
X38910Y18530
M30